<?xml version="1.0" encoding="utf-8"?>
<!-- Generator: Adobe Illustrator 23.0.4, SVG Export Plug-In . SVG Version: 6.00 Build 0)  -->
<svg version="1.1" id="Layer_1" xmlns="http://www.w3.org/2000/svg" xmlns:xlink="http://www.w3.org/1999/xlink" x="0px" y="0px"
	 viewBox="0 0 457.3 147.7" style="enable-background:new 0 0 457.3 147.7;" xml:space="preserve">
<style type="text/css">
	.st0{fill:#323335;}
</style>
<g>
	<path class="st0" d="M142.2,30.9c-11.4,0-20.5,3.6-26.7,11v-9.8H92v105.5l24.6,10v-39.6c6.3,6.9,15,10.3,25.6,10.3
		c23.8,0,42.3-17,42.3-43.7S166,30.9,142.2,30.9z M137.9,98.1c-12.3,0-21.6-8.8-21.6-23.5c0-14.7,9.3-23.5,21.6-23.5
		s21.6,8.8,21.6,23.5C159.5,89.3,150.2,98.1,137.9,98.1z"/>
	<path class="st0" d="M233.7,30.9c-13.6,0-27.3,3.6-36.6,10.3l8.8,17.2c6.2-4.9,15.5-7.9,24.5-7.9c13.3,0,19.6,6.2,19.6,16.7h-19.6
		c-25.9,0-36.4,10.4-36.4,25.4c0,14.7,11.8,25.7,31.7,25.7c12.5,0,21.3-4.1,25.9-11.8v10.6h23V68.6
		C274.6,42.9,259.6,30.9,233.7,30.9z M249.9,90.3c-2.8,7.7-9.9,11.5-18.1,11.5c-8.7,0-13.9-4.1-13.9-10.3c0-5.7,3.6-9.9,15.1-9.9
		h16.9V90.3z"/>
	<path class="st0" d="M320.3,43.4V32.2h-23.5v84.9h24.6V77c0-16.3,9-23.7,22.6-23.7c1.9,0,3.5,0.2,5.5,0.3V30.9
		C336.4,30.9,326.3,35.2,320.3,43.4z"/>
	<polygon class="st0" points="418.8,68.2 454.1,32.2 424.8,32.2 388.8,66.3 388.8,10 364.2,0 364.2,117.1 388.8,117.1 388.8,95.5 
		400.6,83.8 427.5,117.1 457.3,117.1 	"/>
	<path class="st0" d="M66.7,71.7c-9.3-5.7-21.9-6.8-21.9-6.8l2.4,6c0,0-12.3-5.2-29.6-9.4c8-3.1,18.8-4.3,18.8-4.3L34.1,52
		c0,0,15.5-3.8,31.7,3.9L74,38.3c-8-4.7-21-7.4-32.7-7.4c-24.8,0-39.3,11.4-39.3,27.5c0,33.9,51.3,19.7,51.3,33.6
		c0,4.7-4.3,7.7-15.6,7.7c-10.4,0-21.9-3.3-29.5-8.2L0,109.2c7.9,5.2,22.4,9.2,36.8,9.2c25.4,0,40.1-11.2,40.1-27
		C76.8,81.8,72.6,75.6,66.7,71.7z"/>
</g>
</svg>
