<svg id="Layer_1" data-name="Layer 1" xmlns="http://www.w3.org/2000/svg" viewBox="0 0 3455.42 973.7"><defs><style>.cls-1{fill:#fff;}.cls-2{fill:#323335;}</style></defs><title>spark</title><path d="M-2997.83-226.42l5-8.84c6.63,5.21,17.83,9.31,29.51,9.31,15.78,0,22.25-5.36,22.25-13.57,0-21.61-53.81-4.57-53.81-37.39,0-13.57,11.68-23.67,32.82-23.67,10.73,0,22.41,3,29.35,7.73l-4.89,9c-7.26-5-15.94-7.11-24.46-7.11-15,0-21.62,5.84-21.62,13.73,0,22.41,53.81,5.53,53.81,37.4,0,14.36-12.62,23.67-34.24,23.67C-2977.79-216.16-2991-220.58-2997.83-226.42Z" transform="translate(2998.14 532.19)"/><path d="M-2825-258.45c0,25.25-17.68,42.29-41.35,42.29-13.25,0-24.61-5.68-31.55-16.41v46.23h-11.21V-299.95h10.73v16.41c6.79-11,18.31-17,32-17C-2842.72-300.58-2825-283.54-2825-258.45Zm-11.21,0c0-19.25-13.41-32.35-30.92-32.35-17.68,0-30.93,13.1-30.93,32.35,0,19.41,13.25,32.35,30.93,32.35C-2849.66-226.1-2836.25-239-2836.25-258.45Z" transform="translate(2998.14 532.19)"/><path d="M-2740-268.39v51.44h-10.73v-12.94c-5.05,8.52-14.83,13.73-28.56,13.73-18.78,0-30.3-9.79-30.3-24.14,0-12.79,8.21-23.52,32-23.52h26.35v-5c0-14.21-8-21.94-23.51-21.94-10.73,0-20.83,3.79-27.61,9.79l-5-8.37c8.36-7.1,20.67-11.2,33.77-11.2C-2752.14-300.58-2740-289.85-2740-268.39Zm-11.21,26.51v-13.57h-26c-16.1,0-21.3,6.31-21.3,14.83,0,9.63,7.73,15.62,21,15.62C-2764.92-225-2755.61-231-2751.2-241.88Z" transform="translate(2998.14 532.19)"/><path d="M-2667.72-300.58v10.89c-1,0-1.9-.16-2.69-.16-17.35,0-27.92,11-27.92,30.61v42.29h-11.21v-83h10.73v16.25C-2693.6-294.74-2683-300.58-2667.72-300.58Z" transform="translate(2998.14 532.19)"/><path d="M-2616.76-258.61l-19.56,18v23.67h-11.21V-334h11.21v79.37l49.54-45.29h13.89l-35.5,33.93,38.81,49.07h-13.72Z" transform="translate(2998.14 532.19)"/><path d="M-2418.41-380.89l9.79-23.52c8.2,4.9,19.88,7.74,30.14,7.74,8.68,0,11-1.58,11-4.11,0-8.83-49.7,3-49.7-31.55,0-16.26,15.15-29.51,44.18-29.51,12.62,0,26,2.37,35.19,7.1l-9.79,23.51a51.12,51.12,0,0,0-24.93-6.31c-9.15,0-11.67,2.05-11.67,4.1,0,9,49.54-2.68,49.54,31.88,0,15.62-14.67,29.19-44.65,29.19C-2394.1-372.37-2409.57-375.84-2418.41-380.89Z" transform="translate(2998.14 532.19)"/><path d="M-2224.64-417c0,27.77-19.09,44.66-41.65,44.66-9.47,0-16.73-2.37-21.94-7.42v36.45h-35.66V-460.26H-2290v7.1c5.2-5.84,12.94-8.68,23.67-8.68C-2243.73-461.84-2224.64-444.8-2224.64-417Zm-36.13,0c0-11.2-6.16-17-14.05-17s-14,5.84-14,17,6.16,16.89,14,16.89S-2260.77-405.83-2260.77-417Z" transform="translate(2998.14 532.19)"/><path d="M-2130.28-420.34v46.39h-33.13v-11.36c-4.1,8.68-12.31,12.94-24.46,12.94-21.14,0-32-12-32-26.83,0-16.72,12.62-26,39.45-26h14.36c-1.11-6.63-6.16-10.1-16.26-10.1-7.73,0-16.41,2.52-22.09,6.78l-11.36-23.51c10.1-6.31,25.41-9.78,38.82-9.78C-2147.32-461.84-2130.28-449.06-2130.28-420.34Zm-35.66,18.3v-6h-8.83c-7.58,0-10.89,2.52-10.89,7.25,0,3.95,3.16,6.95,8.52,6.95A11.29,11.29,0,0,0-2165.94-402Z" transform="translate(2998.14 532.19)"/><path d="M-2053-461.84v31.56a48.56,48.56,0,0,0-7.89-.63c-10.73,0-18.3,4.89-18.3,18.62v38.34h-35.66v-86.31h33.92v9.31C-2074.57-458.21-2064.95-461.84-2053-461.84Z" transform="translate(2998.14 532.19)"/><path d="M-2001.52-400.46l-5.68,6.15v20.36h-35.66V-491h35.66v55.86l24.78-25.09h42.13L-1976-422.87l38.51,48.92h-43.08Z" transform="translate(2998.14 532.19)"/><path d="M-2189.67,178.48l9-20.52c7.89,4.89,19.41,7.89,29.83,7.89,10.09,0,13.41-2.21,13.41-5.84,0-11.51-50.5,1.58-50.5-32.66,0-16.09,14.84-28.4,41.66-28.4,12,0,25.25,2.52,33.77,7.26l-9,20.35a50.14,50.14,0,0,0-24.61-6.31c-10.1,0-13.73,2.84-13.73,6,0,11.83,50.34-1,50.34,33,0,15.77-14.52,28.08-42.29,28.08C-2166.32,187.31-2181.31,183.68-2189.67,178.48Z" transform="translate(2998.14 532.19)"/><path d="M-2000.79,143.13c0,27.14-18.78,44.18-42,44.18-9.94,0-18-3-23.82-9V216.5h-30V100.37H-2068v8.52c5.68-6.79,14-9.94,25.24-9.94C-2019.57,99-2000.79,116-2000.79,143.13Zm-30.3,0c0-12.94-7.89-20.35-18-20.35s-18,7.41-18,20.35,7.89,20.36,18,20.36S-2031.09,156.07-2031.09,143.13Z" transform="translate(2998.14 532.19)"/><path d="M-1908.64,138.4v47.49h-27.93v-11c-4.26,8.2-12.78,12.46-25.25,12.46-20.51,0-31.87-11.52-31.87-26.35,0-15.78,11.52-25.56,38-25.56h17c-.48-8.68-6.31-13.57-18.15-13.57-8.2,0-17.35,2.84-23.19,7.42l-10.1-20.36c9.78-6.47,24.3-9.94,37.71-9.94C-1924.58,99-1908.64,111.26-1908.64,138.4Zm-30,20V151h-12.94c-9.63,0-13.1,3.47-13.1,8.68,0,5.05,4.1,8.68,11.21,8.68C-1946.83,168.38-1941,165.22-1938.62,158.44Z" transform="translate(2998.14 532.19)"/><path d="M-1832.43,99v27a55.52,55.52,0,0,0-6.78-.47c-12.15,0-20.52,6.15-20.52,21.14v39.29h-30V100.37h28.56v10.26C-1855,102.89-1845,99-1832.43,99Z" transform="translate(2998.14 532.19)"/><path d="M-1781.3,155.91l-8.84,9v21h-30V68.81h30v61.38l30.61-29.82h35.5l-35.5,36.61,38.5,48.91h-36.29Z" transform="translate(2998.14 532.19)"/><path d="M-2132.33-112.85c10.58,2.91,19.82,9.82,19.82,23.95,0,15.78-14.68,27-40.08,27-14.36,0-28.88-3.94-36.77-9.15l8.21-17.67c7.57,4.89,19.09,8.2,29.51,8.2,11.36,0,15.62-3,15.62-7.73,0-13.88-51.28.32-51.28-33.61,0-16.09,14.51-27.45,39.29-27.45,11.67,0,24.61,2.68,32.66,7.41l-8.21,17.52" transform="translate(2998.14 532.19)"/><path d="M-2004.9-105.63c0,26.67-18.46,43.71-42.29,43.71-10.57,0-19.25-3.31-25.56-10.25v39.6l-24.61-10v-105.5h23.51v9.78c6.15-7.41,15.3-11,26.66-11C-2023.36-149.33-2004.9-132.29-2004.9-105.63Zm-24.93,0c0-14.67-9.31-23.51-21.62-23.51s-21.61,8.84-21.61,23.51,9.31,23.52,21.61,23.52S-2029.83-90.95-2029.83-105.63Z" transform="translate(2998.14 532.19)"/><path d="M-1914.8-111.62v48.44h-23V-73.75c-4.58,7.73-13.42,11.83-25.88,11.83-19.88,0-31.72-11-31.72-25.72,0-15,10.57-25.4,36.45-25.4h19.57c0-10.57-6.31-16.73-19.57-16.73-9,0-18.3,3-24.46,7.89l-8.83-17.2c9.31-6.62,23-10.25,36.61-10.25C-1929.79-149.33-1914.8-137.34-1914.8-111.62ZM-1939.41-90v-8.68h-16.89c-11.51,0-15.14,4.26-15.14,9.94,0,6.15,5.2,10.25,13.88,10.25C-1949.35-78.49-1942.25-82.27-1939.41-90Z" transform="translate(2998.14 532.19)"/><path d="M-1839.85-149.33v22.72c-2.05-.16-3.62-.32-5.52-.32-13.57,0-22.56,7.42-22.56,23.67v40.08h-24.62v-84.89H-1869v11.2C-1863-145.07-1852.94-149.33-1839.85-149.33Z" transform="translate(2998.14 532.19)"/><path d="M-1788.72-96.47l-11.83,11.67v21.62h-24.62V-180.26l24.62,10V-114l36-34.08h29.35l-35.34,36,38.5,48.91h-29.83Z" transform="translate(2998.14 532.19)"/><path d="M-1398-167.26l9.78-23.51c8.21,4.89,19.88,7.73,30.14,7.73,8.68,0,11-1.58,11-4.1,0-8.84-49.71,3-49.71-31.56,0-16.25,15.15-29.51,44.18-29.51,12.63,0,26,2.37,35.19,7.1l-9.78,23.51a51.17,51.17,0,0,0-24.93-6.31c-9.16,0-11.68,2-11.68,4.1,0,9,49.55-2.68,49.55,31.88,0,15.62-14.68,29.19-44.66,29.19C-1373.69-158.74-1389.15-162.21-1398-167.26Z" transform="translate(2998.14 532.19)"/><path d="M-1204.22-203.4c0,27.77-19.1,44.66-41.66,44.66-9.47,0-16.73-2.37-21.93-7.42v36.45h-35.66V-246.63h33.92v7.1c5.21-5.84,12.94-8.68,23.67-8.68C-1223.32-248.21-1204.22-231.17-1204.22-203.4Zm-36.14,0c0-11.2-6.15-17-14-17s-14,5.84-14,17,6.15,16.89,14,16.89S-1240.36-192.19-1240.36-203.4Z" transform="translate(2998.14 532.19)"/><path d="M-1109.86-206.71v46.39H-1143v-11.36c-4.1,8.68-12.31,12.94-24.45,12.94-21.15,0-32-12-32-26.83,0-16.72,12.63-26,39.45-26h14.36c-1.1-6.63-6.15-10.1-16.25-10.1-7.73,0-16.41,2.52-22.09,6.78l-11.36-23.51c10.1-6.31,25.4-9.78,38.81-9.78C-1126.9-248.21-1109.86-235.43-1109.86-206.71Zm-35.66,18.3v-6h-8.84c-7.57,0-10.89,2.52-10.89,7.26,0,3.94,3.16,6.94,8.52,6.94A11.3,11.3,0,0,0-1145.52-188.41Z" transform="translate(2998.14 532.19)"/><path d="M-1032.54-248.21v31.56a49.89,49.89,0,0,0-7.89-.63c-10.73,0-18.31,4.89-18.31,18.62v38.34h-35.66v-86.31h33.93v9.31C-1054.16-244.58-1044.53-248.21-1032.54-248.21Z" transform="translate(2998.14 532.19)"/><path d="M-981.1-186.83l-5.68,6.16v20.35h-35.66V-277.4h35.66v55.86L-962-246.63h42.13l-35.66,37.4,38.5,48.91h-43.08Z" transform="translate(2998.14 532.19)"/><path d="M-1853.77-422l9.78-23.51c8.21,4.89,19.88,7.73,30.14,7.73,8.68,0,11-1.58,11-4.11,0-8.83-49.71,3-49.71-31.55,0-16.26,15.15-29.51,44.18-29.51,12.63,0,26,2.37,35.19,7.1l-9.78,23.51a51.17,51.17,0,0,0-24.93-6.31c-9.16,0-11.68,2.05-11.68,4.1,0,9,49.55-2.68,49.55,31.88,0,15.62-14.68,29.19-44.66,29.19C-1829.47-413.53-1844.93-417-1853.77-422Z" transform="translate(2998.14 532.19)"/><path d="M-1660-458.19c0,27.77-19.1,44.66-41.66,44.66-9.47,0-16.73-2.37-21.93-7.42v36.45l-35.66,4V-501.42h33.92v7.1c5.21-5.84,12.94-8.68,23.67-8.68C-1679.1-503-1660-486-1660-458.19Zm-36.14,0c0-11.2-6.15-17-14-17s-14,5.84-14,17,6.15,16.89,14,16.89S-1696.14-447-1696.14-458.19Z" transform="translate(2998.14 532.19)"/><path d="M-1565.64-461.5v46.39h-33.14v-11.36c-4.1,8.68-12.31,12.94-24.46,12.94-21.14,0-32-12-32-26.83,0-16.72,12.63-26,39.45-26h14.36c-1.11-6.63-6.15-10.1-16.25-10.1-7.73,0-16.41,2.52-22.09,6.78l-11.36-23.51c10.09-6.31,25.4-9.78,38.81-9.78C-1582.68-503-1565.64-490.22-1565.64-461.5Zm-35.66,18.3v-6h-8.84c-7.57,0-10.89,2.52-10.89,7.25,0,3.95,3.16,6.95,8.52,6.95A11.3,11.3,0,0,0-1601.3-443.2Z" transform="translate(2998.14 532.19)"/><path d="M-1488.32-503v31.56a48.73,48.73,0,0,0-7.89-.63c-10.73,0-18.31,4.89-18.31,18.62v38.34h-35.66v-86.31h33.93v9.31C-1509.94-499.37-1500.32-503-1488.32-503Z" transform="translate(2998.14 532.19)"/><path d="M-1436.88-441.62l-5.68,6.15v20.36h-35.66V-532.19h35.66v55.86l24.77-25.09h42.13L-1411.32-464l38.5,48.92h-43.08Z" transform="translate(2998.14 532.19)"/><path d="M-2998.14,93.21l6.31-12c7.1,5,18.46,8.68,29.35,8.68,14,0,19.88-4.26,19.88-11.36,0-18.78-52.86-2.53-52.86-35.82,0-15,13.41-25.09,34.87-25.09,10.89,0,23.2,2.84,30.46,7.57l-6.47,12c-7.58-4.9-15.94-6.63-24.15-6.63-13.25,0-19.72,4.89-19.72,11.52,0,19.72,53,3.63,53,36.13,0,15.15-13.89,24.78-36.14,24.78C-2977.47,103-2991.2,98.74-2998.14,93.21Z" transform="translate(2998.14 532.19)"/><path d="M-2821.89,60.23c0,25.72-17.83,42.77-42.29,42.77-11.83,0-22.25-4.58-29.19-13.57v43.23h-15.15V18.42H-2894V31.67c6.79-9.31,17.51-14,29.82-14C-2839.72,17.63-2821.89,34.67-2821.89,60.23Zm-15.31,0c0-17.67-12.14-29.34-28.24-29.34-15.94,0-28.09,11.67-28.09,29.34,0,17.83,12.15,29.51,28.09,29.51C-2849.34,89.74-2837.2,78.06-2837.2,60.23Z" transform="translate(2998.14 532.19)"/><path d="M-2735.42,51.56v50.49h-14.36V91c-5,7.58-14.36,12-27.45,12-18.94,0-30.93-10.1-30.93-24.62,0-13.41,8.68-24.46,33.61-24.46h24v-3c0-12.78-7.41-20.19-22.4-20.19-9.94,0-20,3.47-26.51,9l-6.31-11.36c8.68-6.94,21.14-10.73,34.55-10.73C-2748.36,17.63-2735.42,28.68-2735.42,51.56Zm-15.15,24.93V64.81h-23.35c-15,0-19.25,5.84-19.25,12.94,0,8.36,6.94,13.57,18.46,13.57C-2763.35,91.32-2754.35,86.11-2750.57,76.49Z" transform="translate(2998.14 532.19)"/><path d="M-2662.36,17.63V32.3a28.12,28.12,0,0,0-3.47-.15c-16.25,0-26.35,9.94-26.35,28.24v41.66h-15.15V18.42h14.52v14C-2687.45,22.68-2677,17.63-2662.36,17.63Z" transform="translate(2998.14 532.19)"/><path d="M-2611.23,63.07l-17.36,16.1v22.88h-15.15V-15h15.15V60.08l45.6-41.66h18.3L-2599.87,53l38.66,49.07h-18.62Z" transform="translate(2998.14 532.19)"/><path d="M-2998.14,328.21l6.31-12c7.1,5,18.46,8.68,29.35,8.68,14,0,19.88-4.26,19.88-11.36,0-18.78-52.86-2.53-52.86-35.82,0-15,13.41-25.09,34.87-25.09,10.89,0,23.2,2.84,30.46,7.57l-6.47,12c-7.58-4.9-15.94-6.63-24.15-6.63-13.25,0-19.72,4.89-19.72,11.52,0,19.72,53,3.63,53,36.13,0,15.15-13.89,24.78-36.14,24.78C-2977.47,338-2991.2,333.74-2998.14,328.21Z" transform="translate(2998.14 532.19)"/><path d="M-2821.89,295.23c0,25.72-17.83,42.77-42.29,42.77-11.83,0-22.25-4.58-29.19-13.57v43.23h-15.15V253.42H-2894v13.25c6.78-9.31,17.51-14,29.82-14C-2839.72,252.63-2821.89,269.67-2821.89,295.23Zm-15.31,0c0-17.67-12.14-29.35-28.24-29.35-15.94,0-28.09,11.68-28.09,29.35,0,17.83,12.15,29.51,28.09,29.51C-2849.34,324.74-2837.2,313.06-2837.2,295.23Z" transform="translate(2998.14 532.19)"/><path d="M-2735.42,286.56v50.49h-14.36V326c-5,7.58-14.36,12-27.45,12-18.94,0-30.93-10.1-30.93-24.62,0-13.41,8.68-24.46,33.61-24.46h24v-3c0-12.78-7.41-20.19-22.4-20.19-9.94,0-20,3.47-26.51,9l-6.31-11.36c8.68-6.94,21.14-10.73,34.55-10.73C-2748.36,252.63-2735.42,263.68-2735.42,286.56Zm-15.15,24.93V299.81h-23.35c-15,0-19.25,5.84-19.25,12.94,0,8.36,6.94,13.57,18.46,13.57C-2763.35,326.32-2754.35,321.11-2750.57,311.49Z" transform="translate(2998.14 532.19)"/><path d="M-2662.36,252.63V267.3a28.12,28.12,0,0,0-3.47-.15c-16.25,0-26.35,9.94-26.35,28.24v41.66h-15.15V253.42h14.52v14C-2687.45,257.68-2677,252.63-2662.36,252.63Z" transform="translate(2998.14 532.19)"/><path d="M-2611.23,298.07l-17.36,16.1v22.88h-15.15V220h15.15v75.11l45.6-41.66h18.3L-2599.87,288l51.66,64.76h-18.62Z" transform="translate(2998.14 532.19)"/><polygon points="428.91 884.94 436.83 884.94 418.91 868.94 395.91 868.94 438.91 899.94 428.91 884.94"/><path d="M-1067.58,5.2v-28a2.27,2.27,0,0,1,1.46-2.11l53.48-20.28a2.26,2.26,0,0,1,3.06,2.11v19.69a2.26,2.26,0,0,0,2.9,2.17L-973.91-31a2.26,2.26,0,0,1,2,3.94l-53.05,41.8a2.26,2.26,0,0,1-3.66-1.77V-4.91A2.26,2.26,0,0,0-1031.74-7l-32.68,14.25A2.26,2.26,0,0,1-1067.58,5.2Z" transform="translate(2998.14 532.19)"/><path class="cls-1" d="M-1353.31-212.62c-6.16-.79-14.37-2.37-19.51-6.32,4.11,0,12.32-.79,16.43-2.37-2-3.95-3.08-6.31-3.08-6.31s16.43,1.57,23.62,0a50.67,50.67,0,0,1,1,9.47s-8.22.79-17.46.79Z" transform="translate(2998.14 532.19)"/><polygon points="1238.89 122.78 1238.89 156.6 1256.35 156.6 1256.52 182.96 1290.85 131.95 1274.55 131.89 1274.54 122.78 1238.89 122.78"/><polygon points="1840.63 843.78 1840.63 877.6 1858.09 877.6 1858.26 903.96 1892.59 852.96 1876.29 852.9 1876.28 843.78 1840.63 843.78"/><path d="M-1252,300.13l9.78-23.51c8.21,4.89,19.88,7.73,30.14,7.73,8.68,0,11-1.58,11-4.11,0-8.83-49.7,3-49.7-31.55,0-16.26,15.15-29.51,44.18-29.51,12.63,0,26,2.37,35.19,7.1l-9.78,23.51a51.17,51.17,0,0,0-24.93-6.31c-9.16,0-11.68,2.05-11.68,4.1,0,9,49.55-2.68,49.55,31.88,0,15.62-14.68,29.19-44.66,29.19C-1227.73,308.65-1243.2,305.18-1252,300.13Z" transform="translate(2998.14 532.19)"/><path d="M-1058.26,264c0,27.77-19.1,44.66-41.66,44.66-9.47,0-16.73-2.37-21.93-7.42v36.45l-35.67-10.46V220.76h33.93v7.1c5.21-5.84,12.94-8.68,23.67-8.68C-1077.36,219.18-1058.26,236.22-1058.26,264Zm-36.14,0c0-11.2-6.15-17-14-17s-14,5.84-14,17,6.16,16.89,14,16.89S-1094.4,275.19-1094.4,264Z" transform="translate(2998.14 532.19)"/><path d="M-963.9,260.68v46.39H-997V295.71c-4.1,8.68-12.31,12.94-24.46,12.94-21.14,0-32-12-32-26.83,0-16.72,12.63-26,39.45-26h14.36c-1.11-6.63-6.15-10.1-16.25-10.1-7.73,0-16.41,2.52-22.09,6.78L-1049.43,229c10.1-6.31,25.41-9.78,38.82-9.78C-980.94,219.18-963.9,232-963.9,260.68ZM-999.56,279v-6h-8.84c-7.57,0-10.89,2.52-10.89,7.25,0,3.95,3.16,6.95,8.52,6.95A11.3,11.3,0,0,0-999.56,279Z" transform="translate(2998.14 532.19)"/><path d="M-886.58,219.18v31.56a48.73,48.73,0,0,0-7.89-.63c-10.73,0-18.31,4.89-18.31,18.62v38.34h-35.66V220.76h33.93v9.31C-908.2,222.81-898.58,219.18-886.58,219.18Z" transform="translate(2998.14 532.19)"/><path d="M-835.14,280.56l-5.68,6.15v20.36h-35.67V190l35.67,8.8v47.06L-816,220.76h42.13l-35.66,37.39,38.5,48.92h-43.08Z" transform="translate(2998.14 532.19)"/><path d="M-2115.14,359c9.35,3.35,17.08,9.79,17.08,23.43,0,15.62-14.68,29.19-44.66,29.19-14.83,0-30.29-3.47-39.13-8.52l9.78-23.51c8.21,4.89,19.89,7.74,30.14,7.74,8.68,0,11-1.58,11-4.11,0-8.83-49.71,3-49.71-31.56,0-16.25,15.15-29.5,44.18-29.5,12.63,0,26,2.36,35.19,7.1l-9.78,23.51" transform="translate(2998.14 532.19)"/><path d="M-1988.22,367.82c0,27.77-19.09,44.65-41.66,44.65-9.46,0-16.72-2.36-21.93-7.41v36.45l-35.66-10.46V324.58h33.92v7.1c5.21-5.83,12.94-8.67,23.67-8.67C-2007.31,323-1988.22,340.05-1988.22,367.82Zm-36.13,0c0-11.21-6.16-17-14.05-17s-14,5.83-14,17,6.15,16.88,14,16.88S-2024.35,379-2024.35,367.82Z" transform="translate(2998.14 532.19)"/><path d="M-1893.86,364.5v46.39H-1927V399.53c-4.11,8.68-12.31,12.94-24.46,12.94-21.15,0-32-12-32-26.82,0-16.73,12.62-26,39.44-26h14.36c-1.1-6.62-6.15-10.1-16.25-10.1-7.73,0-16.41,2.53-22.09,6.79l-11.36-23.51c10.1-6.31,25.4-9.78,38.82-9.78C-1910.9,323-1893.86,335.79-1893.86,364.5Zm-35.66,18.31v-6h-8.84c-7.57,0-10.88,2.53-10.88,7.26,0,3.94,3.15,6.94,8.52,6.94A11.28,11.28,0,0,0-1929.52,382.81Z" transform="translate(2998.14 532.19)"/><path d="M-1816.54,323v31.55a49.8,49.8,0,0,0-7.89-.63c-10.73,0-18.3,4.89-18.3,18.62v38.34h-35.66V324.58h33.92v9.31C-1838.16,326.63-1828.53,323-1816.54,323Z" transform="translate(2998.14 532.19)"/><path d="M-1765.1,384.39l-5.68,6.15v20.35h-35.66V293.81l35.66,8.81v47.05l24.77-25.09h42.13l-35.66,37.4,38.5,48.91h-43.07Z" transform="translate(2998.14 532.19)"/><path class="cls-1" d="M-2110.39,361.1c-9-4.11-14.39-4.72-23.52-5.3a59,59,0,0,1,2.45,5.44,120.74,120.74,0,0,0-28.15-7.6,72.55,72.55,0,0,1,17.19-1.9,29.65,29.65,0,0,0-3.06-4.36c3.44-.43,25.24-1.14,35.05,4.05C-2110.4,357.65-2110.39,361.1-2110.39,361.1Z" transform="translate(2998.14 532.19)"/><path class="cls-1" d="M-2122.44-108.45c-9.33-5.86-22.11-6.92-22.11-6.92l2.45,6a214.27,214.27,0,0,0-29.55-9.43c8-3.08,18.79-4.29,18.79-4.29l-2.41-5.22s19.86-3.93,31.71,3.87C-2123.16-114.81-2122.44-108.45-2122.44-108.45Z" transform="translate(2998.14 532.19)"/><path class="cls-2" d="M142.17,30.93c-11.36,0-20.51,3.63-26.67,11V32.19H92v105.5l24.62,10v-39.6c6.31,6.94,15,10.25,25.56,10.25,23.83,0,42.29-17,42.29-43.7S166,30.93,142.17,30.93Zm-4.26,67.22c-12.31,0-21.62-8.84-21.62-23.51s9.31-23.52,21.62-23.52S159.53,60,159.53,74.64,150.22,98.15,137.91,98.15Z" transform="translate(2998.14 532.19)"/><path class="cls-2" d="M233.69,30.93c-13.57,0-27.3,3.63-36.61,10.25l8.84,17.2c6.15-4.89,15.46-7.89,24.46-7.89,13.25,0,19.56,6.16,19.56,16.73H230.38c-25.88,0-36.45,10.41-36.45,25.4,0,14.68,11.83,25.72,31.71,25.72,12.47,0,21.31-4.1,25.88-11.83v10.57h23V68.64C274.56,42.92,259.57,30.93,233.69,30.93Zm16.25,59.33C247.1,98,240,101.78,231.8,101.78c-8.68,0-13.89-4.11-13.89-10.26,0-5.68,3.63-9.94,15.15-9.94h16.88Z" transform="translate(2998.14 532.19)"/><path class="cls-2" d="M320.32,43.39V32.19H296.81v84.89h24.61V77c0-16.25,9-23.67,22.57-23.67,1.89,0,3.47.16,5.52.32V30.93C336.41,30.93,326.31,35.19,320.32,43.39Z" transform="translate(2998.14 532.19)"/><polygon class="cls-2" points="3416.92 600.36 3452.27 564.38 3422.92 564.38 3386.94 598.46 3386.94 542.19 3362.33 532.19 3362.33 649.27 3386.94 649.27 3386.94 627.66 3398.78 615.98 3425.6 649.27 3455.43 649.27 3416.92 600.36"/><path class="cls-2" d="M66.69,71.67c-9.31-5.74-21.88-6.78-21.88-6.78l2.44,6A214.27,214.27,0,0,0,17.7,61.5c8.05-3.08,18.8-4.29,18.8-4.29L34.08,52A52.52,52.52,0,0,1,65.8,55.86L74,38.34c-8-4.73-21-7.41-32.66-7.41-24.77,0-39.29,11.36-39.29,27.45C2.05,92.31,53.33,78.11,53.33,92c0,4.74-4.26,7.73-15.62,7.73-10.41,0-21.93-3.31-29.5-8.2L0,109.19c7.89,5.21,22.41,9.15,36.77,9.15,25.4,0,40.07-11.2,40.07-27C76.84,81.85,72.65,75.62,66.69,71.67Z" transform="translate(2998.14 532.19)"/></svg>