<?xml version="1.0" encoding="utf-8"?>
<!-- Generator: Adobe Illustrator 17.1.0, SVG Export Plug-In . SVG Version: 6.00 Build 0)  -->
<!DOCTYPE svg PUBLIC "-//W3C//DTD SVG 1.1//EN" "http://www.w3.org/Graphics/SVG/1.1/DTD/svg11.dtd">
<svg version="1.1" id="Layer_1" xmlns="http://www.w3.org/2000/svg" xmlns:xlink="http://www.w3.org/1999/xlink" x="0px" y="0px"
	 viewBox="0 0 137.667 146" enable-background="new 0 0 137.667 146" xml:space="preserve">
<path fill="none" stroke="#231F20" stroke-miterlimit="10" d="M30.153,130.463c0,7.726-6.263,13.989-13.989,13.989l0,0
	c-7.727,0-13.989-6.262-13.989-13.989l0,0c0-7.727,6.262-13.989,13.989-13.989l0,0C23.89,116.473,30.153,122.736,30.153,130.463
	L30.153,130.463z"/>
<path fill="none" stroke="#231F20" stroke-miterlimit="10" d="M83.204,130.457c0,7.726-6.262,13.989-13.989,13.989l0,0
	c-7.727,0-13.989-6.263-13.989-13.989l0,0c0-7.727,6.262-13.989,13.989-13.989l0,0C76.942,116.468,83.204,122.73,83.204,130.457
	L83.204,130.457z"/>
<path fill="none" stroke="#231F20" stroke-miterlimit="10" d="M136.442,130.219c0,7.726-6.262,13.989-13.989,13.989l0,0
	c-7.726,0-13.989-6.263-13.989-13.989l0,0c0-7.727,6.263-13.989,13.989-13.989l0,0C130.179,116.23,136.442,122.493,136.442,130.219
	L136.442,130.219z"/>
<path fill="none" stroke="#231F20" stroke-miterlimit="10" d="M82.961,15.672c0,7.727-6.262,13.989-13.989,13.989l0,0
	c-7.727,0-13.989-6.262-13.989-13.989l0,0c0-7.726,6.262-13.989,13.989-13.989l0,0C76.699,1.683,82.961,7.946,82.961,15.672
	L82.961,15.672z"/>
<line fill="none" stroke="#231F20" stroke-miterlimit="10" x1="69.542" y1="115.845" x2="69.542" y2="29.209"/>
<line fill="none" stroke="#231F20" stroke-miterlimit="10" x1="21.347" y1="117.377" x2="69.457" y2="69.267"/>
<line fill="none" stroke="#231F20" stroke-miterlimit="10" x1="69.542" y1="69.267" x2="117.569" y2="117.559"/>
</svg>
