<?xml version="1.0" encoding="utf-8"?>
<!-- Generator: Adobe Illustrator 17.1.0, SVG Export Plug-In . SVG Version: 6.00 Build 0)  -->
<!DOCTYPE svg PUBLIC "-//W3C//DTD SVG 1.1//EN" "http://www.w3.org/Graphics/SVG/1.1/DTD/svg11.dtd">
<svg version="1.1" id="Layer_1" xmlns="http://www.w3.org/2000/svg" xmlns:xlink="http://www.w3.org/1999/xlink" x="0px" y="0px"
	 viewBox="0 0 200 200" enable-background="new 0 0 200 200" xml:space="preserve">
<g>
	<path fill="#0D5683" d="M47.635,94.729c-3.034,0-5.502,2.702-5.568,6.063h-0.002h-0.001c-0.066-3.361-2.534-6.063-5.569-6.063
		c-3.077,0-5.569,2.775-5.569,6.201c0,0.148,0.004,0.296,0.012,0.442c0.021,7.287,11.086,13.185,11.127,13.185
		c0.039,0,11.106-5.898,11.128-13.185c0.008-0.146,0.012-0.294,0.012-0.442C53.204,97.505,50.712,94.729,47.635,94.729z"/>
	<g>
		<path fill="#0D5683" d="M131.208,171.347c-0.535-2.812-6.739-3.704-9.461-5.757c-1.287-0.97-1.786-2.859-1.954-4.58
			c1.08-1.268,2.08-2.606,2.229-3.331c0.322-1.564,0.644-7.682,0.506-9.614c-0.138-1.932-2.392-4.461-4.186-5.105
			c-1.688-0.607-2.602-0.52-2.704-0.507c-0.101-0.013-1.016-0.099-2.704,0.507c-1.793,0.644-4.048,3.173-4.186,5.105
			c-0.138,1.932,0.184,8.05,0.506,9.614c0.15,0.725,1.149,2.063,2.23,3.332c-0.088,0.889-0.263,1.824-0.591,2.654
			c1.54,0.616,3.106,1.258,4.374,2.023c1.732,1.046,2.699,2.215,2.959,3.576c0.693,3.636,1.147,7.921,1.166,8.102l0.02,0.184H132.1
			C132.1,177.55,131.743,174.158,131.208,171.347z"/>
		<path fill="#0D5683" d="M110.343,164.722c-2.046-0.818-4.113-1.625-5.49-2.664c-1.661-1.252-2.304-3.688-2.521-5.909
			c1.393-1.636,2.683-3.363,2.876-4.299c0.415-2.018,0.831-9.912,0.653-12.404c-0.179-2.493-3.086-5.758-5.401-6.589
			c-1.62-0.581-2.688-0.669-3.183-0.669c-0.17,0-0.272,0.01-0.306,0.015c-0.033-0.005-0.136-0.015-0.306-0.015
			c-0.495,0-1.562,0.088-3.183,0.669c-2.315,0.831-5.222,4.095-5.401,6.589c-0.178,2.492,0.238,10.386,0.653,12.404
			c0.193,0.936,1.483,2.662,2.876,4.299c-0.218,2.221-0.861,4.657-2.522,5.909c-3.512,2.649-11.516,3.801-12.207,7.428
			c-0.691,3.627-1.152,8.004-1.152,8.004h17.634h3.601h0.012h2.206h1.243h17.786c0,0-0.461-4.377-1.152-8.004
			C116.641,167.281,113.517,165.991,110.343,164.722z"/>
	</g>
	<g>
		<path fill="#0D5683" d="M104.963,99.602h-8.037c-0.161,0.397-0.517,0.731-1.175,0.929c-2.891,0.873-2.891,0.873-2.891,0.873v0.031
			h16.17v-0.031c0,0,0,0-2.892-0.873C105.48,100.333,105.125,99.999,104.963,99.602z"/>
		<rect x="92.86" y="101.984" fill="#0D5683" width="16.17" height="0.976"/>
		<path fill="#0D5683" d="M104.855,99.052c-0.027-1.301,1.283-2.884,1.283-2.884H95.75c0,0,1.31,1.583,1.283,2.884H104.855z"/>
		<path fill="#0D5683" d="M121.408,66.333H80.481c-0.728,0-1.318,0.59-1.318,1.318v26.488c0,0.728,0.59,1.318,1.318,1.318h40.926
			c0.728,0,1.318-0.59,1.318-1.318V67.651C122.726,66.923,122.136,66.333,121.408,66.333z M121.653,91.682
			c0,0.104-0.085,0.188-0.188,0.188H80.663c-0.104,0-0.188-0.085-0.188-0.188V67.796c0-0.104,0.084-0.188,0.188-0.188h40.801
			c0.104,0,0.188,0.085,0.188,0.188V91.682z"/>
	</g>
	<path fill="#0D5683" d="M156.576,30.733h-22.91c-0.864,0-1.566,0.701-1.566,1.566v32.957c0,0.865,0.702,1.566,1.566,1.566h22.91
		c0.865,0,1.566-0.701,1.566-1.566V32.298C158.141,31.433,157.441,30.733,156.576,30.733z M156.047,63.377h-21.921v-30.22h21.921
		V63.377z"/>
	<path fill="#0D5683" d="M174.662,40.061l-10.215-0.02c-1.432-0.005-2.599,1.156-2.6,2.59l-0.049,22.359
		c-0.005,1.432,1.155,2.594,2.592,2.6l10.214,0.019c1.434,0.008,2.599-1.153,2.604-2.588l0.045-22.359
		C177.256,41.229,176.095,40.065,174.662,40.061z M170.366,64.791l-0.004,1.08l-1.727-0.006l0.002-1.075l-0.253-0.002l1.13-0.982
		l1.101,0.987L170.366,64.791z M175.645,62.426l-12.38-0.03l0.044-19.231l12.38,0.026L175.645,62.426z"/>
	<path fill="#0D5683" d="M165.31,105.324c-0.07-0.021-0.125-0.036-0.184-0.051c-0.18-0.044-0.373-0.079-0.571-0.106
		c0,0-0.001-0.005,0.008-0.008c0.409-0.318,0.711-0.804,0.803-1.609c0.125-1.084-0.943-1.543-1.921-1.736
		c-0.111-0.027-0.251-0.049-0.411-0.068c-0.613-0.082-1.105-0.073-1.105-0.073c-2.718-0.083-7.471,0.231-7.471,0.231
		c0.562-1.206,1.085-4.62,0.402-7.392c-0.683-2.772-3.173-2.169-3.173-2.169s0.08,2.531,0,4.219
		c-0.081,1.686-2.089,4.74-3.093,5.061c-1.005,0.321-1.768,1.045-3.656,2.41c-0.851,0.616-2.208,0.839-3.441,0.9v9.256
		c0.24-0.057,0.491-0.109,0.75-0.153c1.447-0.24,5.383,0.161,7.753,0.603c2.371,0.442,6.548-0.04,9.159-0.642
		c2.612-0.603,1.768-2.25,1.768-2.25s1.486,0,2.41-0.964c0.924-0.964-0.321-2.249-0.321-2.249c0.647-0.083,1.279-0.248,1.816-0.48
		C166.874,106.487,165.31,105.324,165.31,105.324z"/>
	<g>
		<path fill="#0D5683" d="M102.977,38.003h-0.343l-0.012-0.343c-0.101-3.839-3.191-6.847-7.034-6.847
			c-2.453,0-4.704,1.265-5.984,3.332c1.389,0.302,2.658,1.037,3.618,2.102c1.129,1.254,1.751,2.874,1.751,4.564
			c0,0.145-0.004,0.292-0.014,0.439c2.646,0.998,4.404,3.527,4.404,6.38c0,0.544-0.065,1.084-0.193,1.611h3.806
			c3.099,0,5.619-2.52,5.619-5.618C108.596,40.524,106.076,38.003,102.977,38.003z"/>
		<path fill="#0D5683" d="M93.586,42.362l-0.316-0.082l0.057-0.321c0.057-0.317,0.085-0.642,0.085-0.969
			c0-2.748-1.995-5.061-4.681-5.48v0.001l-0.248-0.023c-0.19-0.02-0.382-0.029-0.573-0.029c-2.613,0-4.841,1.776-5.418,4.321
			l-0.067,0.296l-0.303-0.023c-0.117-0.008-0.237-0.013-0.356-0.013c-2.56,0-4.642,2.083-4.642,4.643
			c0,2.558,2.082,4.641,4.642,4.641H97.52c0.154-0.514,0.231-1.048,0.231-1.591C97.752,45.2,96.039,42.99,93.586,42.362z"/>
	</g>
	<path fill="#0D5683" d="M54.343,51.211l-5.324,3.76v26.616h1.096v-1.422h1.091v1.422h0.75v-1.422h1.091v1.422h0.75v-1.422h1.091
		v1.422h0.75v-1.422h1.091v1.422h0.75v-1.422h1.092v1.422h1.095V54.971L54.343,51.211z M51.207,79.27h-1.091V77.4h1.091V79.27z
		 M51.207,76.503h-1.091v-1.87h1.091V76.503z M51.207,73.738h-1.091v-1.87h1.091V73.738z M51.207,70.971h-1.091v-1.869h1.091V70.971
		z M51.207,68.206h-1.091v-1.87h1.091V68.206z M51.207,65.441h-1.091v-1.87h1.091V65.441z M51.207,62.674h-1.091v-1.869h1.091
		V62.674z M51.207,59.908h-1.091v-1.87h1.091V59.908z M51.207,57.143h-1.091v-1.87h1.091V57.143z M53.047,79.27h-1.091V77.4h1.091
		V79.27z M53.047,76.503h-1.091v-1.87h1.091V76.503z M53.047,73.738h-1.091v-1.87h1.091V73.738z M53.047,70.971h-1.091v-1.869h1.091
		V70.971z M53.047,68.206h-1.091v-1.87h1.091V68.206z M53.047,65.441h-1.091v-1.87h1.091V65.441z M53.047,62.674h-1.091v-1.869
		h1.091V62.674z M53.047,59.908h-1.091v-1.87h1.091V59.908z M53.047,57.143h-1.091v-1.87h1.091V57.143z M54.889,79.27h-1.091V77.4
		h1.091V79.27z M54.889,76.503h-1.091v-1.87h1.091V76.503z M54.889,73.738h-1.091v-1.87h1.091V73.738z M54.889,70.971h-1.091v-1.869
		h1.091V70.971z M54.889,68.206h-1.091v-1.87h1.091V68.206z M54.889,65.441h-1.091v-1.87h1.091V65.441z M54.889,62.674h-1.091
		v-1.869h1.091V62.674z M54.889,59.908h-1.091v-1.87h1.091V59.908z M54.889,57.143h-1.091v-1.87h1.091V57.143z M56.729,79.27h-1.091
		V77.4h1.091V79.27z M56.729,76.503h-1.091v-1.87h1.091V76.503z M56.729,73.738h-1.091v-1.87h1.091V73.738z M56.729,70.971h-1.091
		v-1.869h1.091V70.971z M56.729,68.206h-1.091v-1.87h1.091V68.206z M56.729,65.441h-1.091v-1.87h1.091V65.441z M56.729,62.674
		h-1.091v-1.869h1.091V62.674z M56.729,59.908h-1.091v-1.87h1.091V59.908z M56.729,57.143h-1.091v-1.87h1.091V57.143z M58.571,79.27
		h-1.092V77.4h1.092V79.27z M58.571,76.503h-1.092v-1.87h1.092V76.503z M58.571,73.738h-1.092v-1.87h1.092V73.738z M58.571,70.971
		h-1.092v-1.869h1.092V70.971z M58.571,68.206h-1.092v-1.87h1.092V68.206z M58.571,65.441h-1.092v-1.87h1.092V65.441z
		 M58.571,62.674h-1.092v-1.869h1.092V62.674z M58.571,59.908h-1.092v-1.87h1.092V59.908z M58.571,57.143h-1.092v-1.87h1.092V57.143
		z"/>
	<path fill="#0D5683" d="M20.5,57.141v24.654h7.438V57.141H20.5z M21.974,81.029h-0.786v-1.572h0.786V81.029z M21.974,78.704h-0.786
		v-1.573h0.786V78.704z M21.974,76.378h-0.786v-1.572h0.786V76.378z M21.974,74.053h-0.786V72.48h0.786V74.053z M21.974,71.726
		h-0.786v-1.572h0.786V71.726z M21.974,69.401h-0.786v-1.573h0.786V69.401z M21.974,67.075h-0.786v-1.573h0.786V67.075z
		 M21.974,64.749h-0.786v-1.573h0.786V64.749z M21.974,62.423h-0.786v-1.573h0.786V62.423z M21.974,60.097h-0.786v-1.572h0.786
		V60.097z M23.3,81.029h-0.786v-1.572H23.3V81.029z M23.3,78.704h-0.786v-1.573H23.3V78.704z M23.3,76.378h-0.786v-1.572H23.3
		V76.378z M23.3,74.053h-0.786V72.48H23.3V74.053z M23.3,71.726h-0.786v-1.572H23.3V71.726z M23.3,69.401h-0.786v-1.573H23.3V69.401
		z M23.3,67.075h-0.786v-1.573H23.3V67.075z M23.3,64.749h-0.786v-1.573H23.3V64.749z M23.3,62.423h-0.786v-1.573H23.3V62.423z
		 M23.3,60.097h-0.786v-1.572H23.3V60.097z M24.626,81.029H23.84v-1.572h0.786V81.029z M24.626,78.704H23.84v-1.573h0.786V78.704z
		 M24.626,76.378H23.84v-1.572h0.786V76.378z M24.626,74.053H23.84V72.48h0.786V74.053z M24.626,71.726H23.84v-1.572h0.786V71.726z
		 M24.626,69.401H23.84v-1.573h0.786V69.401z M24.626,67.075H23.84v-1.573h0.786V67.075z M24.626,64.749H23.84v-1.573h0.786V64.749z
		 M24.626,62.423H23.84v-1.573h0.786V62.423z M24.626,60.097H23.84v-1.572h0.786V60.097z M25.952,81.029h-0.786v-1.572h0.786V81.029
		z M25.952,78.704h-0.786v-1.573h0.786V78.704z M25.952,76.378h-0.786v-1.572h0.786V76.378z M25.952,74.053h-0.786V72.48h0.786
		V74.053z M25.952,71.726h-0.786v-1.572h0.786V71.726z M25.952,69.401h-0.786v-1.573h0.786V69.401z M25.952,67.075h-0.786v-1.573
		h0.786V67.075z M25.952,64.749h-0.786v-1.573h0.786V64.749z M25.952,62.423h-0.786v-1.573h0.786V62.423z M25.952,60.097h-0.786
		v-1.572h0.786V60.097z M27.277,81.029h-0.786v-1.572h0.786V81.029z M27.277,78.704h-0.786v-1.573h0.786V78.704z M27.277,76.378
		h-0.786v-1.572h0.786V76.378z M27.277,74.053h-0.786V72.48h0.786V74.053z M27.277,71.726h-0.786v-1.572h0.786V71.726z
		 M27.277,69.401h-0.786v-1.573h0.786V69.401z M27.277,67.075h-0.786v-1.573h0.786V67.075z M27.277,64.749h-0.786v-1.573h0.786
		V64.749z M27.277,62.423h-0.786v-1.573h0.786V62.423z M27.277,60.097h-0.786v-1.572h0.786V60.097z"/>
	<path fill="#0D5683" d="M33.319,49.801v-8.731c0-0.174-0.141-0.314-0.314-0.314c-0.173,0-0.313,0.139-0.313,0.314v8.731h-3.757
		v31.786h5.95V49.801H33.319z"/>
	<path fill="#0D5683" d="M45.454,42.284v-5.585c0-0.173-0.141-0.313-0.313-0.313c-0.173,0-0.314,0.14-0.314,0.313v5.585h-8.69
		v39.303h11.857V42.284H45.454z M43.574,44.49h1.252v2.507h-1.252V44.49z M38.485,80.369h-1.253v-2.507h1.253V80.369z M38.485,76.66
		h-1.253v-2.507h1.253V76.66z M38.485,72.952h-1.253v-2.507h1.253V72.952z M38.485,69.244h-1.253v-2.506h1.253V69.244z
		 M38.485,65.536h-1.253V63.03h1.253V65.536z M38.485,61.829h-1.253v-2.507h1.253V61.829z M38.485,58.121h-1.253v-2.507h1.253
		V58.121z M38.485,54.413h-1.253v-2.507h1.253V54.413z M38.485,50.705h-1.253v-2.507h1.253V50.705z M38.485,46.997h-1.253V44.49
		h1.253V46.997z M40.599,80.369h-1.252v-2.507h1.252V80.369z M40.599,76.66h-1.252v-2.507h1.252V76.66z M40.599,72.952h-1.252
		v-2.507h1.252V72.952z M40.599,69.244h-1.252v-2.506h1.252V69.244z M40.599,65.536h-1.252V63.03h1.252V65.536z M40.599,61.829
		h-1.252v-2.507h1.252V61.829z M40.599,58.121h-1.252v-2.507h1.252V58.121z M40.599,54.413h-1.252v-2.507h1.252V54.413z
		 M40.599,50.705h-1.252v-2.507h1.252V50.705z M40.599,46.997h-1.252V44.49h1.252V46.997z M42.713,80.369H41.46v-2.507h1.253V80.369
		z M42.713,76.66H41.46v-2.507h1.253V76.66z M42.713,72.952H41.46v-2.507h1.253V72.952z M42.713,69.244H41.46v-2.506h1.253V69.244z
		 M42.713,65.536H41.46V63.03h1.253V65.536z M42.713,61.829H41.46v-2.507h1.253V61.829z M42.713,58.121H41.46v-2.507h1.253V58.121z
		 M42.713,54.413H41.46v-2.507h1.253V54.413z M42.713,50.705H41.46v-2.507h1.253V50.705z M42.713,46.997H41.46V44.49h1.253V46.997z
		 M44.827,80.369h-1.252v-2.507h1.252V80.369z M44.827,76.66h-1.252v-2.507h1.252V76.66z M44.827,72.952h-1.252v-2.507h1.252V72.952
		z M44.827,69.244h-1.252v-2.506h1.252V69.244z M44.827,65.536h-1.252V63.03h1.252V65.536z M44.827,61.829h-1.252v-2.507h1.252
		V61.829z M44.827,58.121h-1.252v-2.507h1.252V58.121z M44.827,54.413h-1.252v-2.507h1.252V54.413z M44.827,50.705h-1.252v-2.507
		h1.252V50.705z M46.941,80.369h-1.252v-2.507h1.252V80.369z M46.941,76.66h-1.252v-2.507h1.252V76.66z M46.941,72.952h-1.252
		v-2.507h1.252V72.952z M46.941,69.244h-1.252v-2.506h1.252V69.244z M46.941,65.536h-1.252V63.03h1.252V65.536z M46.941,61.829
		h-1.252v-2.507h1.252V61.829z M46.941,58.121h-1.252v-2.507h1.252V58.121z M46.941,54.413h-1.252v-2.507h1.252V54.413z
		 M46.941,50.705h-1.252v-2.507h1.252V50.705z M46.941,46.997h-1.252V44.49h1.252V46.997z"/>
	<g>
		<g>
			<path fill="#0D5683" d="M141.348,141.011c-2.595-4.985-0.652-11.151,4.333-13.747c4.984-2.595,11.151-0.652,13.746,4.333
				c2.596,4.984,0.653,11.151-4.332,13.747C150.111,147.938,143.944,145.995,141.348,141.011z M158.774,131.936
				c-2.407-4.623-8.129-6.426-12.753-4.019c-4.624,2.408-6.427,8.129-4.02,12.753c2.408,4.625,8.13,6.428,12.754,4.02
				C159.379,142.282,161.182,136.561,158.774,131.936z"/>
		</g>
		<path fill="#0D5683" d="M158.034,132.322c-2.199-4.223-7.404-5.863-11.627-3.664c-3.458,1.801-5.182,5.617-4.488,9.259
			l8.469-1.613L158.034,132.322z"/>
		<path fill="#0D5683" d="M146.577,137.03l-1.826,5.795c0.041,0.035,0.081,0.071,0.121,0.104l1.869-5.932L146.577,137.03z
			 M146.119,137.117l-1.703,5.403c0.039,0.039,0.079,0.077,0.119,0.114l1.748-5.549L146.119,137.117z M145.662,137.204l-1.571,4.986
			c0.038,0.041,0.077,0.082,0.116,0.122l1.62-5.14L145.662,137.204z M145.204,137.29l-1.43,4.541
			c0.037,0.045,0.075,0.088,0.113,0.132l1.482-4.704L145.204,137.29z M147.034,136.941l-1.942,6.163
			c0.041,0.032,0.081,0.066,0.124,0.098l1.982-6.292L147.034,136.941z M147.491,136.855l-2.051,6.507
			c0.042,0.03,0.083,0.061,0.126,0.089l2.089-6.627L147.491,136.855z M148.405,136.681l-2.248,7.132
			c0.044,0.024,0.087,0.051,0.131,0.074l2.281-7.238L148.405,136.681z M148.862,136.594l-2.336,7.415
			c0.044,0.022,0.088,0.045,0.133,0.067l2.367-7.513L148.862,136.594z M147.948,136.768l-2.152,6.829
			c0.043,0.027,0.085,0.056,0.128,0.082l2.189-6.943L147.948,136.768z M142.004,137.9l-0.053,0.169
			c0.02,0.095,0.042,0.19,0.065,0.284l0.152-0.485L142.004,137.9z M142.461,137.813l-0.318,1.009
			c0.025,0.08,0.052,0.161,0.079,0.241l0.404-1.281L142.461,137.813z M149.32,136.506l-2.42,7.678
			c0.045,0.02,0.091,0.042,0.136,0.06l2.449-7.769L149.32,136.506z M150.388,136.303l-0.154,0.029l-2.568,8.148
			c0.047,0.016,0.094,0.033,0.14,0.048l2.589-8.217L150.388,136.303z M154.45,143.905l0.825-2.618l-0.117-0.119L154.265,144
			c0.035-0.017,0.07-0.033,0.104-0.05C154.396,143.935,154.423,143.92,154.45,143.905z M144.747,137.377l-1.281,4.066
			c0.036,0.048,0.073,0.095,0.111,0.142l1.335-4.238L144.747,137.377z M144.29,137.465l-1.119,3.552
			c0.034,0.052,0.07,0.104,0.106,0.156l1.178-3.74L144.29,137.465z M143.833,137.552l-0.945,2.997
			c0.033,0.058,0.066,0.116,0.1,0.173l1.009-3.203L143.833,137.552z M143.375,137.639l-0.756,2.4c0.03,0.064,0.062,0.127,0.095,0.19
			l0.825-2.621L143.375,137.639z M142.919,137.726l-0.549,1.741c0.028,0.071,0.057,0.143,0.087,0.214l0.625-1.987L142.919,137.726z
			 M154.507,140.505l-1.236,3.921c0.058-0.021,0.117-0.042,0.175-0.065l1.178-3.737L154.507,140.505z M149.777,136.419l-2.497,7.922
			c0.045,0.018,0.091,0.037,0.138,0.054l2.524-8.007L149.777,136.419z M153.857,139.841l-1.534,4.865
			c0.057-0.013,0.112-0.029,0.168-0.044l1.482-4.701L153.857,139.841z M153.532,139.509l-1.667,5.287
			c0.055-0.009,0.11-0.02,0.165-0.031l1.619-5.137L153.532,139.509z M156.101,142.758l0.149-0.476l-0.117-0.119l-0.244,0.775
			C155.96,142.881,156.03,142.82,156.101,142.758z M153.206,139.178l-1.792,5.685c0.053-0.007,0.107-0.013,0.161-0.021l1.747-5.545
			L153.206,139.178z M154.832,140.836l-1.071,3.397c0.06-0.026,0.12-0.049,0.179-0.077l1.009-3.201L154.832,140.836z
			 M155.522,143.227l0.402-1.275l-0.117-0.12l-0.485,1.539C155.39,143.322,155.458,143.275,155.522,143.227z M154.975,143.601
			l0.625-1.982l-0.117-0.119l-0.699,2.217C154.848,143.678,154.912,143.64,154.975,143.601z M154.181,140.172l-1.389,4.409
			c0.057-0.016,0.113-0.036,0.172-0.054l1.334-4.236L154.181,140.172z M152.881,138.846l-1.91,6.057
			c0.053-0.003,0.106-0.007,0.159-0.011l1.868-5.928L152.881,138.846z M151.254,137.188l-2.394,7.598
			c0.049,0.008,0.097,0.02,0.145,0.027l2.366-7.506L151.254,137.188z M151.58,137.519l-2.31,7.33
			c0.049,0.007,0.098,0.015,0.148,0.02l2.279-7.231L151.58,137.519z M150.604,136.524l-2.546,8.077
			c0.048,0.013,0.094,0.027,0.142,0.04l2.52-7.998L150.604,136.524z M150.929,136.856l-2.474,7.846
			c0.048,0.011,0.096,0.024,0.144,0.035l2.446-7.762L150.929,136.856z M152.555,138.515l-2.019,6.407
			c0.051-0.001,0.103-0.001,0.155-0.002l1.981-6.286L152.555,138.515z M152.231,138.182l-2.124,6.736
			c0.051,0.002,0.103,0.006,0.153,0.006l2.087-6.621L152.231,138.182z M151.905,137.85l-2.219,7.043
			c0.05,0.005,0.099,0.01,0.15,0.013l2.186-6.936L151.905,137.85z"/>
	</g>
	<path fill="#0D5683" d="M67.76,123.841h-4.297H51.575c-4.03,0-7.298,3.269-7.298,7.3v1.124v5.719c0,4.031,3.268,7.298,7.298,7.298
		h5.846l12.304,6.709l-2.148-6.709h0.182c4.029,0,7.297-3.267,7.297-7.298v-6.844C75.057,127.11,71.789,123.841,67.76,123.841z
		 M52.013,136.5c-0.941,0-1.705-0.764-1.705-1.706c0-0.941,0.764-1.705,1.705-1.705c0.942,0,1.705,0.764,1.705,1.705
		C53.718,135.737,52.955,136.5,52.013,136.5z M56.94,136.5c-0.941,0-1.705-0.764-1.705-1.706c0-0.941,0.764-1.705,1.705-1.705
		c0.942,0,1.705,0.764,1.705,1.705C58.646,135.737,57.883,136.5,56.94,136.5z M62.204,136.5c-0.941,0-1.705-0.764-1.705-1.706
		c0-0.941,0.764-1.705,1.705-1.705c0.942,0,1.705,0.764,1.705,1.705C63.909,135.737,63.146,136.5,62.204,136.5z M67.131,136.5
		c-0.942,0-1.705-0.764-1.705-1.706c0-0.941,0.763-1.705,1.705-1.705c0.942,0,1.706,0.764,1.706,1.705
		C68.837,135.737,68.073,136.5,67.131,136.5z"/>
	<g>
		<path fill="#0D5683" d="M144.115,165.428h-14.718c-0.259,0-0.47-0.21-0.47-0.47c0-0.26,0.211-0.469,0.47-0.469h14.718
			c3.713,0,6.733-3.021,6.733-6.733v-9.082c0-0.259,0.21-0.47,0.47-0.47c0.259,0,0.47,0.21,0.47,0.47v9.082
			C151.788,161.987,148.346,165.428,144.115,165.428z"/>
	</g>
	<g>
		<path fill="#0D5683" d="M152.153,89.644c-0.259,0-0.47-0.21-0.47-0.47v-9.723c0-3.712-3.021-6.733-6.733-6.733h-13.257
			c-0.26,0-0.47-0.21-0.47-0.47c0-0.26,0.21-0.47,0.47-0.47h13.257c4.231,0,7.672,3.442,7.672,7.672v9.723
			C152.622,89.433,152.412,89.644,152.153,89.644z"/>
	</g>
	<g>
		<path fill="#0D5683" d="M151.318,125.552c-0.26,0-0.47-0.21-0.47-0.47v-8.769c0-0.259,0.21-0.469,0.47-0.469
			c0.259,0,0.47,0.21,0.47,0.469v8.769C151.788,125.343,151.577,125.552,151.318,125.552z"/>
	</g>
	<g>
		<path fill="#0D5683" d="M83.2,160.983H65.408c-4.231,0-7.673-3.442-7.673-7.673v-5.472c0-0.259,0.21-0.469,0.47-0.469
			s0.47,0.21,0.47,0.469v5.472c0,3.713,3.021,6.733,6.733,6.733H83.2c0.26,0,0.47,0.21,0.47,0.47
			C83.67,160.773,83.46,160.983,83.2,160.983z"/>
	</g>
	<g>
		<path fill="#0D5683" d="M65.303,122.839c-0.259,0-0.47-0.211-0.47-0.47v-10.523c0-3.713-3.021-6.733-6.733-6.733h-3.862
			c-0.26,0-0.47-0.21-0.47-0.47c0-0.26,0.21-0.47,0.47-0.47H58.1c4.231,0,7.672,3.443,7.672,7.673v10.523
			C65.772,122.628,65.563,122.839,65.303,122.839z"/>
	</g>
	<g>
		<path fill="#0D5683" d="M37.327,93.959c-0.26,0-0.47-0.21-0.47-0.47c0-4.135,3.364-7.499,7.499-7.499h30.967
			c0.26,0,0.47,0.21,0.47,0.47s-0.21,0.47-0.47,0.47H44.357c-3.618,0-6.56,2.943-6.56,6.56
			C37.797,93.748,37.586,93.959,37.327,93.959z"/>
	</g>
	<g>
		<path fill="#0D5683" d="M65.303,120.53c-0.259,0-0.47-0.21-0.47-0.47v-5.134c0-2.198,1.788-3.984,3.985-3.984h13.187
			c0.259,0,0.47,0.21,0.47,0.47c0,0.26-0.21,0.47-0.47,0.47H68.818c-1.68,0-3.046,1.366-3.046,3.045v5.134
			C65.772,120.321,65.563,120.53,65.303,120.53z"/>
	</g>
	<g>
		<path fill="#0D5683" d="M164.027,140.307h-2.238c-0.259,0-0.47-0.21-0.47-0.47c0-0.26,0.21-0.47,0.47-0.47h2.238
			c3.713,0,6.733-3.02,6.733-6.733V69.449c0-0.259,0.211-0.47,0.47-0.47c0.26,0,0.47,0.21,0.47,0.47v63.185
			C171.699,136.865,168.257,140.307,164.027,140.307z"/>
	</g>
	<g>
		<path fill="#0D5683" d="M40.876,135.264H30.503c-4.231,0-7.673-3.442-7.673-7.672v-43.22c0-0.259,0.21-0.47,0.47-0.47
			s0.47,0.21,0.47,0.47v43.22c0,3.712,3.02,6.733,6.733,6.733h10.373c0.259,0,0.47,0.21,0.47,0.47
			C41.346,135.054,41.135,135.264,40.876,135.264z"/>
	</g>
	<g>
		<path fill="#0D5683" d="M89.605,65.216c-0.259,0-0.47-0.21-0.47-0.47V52.221c0-0.26,0.21-0.47,0.47-0.47
			c0.26,0,0.47,0.21,0.47,0.47v12.526C90.075,65.006,89.865,65.216,89.605,65.216z"/>
	</g>
	<g>
		<path fill="#0D5683" d="M129.397,43.38h-17.746c-0.259,0-0.47-0.21-0.47-0.469c0-0.259,0.211-0.47,0.47-0.47h17.746
			c0.259,0,0.47,0.21,0.47,0.47C129.866,43.17,129.656,43.38,129.397,43.38z"/>
	</g>
	<g>
		<path fill="#0D5683" d="M89.605,58.953h-28.27c-0.259,0-0.47-0.21-0.47-0.47c0-0.26,0.211-0.47,0.47-0.47h28.27
			c0.26,0,0.47,0.21,0.47,0.47C90.075,58.744,89.865,58.953,89.605,58.953z"/>
	</g>
	<g>
		<path fill="#0D5683" d="M115.2,138.904c-0.001,0-0.002,0-0.002,0c-0.26-0.001-0.469-0.213-0.467-0.473l0.209-40.824
			c0.001-0.259,0.211-0.467,0.47-0.467c0.001,0,0.001,0,0.002,0c0.259,0.001,0.468,0.213,0.467,0.473l-0.209,40.824
			C115.668,138.696,115.459,138.904,115.2,138.904z"/>
	</g>
	<g>
		<path fill="#0D5683" d="M40.876,37.867c-0.26,0-0.47-0.21-0.47-0.47v-10.46c0-4.231,3.442-7.673,7.673-7.673h39.25
			c4.231,0,7.672,3.442,7.672,7.673c0,0.259-0.21,0.47-0.47,0.47c-0.259,0-0.47-0.21-0.47-0.47c0-3.713-3.02-6.733-6.733-6.733
			h-39.25c-3.713,0-6.733,3.02-6.733,6.733v10.46C41.346,37.657,41.135,37.867,40.876,37.867z"/>
	</g>
	<path fill="#0D5683" d="M110.233,79.122c-1.126-0.016-2.184-0.694-2.628-1.805c-0.448-1.121-0.139-2.356,0.682-3.141
		c-0.421-0.541-0.904-1.038-1.445-1.479c-0.804,0.687-1.96,0.903-2.997,0.457c-1.038-0.445-1.678-1.429-1.736-2.486
		c-0.851-0.107-1.702-0.093-2.533,0.032c-0.139,0.986-0.786,1.872-1.777,2.268c-0.93,0.372-1.938,0.223-2.704-0.307
		c-0.511,0.41-0.982,0.877-1.402,1.396c0.636,0.8,0.824,1.914,0.393,2.919c-0.432,1.006-1.369,1.639-2.388,1.728
		c-0.1,0.765-0.104,1.531-0.016,2.282c0.97,0.15,1.836,0.793,2.227,1.771c0.39,0.973,0.208,2.032-0.384,2.809
		c0.458,0.604,0.992,1.157,1.597,1.641c0.793-0.588,1.868-0.75,2.841-0.333c0.973,0.417,1.596,1.308,1.718,2.288
		c0.863,0.117,1.728,0.112,2.571-0.008c0.229-0.84,0.834-1.565,1.703-1.914c0.856-0.341,1.779-0.242,2.516,0.19
		c0.645-0.473,1.233-1.031,1.743-1.668c-0.613-0.798-0.79-1.893-0.365-2.884c0.424-0.991,1.339-1.618,2.339-1.723
		C110.278,80.472,110.292,79.791,110.233,79.122z M104.302,81.375c-0.796,1.855-2.944,2.715-4.8,1.919s-2.715-2.945-1.919-4.8
		c0.796-1.855,2.944-2.715,4.8-1.919C104.238,77.37,105.097,79.519,104.302,81.375z"/>
	<path fill="#0D5683" d="M90.745,116.129c-0.027-0.356-0.151-0.68-0.343-0.952l1.124-1.444c0.471,0.235,1.009,0.349,1.573,0.307
		c0.607-0.046,1.159-0.269,1.61-0.614l1.683,1.756c-0.094,0.206-0.14,0.438-0.122,0.679c0.057,0.761,0.721,1.332,1.482,1.276
		c0.762-0.058,1.333-0.722,1.276-1.483c-0.032-0.415-0.243-0.772-0.553-1.004l0.685-1.591c0.175,0.006,0.355-0.032,0.522-0.119
		c0.526-0.271,0.733-0.917,0.462-1.444c-0.271-0.526-0.917-0.733-1.444-0.462c-0.526,0.271-0.733,0.917-0.462,1.444
		c0.094,0.181,0.232,0.324,0.394,0.423l-0.651,1.514c-0.139-0.034-0.285-0.048-0.436-0.036c-0.262,0.019-0.501,0.112-0.7,0.255
		l-1.63-1.7c0.473-0.58,0.734-1.334,0.674-2.139c-0.125-1.667-1.578-2.916-3.245-2.791c-1.667,0.126-2.916,1.578-2.791,3.244
		c0.061,0.818,0.443,1.535,1.013,2.039l-1.048,1.347c-0.325-0.194-0.712-0.295-1.118-0.265c-1.05,0.08-1.838,0.995-1.758,2.045
		c0.079,1.05,0.994,1.837,2.044,1.758C90.037,118.094,90.823,117.179,90.745,116.129z"/>
</g>
</svg>
