<?xml version="1.0" encoding="utf-8"?>
<!-- Generator: Adobe Illustrator 17.0.0, SVG Export Plug-In . SVG Version: 6.00 Build 0)  -->
<!DOCTYPE svg PUBLIC "-//W3C//DTD SVG 1.1//EN" "http://www.w3.org/Graphics/SVG/1.1/DTD/svg11.dtd">
<svg version="1.1" id="Layer_1" xmlns="http://www.w3.org/2000/svg" xmlns:xlink="http://www.w3.org/1999/xlink" x="0px" y="0px"
	 width="214.181px" height="106.25px" viewBox="0 0 214.181 106.25" enable-background="new 0 0 214.181 106.25"
	 xml:space="preserve">
<g>
	<path fill="#FFFFFF" d="M208.366,95.499c0.102-1.111,0.161-2.235,0.161-3.373c0-18.499-13.752-33.776-31.588-36.191
		c-4.769-14.629-18.513-25.203-34.733-25.203c-1.526,0-3.027,0.105-4.504,0.286c-10.109-14.703-27.042-24.35-46.234-24.35
		c-24.548,0-45.398,15.78-52.995,37.745C18.132,48.967,2.927,67.12,2.927,88.835c0,2.264,0.171,4.488,0.49,6.663H208.366z"/>
	<path fill="#C6C4C3" d="M74.756,50.53c4.226-12.218,13.895-21.89,26.106-26.125c-4.341-1.507-9.001-2.329-13.856-2.329
		c-18.505,0-34.223,11.896-39.95,28.453c-15.334,3.434-26.797,17.118-26.797,33.488c0,1.707,0.129,3.383,0.37,5.023h27.7
		c-0.241-1.64-0.37-3.316-0.37-5.023C47.959,67.648,59.422,53.964,74.756,50.53z"/>
</g>
</svg>
