<?xml version="1.0" encoding="utf-8"?>
<!-- Generator: Adobe Illustrator 17.0.0, SVG Export Plug-In . SVG Version: 6.00 Build 0)  -->
<!DOCTYPE svg PUBLIC "-//W3C//DTD SVG 1.1//EN" "http://www.w3.org/Graphics/SVG/1.1/DTD/svg11.dtd">
<svg version="1.1" id="Layer_1" xmlns="http://www.w3.org/2000/svg" xmlns:xlink="http://www.w3.org/1999/xlink" x="0px" y="0px"
	 width="300px" height="202.431px" viewBox="0 0 300 202.431" enable-background="new 0 0 300 202.431" xml:space="preserve">
<g>
	<circle fill="#FFFFFF" cx="151.766" cy="175.167" r="10.069"/>
	<circle fill="#FFFFFF" cx="141.077" cy="170.941" r="10.069"/>
	<path fill="#E0E1E0" d="M145.259,169.827l13.52,5.178c0,0-9.605,6.074-11.562,0.448c0,0-9.476,1.325-10.145-1.618
		C137.072,173.835,138.521,168.404,145.259,169.827z"/>
	<circle fill="#FFFFFF" cx="139.813" cy="64.413" r="13.971"/>
	<circle fill="#FFFFFF" cx="151.042" cy="75.219" r="13.971"/>
	<circle fill="#FFFFFF" cx="48.509" cy="133.321" r="13.971"/>
	<circle fill="#FFFFFF" cx="29.422" cy="126.949" r="13.971"/>
	<circle fill="#FFFFFF" cx="238.236" cy="67.891" r="10.069"/>
	<circle fill="#FFFFFF" cx="273.982" cy="103.121" r="12.238"/>
	<circle fill="#FFFFFF" cx="216.909" cy="170.269" r="12.238"/>
	<circle fill="#FFFFFF" cx="36.54" cy="31.975" r="10.069"/>
	<circle fill="#FFFFFF" cx="36.54" cy="42.044" r="10.069"/>
	<g>
		<g>
			<g>
				
					<path fill="#FFFFFF" stroke="#FFFFFF" stroke-width="23" stroke-linecap="round" stroke-linejoin="round" stroke-miterlimit="10" d="
					M116.866,89.053c-2.024,3.163-5.217,14.411-9.579,33.745c-7.454,3.061-11.503,2.3-12.15-2.28
					c-0.646-4.58,2.986-21.096,10.897-49.546c0.79-2.762-0.285-4.322-3.226-4.676c0.699-2.095,2.838-3.291,6.418-3.587
					c7.293-0.127,10.562,2.634,9.807,8.284l-2.217,10.742c2.831-1.476,5.415-2.279,7.752-2.409
					c11.771-0.418,17.063,4.685,15.876,15.309l-5.249,21.633c-0.14,2.426,0.867,3.245,3.023,2.459
					c-0.082,2.931-2.599,4.454-7.551,4.568c-6.689,0.649-9.763-2.099-9.22-8.248l4.803-22.552c0.239-3.874-0.674-6.034-2.74-6.48
					C121.444,85.567,119.23,86.581,116.866,89.053z"/>
				
					<path fill="#FFFFFF" stroke="#FFFFFF" stroke-width="23" stroke-linecap="round" stroke-linejoin="round" stroke-miterlimit="10" d="
					M172.432,77.76c9.393-0.325,14.811,2.469,16.251,8.385l-6.867,29.717c-0.076,2.073,0.963,2.714,3.119,1.928
					c-0.097,2.542-2.232,3.853-6.405,3.937c-6.689,0.649-9.985-0.294-9.888-2.836c-4.077,2.579-8.54,3.747-13.389,3.506
					c-6.98,0.194-10.893-3.577-11.74-11.312c-0.5-6.85,2.158-14.008,7.977-21.476C157.31,82.144,164.29,78.193,172.432,77.76z
					 M164.123,95.238c-4.396,7.939-5.588,14.172-3.577,18.699c4.766,2.119,7.95,0.199,9.554-5.758l6.97-24.042l-0.605-0.503
					l-0.526,0.02C172.456,83.438,168.518,87.3,164.123,95.238z"/>
				
					<path fill="#FFFFFF" stroke="#FFFFFF" stroke-width="23" stroke-linecap="round" stroke-linejoin="round" stroke-miterlimit="10" d="
					M188.707,169.172c-1.596,6.151-6.171,9.47-13.723,9.96c-4.092,0.159-6.069-0.994-5.931-3.458
					c2.903-0.621,4.745-1.98,5.521-4.079l22.033-88.744c-0.405-1.389-1.499-1.893-3.279-1.512c0.081-2.931,2.396-4.639,6.944-5.129
					c6.314-0.245,9.616,0.895,9.911,3.421c4.466-2.593,9.123-3.769,13.973-3.529c6.589-0.177,10.307,3.601,11.155,11.335
					c0.171,8.424-2.474,15.973-7.932,22.645c-5.46,6.673-12.267,10.03-20.423,10.074c-2.534,0.098-4.479-0.215-5.833-0.944
					L188.707,169.172z M217.717,85.192c-4.751-1.727-7.936,0.191-9.554,5.758l-5.572,22.348c3.892,1.722,8.102-1.68,12.631-10.21
					C219.75,94.56,220.581,88.594,217.717,85.192z"/>
				
					<path fill="#FFFFFF" stroke="#FFFFFF" stroke-width="23" stroke-linecap="round" stroke-linejoin="round" stroke-miterlimit="10" d="
					M253.784,96.496c-0.57,1.427-1.135,2.972-1.694,4.633c-0.918,7.53,1.163,11.372,6.244,11.526
					c4.112-0.628,7.141-2.053,9.085-4.276c0.544,7.005-4.188,10.76-14.2,11.266c-12.192,0.668-18.321-3.366-18.387-12.108
					c-0.488-7.513,1.87-14.886,7.074-22.114c5.202-7.228,11.86-10.941,19.972-11.139c7.415-0.014,11.414,2.933,11.995,8.843
					c0.028,5.776-2.169,9.492-6.593,11.146C262.567,95.55,258.069,96.292,253.784,96.496z M255.621,92.56
					c8.645,0.484,12.994-1.617,13.046-6.303c-0.49-2.557-1.778-3.58-3.866-3.07C261.367,84.257,258.308,87.383,255.621,92.56z"/>
			</g>
			
				<path fill="#FFFFFF" stroke="#FFFFFF" stroke-width="23" stroke-linecap="round" stroke-linejoin="round" stroke-miterlimit="10" d="
				M33.189,109.089c-3.2-0.582-5.899-1.89-8.098-3.922c-2.197-2.033-3.367-4.871-3.509-8.515c-0.114-2.935,0.284-5.6,1.19-7.991
				c0.908-2.388,1.656-3.595,2.244-3.618c0.118-0.005,0.455,0.366,1.014,1.108c0.559,0.745,1.448,1.62,2.662,2.633
				c0.182-1.42,0.828-2.915,1.944-4.489c1.114-1.571,2.443-3.008,3.982-4.304c1.538-1.295,3.262-2.361,5.171-3.202
				c1.91-0.838,3.804-1.295,5.685-1.368c2.469-0.096,4.658,0.233,6.571,0.981c1.91,0.751,3.565,1.687,4.964,2.808
				c1.395,1.123,2.503,2.374,3.324,3.755c0.818,1.381,1.364,2.595,1.642,3.644c1.539,6.296,0.59,11.425-2.845,15.382
				c-3.438,3.96-9.023,6.326-16.761,7.095c2.495,3.671,6.508,5.512,12.043,5.534c4.342-0.287,7.963-1.016,10.861-2.187
				c2.895-1.172,5.165-2.611,6.805-4.325c1.639-1.71,2.774-3.578,3.402-5.605c0.627-2.025,0.906-3.919,0.837-5.683
				c-0.137-3.525-0.96-6.552-2.471-9.084c-1.511-2.529-3.397-4.839-5.654-6.931c-2.261-2.089-4.663-4.172-7.216-6.252
				c-2.553-2.077-4.966-4.367-7.24-6.869c-2.277-2.499-4.183-5.427-5.726-8.782c-1.543-3.352-2.405-7.379-2.587-12.081
				c-0.137-3.526,0.435-6.96,1.718-10.307c1.283-3.343,3.197-6.33,5.742-8.962c2.546-2.629,5.612-4.748,9.198-6.36
				c3.585-1.61,7.671-2.505,12.254-2.683c3.994-0.155,7.894,0.253,11.7,1.222c3.802,0.972,7.218,2.545,10.247,4.722
				c3.025,2.178,5.488,4.937,7.383,8.275c1.895,3.342,2.932,7.301,3.11,11.885c0.114,2.938-0.308,5.722-1.264,8.346
				c-0.958,2.628-2.34,4.946-4.144,6.959c-1.806,2.012-3.891,3.655-6.252,4.921c-2.364,1.27-4.955,1.958-7.776,2.067
				c-3.41,0.132-6.25-0.256-8.52-1.169c-2.272-0.91-4.081-2.048-5.428-3.408c-1.35-1.36-2.375-2.76-3.076-4.206
				c-0.704-1.443-1.137-2.692-1.293-3.746c-0.301-1.635-0.296-3.048,0.011-4.237c0.308-1.187,0.751-1.852,1.335-1.994
				c1.786,0.521,3.89,0.939,6.316,1.256c2.423,0.319,4.81,0.431,7.164,0.339c1.526-0.059,2.666-0.25,3.42-0.574
				c0.752-0.321,1.015-0.362,0.79-0.119c-0.568,0.612-1.781,1.189-3.64,1.73c-1.863,0.544-3.436,0.958-4.719,1.242
				c0.592,0.096,1.093,0.134,1.505,0.118c0.411-0.016,0.909-0.035,1.5-0.058c1.763-0.068,3.274-0.508,4.539-1.324
				c1.261-0.813,2.312-1.825,3.148-3.035c0.836-1.208,1.462-2.498,1.88-3.869c0.415-1.368,0.605-2.584,0.564-3.642
				c-0.068-1.763-0.549-3.509-1.439-5.24c-0.891-1.731-2.099-3.273-3.622-4.627c-1.525-1.353-3.302-2.401-5.33-3.147
				c-2.031-0.743-4.162-1.074-6.394-0.987c-3.173,0.123-5.795,0.785-7.868,1.982c-2.071,1.2-3.725,2.616-4.953,4.253
				c-1.233,1.637-2.11,3.291-2.632,4.957c-0.526,1.67-0.765,3.031-0.724,4.089c0.155,3.997,1.086,7.522,2.794,10.573
				c1.707,3.054,3.819,5.914,6.336,8.581c2.514,2.669,5.205,5.243,8.068,7.719c2.86,2.479,5.52,5.054,7.98,7.723
				c2.456,2.671,4.513,5.623,6.17,8.852c1.654,3.232,2.502,6.907,2.546,11.023c0.096,5.53-1.01,10.367-3.319,14.517
				c-2.311,4.15-5.36,7.474-9.146,9.977c-3.788,2.5-7.99,4.164-12.606,4.992c-4.618,0.825-9.18,0.799-13.686-0.086
				c-4.508-0.884-8.726-2.662-12.653-5.334C38.423,117.36,35.368,113.71,33.189,109.089z M35.359,92.233
				c-0.715-0.206-1.337-0.329-1.869-0.369c-0.531-0.037-0.977-0.165-1.338-0.389c1.681,0.878,3.151,1.616,4.411,2.212
				c1.259,0.6,3.062,0.852,5.413,0.761c1.174-0.046,2.399-0.297,3.678-0.761c1.276-0.46,2.369-1.063,3.285-1.804
				c0.912-0.742,1.553-1.619,1.928-2.635c0.372-1.013,0.243-2.04-0.384-3.075c-0.127-0.229-0.677-0.738-1.647-1.525
				c-0.975-0.784-2.578-1.135-4.808-1.049c-1.529,0.059-3.151,0.682-4.871,1.866C37.438,86.652,36.17,88.908,35.359,92.233z"/>
		</g>
		<g>
			<path fill="#FFFFFF" stroke="#FFFFFF" stroke-width="23" stroke-miterlimit="10" d="M89.478,137.707
				c-0.461-0.166-0.942-0.282-1.444-0.344c-0.501-0.063-0.963-0.136-1.38-0.22c-0.461-0.084-0.921-0.146-1.381-0.188h-1.067
				c-0.712,0-1.444,0.063-2.197,0.188c-0.711,0.168-1.381,0.419-2.007,0.753c-0.628,0.335-0.942,0.774-0.942,1.318
				c0,0.502,0.219,0.89,0.659,1.162c0.439,0.272,1.024,0.492,1.757,0.658c0.732,0.168,1.568,0.325,2.51,0.471
				c0.942,0.148,1.903,0.345,2.887,0.596c0.982,0.252,1.955,0.576,2.918,0.973c0.962,0.397,1.82,0.952,2.573,1.663
				c0.962,0.838,1.641,1.695,2.039,2.573c0.397,0.878,0.596,2.134,0.596,3.765c0,3.514-1.359,6.171-4.079,7.97
				c-2.72,1.799-6.526,2.698-11.421,2.698c-3.137,0-5.867-0.198-8.19-0.596c-2.321-0.397-4.278-1.035-5.867-1.914
				c-0.669-0.377-1.297-0.795-1.882-1.255c-0.502-0.377-0.963-0.805-1.381-1.287c-0.419-0.48-0.669-0.972-0.753-1.475
				c0-0.334,0.041-0.69,0.125-1.067c0.084-0.376,0.376-0.753,0.878-1.129c0.418-0.292,0.962-0.439,1.631-0.439
				c0.628,0,1.15,0.085,1.569,0.251c0.376,0.125,0.69,0.23,0.942,0.314c0.251,0.085,0.46,0.168,0.627,0.251
				c0.167,0.085,0.335,0.125,0.502,0.125l1.255,0.252c0.376,0.085,0.794,0.147,1.255,0.188c0.46,0.042,0.919,0.062,1.38,0.062
				c0.502,0,1.025-0.041,1.569-0.125c0.543-0.084,1.108-0.229,1.695-0.439c0.669-0.209,1.254-0.523,1.757-0.942
				c0.502-0.418,0.816-0.982,0.942-1.695v-0.188c0-0.795-0.408-1.328-1.224-1.601c-0.816-0.271-1.831-0.501-3.044-0.69
				c-1.214-0.188-2.541-0.439-3.984-0.753c-1.444-0.314-2.773-0.93-3.985-1.851c-0.963-0.711-1.631-1.652-2.008-2.824
				c-0.376-1.171-0.565-2.322-0.565-3.451c0-1.715,0.408-3.189,1.224-4.424c0.816-1.233,1.934-2.238,3.358-3.012
				c1.422-0.773,3.116-1.349,5.083-1.726c1.966-0.376,4.099-0.565,6.401-0.565c1.966,0,3.702,0.116,5.208,0.345
				c1.506,0.23,3.096,0.638,4.769,1.224c0.962,0.335,1.767,0.711,2.416,1.129c0.648,0.419,1.139,0.901,1.475,1.444
				c0.209,0.376,0.314,0.815,0.314,1.318s-0.105,1.004-0.314,1.506c-0.126,0.376-0.409,0.669-0.848,0.878
				c-0.439,0.21-0.89,0.314-1.349,0.314C90.147,137.895,89.813,137.832,89.478,137.707z"/>
			<path fill="#FFFFFF" stroke="#FFFFFF" stroke-width="23" stroke-miterlimit="10" d="M142.002,139.652v13.681
				c0,0.292-0.063,0.878-0.188,1.757s-0.502,1.779-1.13,2.698c-0.627,0.921-1.579,1.736-2.855,2.448
				c-1.277,0.712-3.044,1.067-5.303,1.067c-1.924,0-3.441-0.334-4.549-1.004c-1.11-0.669-1.925-1.444-2.448-2.322
				c-0.524-0.878-0.848-1.735-0.973-2.573c-0.125-0.837-0.188-1.422-0.188-1.757v-8.66c0-0.251-0.032-0.606-0.095-1.067
				c-0.062-0.46-0.21-0.93-0.439-1.411c-0.23-0.481-0.565-0.9-1.004-1.255c-0.439-0.355-1.058-0.534-1.851-0.534
				c-0.838,0-1.506,0.168-2.008,0.502c-0.501,0.335-0.878,0.721-1.129,1.161c-0.252,0.439-0.408,0.901-0.471,1.381
				c-0.063,0.482-0.094,0.848-0.094,1.098v8.534c0,1.925-0.44,3.421-1.319,4.488s-1.882,1.851-3.012,2.353
				c-1.129,0.502-2.196,0.806-3.201,0.91c-1.004,0.105-1.631,0.157-1.882,0.157h-0.063c-2.259,0-4.027-0.324-5.302-0.973
				c-1.277-0.648-2.218-1.38-2.825-2.196c-0.606-0.816-0.983-1.621-1.129-2.416c-0.148-0.794-0.22-1.339-0.22-1.631v-28.553
				c0-0.418,0.072-1.056,0.22-1.914c0.146-0.857,0.523-1.715,1.129-2.573c0.606-0.857,1.527-1.61,2.761-2.259
				c1.233-0.648,2.939-0.973,5.114-0.973c2.343,0,4.163,0.367,5.46,1.098c1.296,0.733,2.259,1.579,2.887,2.541
				c0.628,0.963,1.014,1.883,1.161,2.761c0.146,0.878,0.22,1.486,0.22,1.82v8.409c0.836-0.502,1.735-1.004,2.698-1.506
				c0.836-0.46,1.788-0.93,2.855-1.412c1.067-0.48,2.206-0.93,3.42-1.349c0.418-0.084,0.857-0.188,1.318-0.314
				c0.92-0.209,1.967-0.314,3.138-0.314c0.919,0,1.945,0.063,3.074,0.188c1.13,0.125,2.259,0.482,3.389,1.067
				c0.878,0.461,1.672,1.088,2.384,1.883c0.585,0.711,1.139,1.621,1.663,2.73C141.741,136.525,142.002,137.937,142.002,139.652z"/>
			<path fill="#FFFFFF" stroke="#FFFFFF" stroke-width="23" stroke-miterlimit="10" d="M164.655,154.211v0.314
				c0,0.376-0.073,0.963-0.219,1.757c-0.148,0.796-0.524,1.601-1.13,2.416c-0.606,0.816-1.527,1.527-2.761,2.134
				c-1.235,0.607-2.961,0.91-5.177,0.91c-2.259,0-4.038-0.292-5.334-0.878c-1.297-0.586-2.259-1.276-2.887-2.071
				c-0.627-0.795-1.015-1.601-1.161-2.416c-0.147-0.816-0.219-1.433-0.219-1.851v-16.693c0-1.757,0.439-3.126,1.318-4.11
				c0.878-0.982,1.882-1.715,3.012-2.197c1.129-0.48,2.206-0.773,3.231-0.878c1.025-0.104,1.663-0.157,1.915-0.157h0.125
				c2.175,0,3.879,0.314,5.114,0.942c1.233,0.628,2.165,1.339,2.792,2.134c0.628,0.795,1.014,1.568,1.162,2.321
				c0.146,0.753,0.219,1.255,0.219,1.506V154.211z M162.396,122.96c0,0.796-0.188,1.549-0.565,2.259
				c-0.376,0.712-0.878,1.329-1.506,1.851c-0.628,0.524-1.371,0.931-2.228,1.224c-0.858,0.292-1.768,0.439-2.73,0.439
				c-0.963,0-1.873-0.147-2.73-0.439c-0.858-0.292-1.611-0.7-2.259-1.224c-0.649-0.523-1.161-1.139-1.538-1.851
				c-0.376-0.71-0.565-1.463-0.565-2.259c0-0.753,0.188-1.474,0.565-2.165c0.377-0.69,0.889-1.296,1.538-1.819
				c0.648-0.523,1.401-0.942,2.259-1.255c0.857-0.314,1.767-0.471,2.73-0.471c0.962,0,1.872,0.157,2.73,0.471
				c0.857,0.314,1.6,0.733,2.228,1.255c0.628,0.523,1.13,1.129,1.506,1.819C162.208,121.485,162.396,122.207,162.396,122.96z"/>
			<path fill="#FFFFFF" stroke="#FFFFFF" stroke-width="23" stroke-miterlimit="10" d="M190.948,133.879h5.021
				c0.167,0,0.429,0.031,0.785,0.094c0.355,0.063,0.721,0.21,1.098,0.439c0.376,0.23,0.7,0.576,0.972,1.035
				c0.272,0.461,0.409,1.11,0.409,1.945v0.126c0,0.167-0.032,0.449-0.095,0.847c-0.062,0.398-0.199,0.806-0.408,1.224
				c-0.21,0.419-0.544,0.785-1.004,1.098c-0.461,0.313-1.11,0.47-1.946,0.47h-4.832v13.932c0,1.631-0.439,2.887-1.318,3.765
				s-1.873,1.538-2.981,1.977c-1.109,0.439-2.176,0.701-3.201,0.785c-1.025,0.084-1.684,0.125-1.977,0.125h-0.125
				c-2.344,0-4.141-0.366-5.397-1.098c-1.255-0.731-2.176-1.538-2.761-2.416c-0.711-1.045-1.109-2.216-1.192-3.514v-13.556
				c-0.878,0-1.569-0.125-2.071-0.376c-0.502-0.251-0.878-0.554-1.13-0.91c-0.251-0.355-0.408-0.721-0.471-1.098
				c-0.062-0.376-0.094-0.69-0.094-0.942v-0.439c0-0.836,0.146-1.484,0.439-1.945c0.292-0.46,0.648-0.805,1.067-1.035
				c0.418-0.229,0.825-0.376,1.224-0.439c0.397-0.063,0.68-0.094,0.847-0.094h0.188v-0.502c0-2.887,0.355-5.303,1.067-7.248
				c0.711-1.945,1.767-3.514,3.169-4.707c1.401-1.192,3.127-2.039,5.177-2.541c2.049-0.502,4.413-0.753,7.091-0.753
				c0.292,0,0.742,0.032,1.349,0.094c0.605,0.063,1.244,0.148,1.914,0.252c0.669,0.105,1.328,0.241,1.977,0.408
				c0.648,0.168,1.139,0.356,1.475,0.565c0.795,0.293,1.506,0.691,2.134,1.192c0.543,0.461,1.035,1.026,1.475,1.695
				c0.439,0.669,0.659,1.506,0.659,2.511c-0.043,0.711-0.168,1.38-0.377,2.007c-0.21,0.544-0.501,1.067-0.878,1.569
				c-0.376,0.502-0.942,0.9-1.695,1.192c-0.335,0.085-0.586,0.125-0.753,0.125c-0.335,0-0.669-0.032-1.004-0.094
				c-0.335-0.063-0.649-0.136-0.942-0.22c-0.711,0-1.266,0.105-1.663,0.314c-0.397,0.21-0.69,0.502-0.878,0.878
				c-0.188,0.377-0.293,0.816-0.314,1.319c-0.021,0.501-0.032,1.046-0.032,1.631V133.879z"/>
			<path fill="#FFFFFF" stroke="#FFFFFF" stroke-width="23" stroke-miterlimit="10" d="M200.613,133.941
				c0-0.292,0.115-0.585,0.345-0.878c0.229-0.292,0.512-0.565,0.847-0.815c0.377-0.292,0.773-0.606,1.192-0.942
				c1.631-1.214,3.398-2.552,5.303-4.017c1.903-1.463,3.671-2.824,5.303-4.079l5.71-4.392c0.251-0.252,0.523-0.461,0.816-0.628
				c0.585-0.377,1.17-0.565,1.757-0.565c0.502,0,0.942,0.241,1.318,0.722c0.377,0.481,0.565,1.434,0.565,2.855v6.213h3.766
				c0.208,0,0.533,0.031,0.972,0.094c0.439,0.063,0.889,0.219,1.349,0.471c0.46,0.251,0.857,0.638,1.192,1.161
				c0.334,0.524,0.502,1.245,0.502,2.165c0,0.963-0.168,1.725-0.502,2.291c-0.335,0.565-0.733,0.983-1.192,1.254
				c-0.461,0.273-0.91,0.439-1.349,0.502c-0.439,0.063-0.764,0.094-0.972,0.094h-3.766v10.983c0,0.501,0.01,0.983,0.032,1.443
				c0.02,0.461,0.115,0.869,0.282,1.224c0.167,0.356,0.418,0.649,0.753,0.878c0.335,0.23,0.816,0.345,1.444,0.345h2.321
				c0.126-0.042,0.272-0.063,0.44-0.063c0.166,0,0.292,0.021,0.376,0.063c0.669,0.167,1.202,0.439,1.6,0.815
				c0.397,0.377,0.691,0.796,0.879,1.255c0.188,0.461,0.303,0.9,0.344,1.318c0.042,0.419,0.063,0.733,0.063,0.942v0.314
				c0,1.046-0.21,1.914-0.628,2.605c-0.419,0.69-0.9,1.266-1.443,1.725c-0.628,0.502-1.319,0.901-2.072,1.192
				c-0.376,0.168-0.889,0.335-1.537,0.502c-0.65,0.168-1.308,0.314-1.977,0.439c-0.67,0.125-1.308,0.22-1.915,0.282
				c-0.606,0.063-1.035,0.095-1.286,0.095c-5.356,0-9.424-1.202-12.205-3.608c-2.783-2.406-4.174-6.328-4.174-11.766v-10.983h-1.254
				c-0.963,0-1.736-0.083-2.322-0.251C200.905,135.03,200.613,134.612,200.613,133.941z"/>
		</g>
	</g>
	<g>
		<g>
			
				<path fill="#71AC43" stroke="#4A833D" stroke-width="10" stroke-linecap="round" stroke-linejoin="round" stroke-miterlimit="10" d="
				M116.975,88.58c-2.024,3.163-5.217,14.411-9.579,33.745c-7.454,3.061-11.503,2.3-12.15-2.28
				c-0.646-4.58,2.986-21.096,10.897-49.546c0.79-2.762-0.285-4.322-3.226-4.676c0.699-2.095,2.838-3.291,6.418-3.587
				c7.293-0.127,10.562,2.634,9.807,8.284l-2.217,10.742c2.831-1.476,5.415-2.279,7.752-2.409
				c11.771-0.418,17.063,4.685,15.876,15.309l-5.249,21.633c-0.14,2.426,0.867,3.245,3.023,2.459
				c-0.082,2.931-2.599,4.454-7.551,4.568c-6.689,0.649-9.763-2.099-9.22-8.248l4.803-22.552c0.239-3.874-0.674-6.034-2.74-6.48
				C121.552,85.094,119.338,86.108,116.975,88.58z"/>
			
				<path fill="#71AC43" stroke="#4A833D" stroke-width="10" stroke-linecap="round" stroke-linejoin="round" stroke-miterlimit="10" d="
				M172.54,77.287c9.393-0.325,14.811,2.469,16.251,8.385l-6.867,29.717c-0.076,2.073,0.963,2.714,3.119,1.928
				c-0.097,2.542-2.232,3.853-6.405,3.937c-6.689,0.649-9.985-0.294-9.888-2.836c-4.077,2.579-8.54,3.747-13.389,3.506
				c-6.98,0.194-10.893-3.577-11.74-11.312c-0.5-6.85,2.158-14.008,7.977-21.476C157.418,81.672,164.398,77.721,172.54,77.287z
				 M164.231,94.765c-4.396,7.939-5.588,14.172-3.577,18.699c4.766,2.119,7.95,0.199,9.554-5.758l6.97-24.042l-0.605-0.503
				l-0.526,0.02C172.564,82.965,168.626,86.828,164.231,94.765z"/>
			
				<path fill="#71AC43" stroke="#4A833D" stroke-width="10" stroke-linecap="round" stroke-linejoin="round" stroke-miterlimit="10" d="
				M188.815,168.699c-1.596,6.151-6.171,9.47-13.723,9.96c-4.092,0.159-6.069-0.994-5.931-3.458c2.903-0.621,4.745-1.98,5.521-4.079
				l22.033-88.744c-0.405-1.389-1.499-1.893-3.279-1.512c0.081-2.931,2.396-4.639,6.944-5.129c6.314-0.245,9.616,0.895,9.911,3.421
				c4.466-2.593,9.123-3.769,13.973-3.529c6.589-0.177,10.307,3.601,11.155,11.335c0.171,8.424-2.474,15.973-7.932,22.645
				c-5.46,6.673-12.267,10.03-20.423,10.074c-2.534,0.098-4.479-0.215-5.833-0.944L188.815,168.699z M217.825,84.72
				c-4.751-1.727-7.936,0.191-9.554,5.758l-5.572,22.348c3.892,1.722,8.102-1.68,12.631-10.21
				C219.858,94.088,220.689,88.121,217.825,84.72z"/>
			
				<path fill="#71AC43" stroke="#4A833D" stroke-width="10" stroke-linecap="round" stroke-linejoin="round" stroke-miterlimit="10" d="
				M253.892,96.023c-0.57,1.427-1.135,2.972-1.694,4.633c-0.918,7.53,1.163,11.372,6.244,11.526
				c4.112-0.628,7.141-2.053,9.085-4.276c0.544,7.005-4.188,10.76-14.2,11.266c-12.192,0.668-18.321-3.366-18.387-12.108
				c-0.488-7.513,1.87-14.886,7.074-22.114c5.202-7.228,11.86-10.941,19.972-11.139c7.415-0.014,11.414,2.933,11.995,8.843
				c0.028,5.776-2.169,9.492-6.593,11.146C262.675,95.078,258.177,95.819,253.892,96.023z M255.729,92.088
				c8.645,0.484,12.994-1.617,13.046-6.303c-0.49-2.557-1.779-3.58-3.866-3.07C261.475,83.785,258.416,86.91,255.729,92.088z"/>
		</g>
		
			<path fill="#71AC43" stroke="#4A833D" stroke-width="10" stroke-linecap="round" stroke-linejoin="round" stroke-miterlimit="10" d="
			M33.297,108.616c-3.2-0.582-5.899-1.89-8.098-3.922c-2.197-2.033-3.367-4.871-3.509-8.515c-0.114-2.935,0.284-5.6,1.19-7.991
			c0.908-2.388,1.656-3.595,2.244-3.618c0.118-0.005,0.455,0.366,1.014,1.108c0.559,0.745,1.448,1.62,2.662,2.633
			c0.182-1.42,0.828-2.915,1.944-4.489c1.114-1.571,2.443-3.008,3.982-4.304c1.538-1.295,3.262-2.361,5.171-3.202
			c1.91-0.838,3.804-1.295,5.685-1.368c2.469-0.096,4.658,0.233,6.571,0.981c1.91,0.751,3.565,1.687,4.964,2.808
			c1.395,1.123,2.503,2.374,3.324,3.755c0.818,1.381,1.364,2.595,1.642,3.644c1.539,6.296,0.59,11.425-2.845,15.382
			c-3.438,3.96-9.023,6.326-16.761,7.095c2.495,3.671,6.508,5.512,12.043,5.534c4.342-0.287,7.963-1.016,10.861-2.187
			c2.895-1.172,5.165-2.611,6.805-4.325c1.639-1.71,2.774-3.578,3.402-5.605c0.627-2.025,0.906-3.919,0.837-5.683
			c-0.137-3.525-0.96-6.552-2.471-9.084c-1.511-2.529-3.397-4.839-5.654-6.931c-2.261-2.089-4.663-4.172-7.216-6.252
			c-2.553-2.077-4.966-4.367-7.24-6.869c-2.277-2.499-4.183-5.427-5.726-8.782c-1.543-3.352-2.405-7.379-2.587-12.081
			c-0.137-3.526,0.435-6.96,1.718-10.307c1.283-3.343,3.197-6.33,5.742-8.962c2.546-2.629,5.612-4.748,9.198-6.36
			c3.585-1.61,7.671-2.505,12.254-2.683c3.994-0.155,7.894,0.253,11.7,1.222c3.802,0.972,7.218,2.545,10.247,4.722
			c3.025,2.178,5.488,4.937,7.383,8.275c1.895,3.342,2.932,7.301,3.11,11.885c0.114,2.938-0.308,5.722-1.264,8.346
			c-0.958,2.628-2.34,4.946-4.144,6.959c-1.806,2.012-3.891,3.655-6.252,4.921c-2.364,1.27-4.955,1.958-7.776,2.067
			c-3.41,0.132-6.25-0.256-8.52-1.169c-2.272-0.91-4.081-2.048-5.428-3.408c-1.35-1.36-2.375-2.76-3.076-4.206
			c-0.704-1.443-1.137-2.692-1.293-3.746c-0.301-1.635-0.296-3.048,0.011-4.237c0.308-1.187,0.751-1.852,1.335-1.994
			c1.786,0.521,3.89,0.939,6.316,1.256c2.423,0.319,4.81,0.431,7.164,0.339c1.526-0.059,2.666-0.25,3.42-0.574
			c0.752-0.321,1.015-0.362,0.79-0.119c-0.568,0.612-1.781,1.189-3.64,1.73c-1.863,0.544-3.436,0.958-4.719,1.242
			c0.592,0.096,1.093,0.134,1.505,0.118c0.411-0.016,0.909-0.035,1.5-0.058c1.763-0.068,3.274-0.508,4.539-1.324
			c1.261-0.813,2.312-1.825,3.148-3.035c0.836-1.208,1.462-2.498,1.88-3.869c0.415-1.368,0.605-2.584,0.564-3.642
			c-0.068-1.763-0.549-3.509-1.439-5.24c-0.891-1.731-2.099-3.273-3.622-4.627c-1.525-1.353-3.302-2.401-5.33-3.147
			c-2.031-0.743-4.162-1.074-6.394-0.987c-3.173,0.123-5.795,0.785-7.868,1.982c-2.071,1.2-3.725,2.616-4.953,4.253
			c-1.233,1.637-2.11,3.291-2.632,4.957c-0.526,1.67-0.765,3.031-0.724,4.089c0.155,3.997,1.086,7.522,2.794,10.573
			c1.707,3.054,3.819,5.914,6.336,8.581c2.514,2.669,5.205,5.243,8.068,7.719c2.86,2.479,5.52,5.054,7.98,7.723
			c2.456,2.671,4.513,5.623,6.17,8.852c1.654,3.232,2.502,6.907,2.546,11.023c0.096,5.53-1.01,10.367-3.319,14.517
			c-2.311,4.15-5.36,7.474-9.146,9.977c-3.788,2.5-7.99,4.164-12.606,4.992c-4.618,0.825-9.18,0.799-13.686-0.086
			c-4.508-0.884-8.726-2.662-12.653-5.334C38.531,116.887,35.476,113.238,33.297,108.616z M35.467,91.76
			c-0.715-0.206-1.337-0.329-1.869-0.369c-0.531-0.037-0.977-0.165-1.338-0.389c1.681,0.878,3.151,1.616,4.411,2.212
			c1.259,0.6,3.062,0.852,5.413,0.761c1.174-0.046,2.399-0.297,3.678-0.761c1.276-0.46,2.369-1.063,3.285-1.804
			c0.912-0.742,1.553-1.619,1.928-2.635c0.372-1.013,0.243-2.04-0.384-3.075c-0.127-0.229-0.677-0.738-1.647-1.525
			c-0.975-0.784-2.578-1.135-4.808-1.049c-1.529,0.059-3.151,0.682-4.871,1.866C37.546,86.179,36.278,88.435,35.467,91.76z"/>
	</g>
	<path fill="#A9D164" d="M54.899,116.283c-3.334-0.707-6.457-2.121-9.366-4.24c-2.911-2.119-5.177-5.009-6.797-8.665
		c-2.367-0.466-4.365-1.505-5.995-3.115c-1.628-1.611-2.499-3.855-2.611-6.735c-0.09-2.32,0.199-4.424,0.864-6.311
		c0.667-1.885,1.218-2.837,1.652-2.854c0.088-0.003,0.337,0.29,0.752,0.878c0.415,0.59,1.074,1.283,1.974,2.086
		c0.132-1.121,0.606-2.302,1.428-3.543c0.821-1.239,1.8-2.372,2.936-3.393c1.134-1.02,2.407-1.859,3.817-2.52
		c0.703-0.328,1.404-0.582,2.102-0.76c-0.778-0.119-1.6-0.166-2.472-0.132c-1.391,0.054-2.79,0.411-4.2,1.07
		c-1.41,0.661-2.683,1.5-3.817,2.52c-1.136,1.021-2.115,2.153-2.936,3.393c-0.822,1.242-1.296,2.422-1.428,3.543
		c-0.9-0.802-1.559-1.496-1.974-2.086c-0.415-0.588-0.664-0.881-0.752-0.878c-0.434,0.017-0.985,0.969-1.652,2.854
		c-0.665,1.888-0.954,3.992-0.864,6.311c0.112,2.88,0.983,5.124,2.611,6.735c1.629,1.61,3.627,2.649,5.995,3.115
		c1.62,3.656,3.886,6.546,6.797,8.665c2.909,2.119,6.032,3.532,9.366,4.24c2.821,0.599,5.672,0.683,8.549,0.314
		C57.546,116.706,56.219,116.563,54.899,116.283z"/>
	<path fill="#E0E1E0" d="M211.24,169.072c0,0,5.615,2.542,11.761,1.869C229.147,170.269,213.384,184.607,211.24,169.072z"/>
	<circle fill="#FFFFFF" cx="96.019" cy="165.098" r="10.069"/>
	<path opacity="0.5" fill="#4393D0" d="M265.217,167.623c0,0-60.624,64.472-150.681-16.193c0,0,91.692,47.797,124.578-11.048
		L265.217,167.623z"/>
	<g>
		<path fill="#7FC342" d="M116.975,85.577c-2.024,3.163-5.217,14.411-9.579,33.745c-7.454,3.061-11.503,2.3-12.15-2.28
			c-0.646-4.58,2.986-21.096,10.897-49.546c0.79-2.762-0.285-4.322-3.226-4.676c0.699-2.095,2.838-3.291,6.418-3.587
			c7.293-0.127,10.562,2.634,9.807,8.284l-2.217,10.742c2.831-1.476,5.415-2.279,7.752-2.409
			c11.771-0.418,17.063,4.685,15.876,15.309l-5.249,21.633c-0.14,2.426,0.867,3.245,3.023,2.459
			c-0.082,2.931-2.599,4.454-7.551,4.568c-6.689,0.649-9.763-2.099-9.22-8.248l4.803-22.552c0.239-3.874-0.674-6.034-2.74-6.48
			C121.552,82.092,119.338,83.106,116.975,85.577z"/>
		<path fill="#7FC342" d="M172.54,74.285c9.393-0.325,14.811,2.469,16.251,8.385l-6.867,29.717
			c-0.076,2.073,0.963,2.714,3.119,1.928c-0.097,2.542-2.232,3.853-6.405,3.937c-6.689,0.649-9.985-0.294-9.888-2.836
			c-4.077,2.579-8.54,3.747-13.389,3.506c-6.98,0.194-10.893-3.577-11.74-11.312c-0.5-6.85,2.158-14.008,7.977-21.476
			C157.418,78.669,164.398,74.718,172.54,74.285z M164.231,91.762c-4.396,7.939-5.588,14.172-3.577,18.699
			c4.766,2.119,7.95,0.199,9.554-5.758l6.97-24.042l-0.605-0.503l-0.526,0.02C172.564,79.963,168.626,83.825,164.231,91.762z"/>
		<path fill="#7FC342" d="M188.815,165.697c-1.597,6.151-6.171,9.47-13.723,9.96c-4.092,0.159-6.069-0.994-5.931-3.458
			c2.903-0.621,4.745-1.98,5.521-4.079l22.033-88.744c-0.405-1.389-1.499-1.893-3.279-1.512c0.081-2.931,2.396-4.639,6.944-5.129
			c6.314-0.245,9.616,0.895,9.911,3.421c4.466-2.593,9.123-3.769,13.973-3.529c6.589-0.177,10.307,3.601,11.155,11.335
			c0.171,8.424-2.474,15.973-7.932,22.645c-5.46,6.673-12.267,10.03-20.423,10.074c-2.534,0.098-4.479-0.215-5.833-0.944
			L188.815,165.697z M217.825,81.717c-4.751-1.727-7.936,0.191-9.554,5.758l-5.572,22.348c3.892,1.722,8.102-1.68,12.631-10.21
			C219.858,91.085,220.689,85.119,217.825,81.717z"/>
		<path fill="#7FC342" d="M253.892,93.021c-0.57,1.427-1.135,2.972-1.694,4.633c-0.918,7.53,1.163,11.372,6.244,11.526
			c4.112-0.628,7.141-2.053,9.085-4.276c0.544,7.005-4.188,10.76-14.2,11.266c-12.192,0.668-18.321-3.366-18.387-12.108
			c-0.488-7.513,1.87-14.886,7.074-22.114c5.202-7.228,11.86-10.941,19.972-11.139c7.415-0.014,11.414,2.933,11.995,8.843
			c0.028,5.776-2.169,9.492-6.593,11.146C262.675,92.075,258.177,92.817,253.892,93.021z M255.729,89.085
			c8.645,0.484,12.994-1.617,13.046-6.303c-0.49-2.557-1.779-3.58-3.866-3.07C261.475,80.782,258.416,83.908,255.729,89.085z"/>
	</g>
	<g>
		<path fill="#6FB644" d="M123.615,82.46c0.269,0.058,0.516,0.148,0.745,0.264l1.482-6.958c-0.388,0.001-0.766-0.007-1.17,0.007
			c-2.337,0.13-4.921,0.933-7.752,2.409l1.578-7.645c-0.668,0.474-1.347,1.058-2.04,1.784c-2.024,3.163-5.217,14.411-9.579,33.745
			c-5.163,2.12-8.689,2.403-10.586,0.858c-0.939,4.989-1.291,8.341-1.052,10.041c0.646,4.58,4.695,5.34,12.15,2.28
			c4.362-19.334,7.555-30.583,9.579-33.745C119.334,83.028,121.548,82.014,123.615,82.46z"/>
		<path fill="#6FB644" d="M103.658,61.409c-0.327,0.395-0.58,0.838-0.746,1.334c0.132,0.016,0.241,0.047,0.365,0.068
			C103.403,62.349,103.531,61.879,103.658,61.409z"/>
		<path fill="#6FB644" d="M135.3,112.715l2.328-9.595c-0.65,2.192-3.098,3.345-7.368,3.442c-3.345,0.325-5.786-0.2-7.323-1.575
			l-1.385,6.505c-0.543,6.15,2.531,8.898,9.22,8.248c4.952-0.113,7.469-1.637,7.551-4.568
			C136.167,115.96,135.16,115.142,135.3,112.715z"/>
	</g>
	<g>
		<path fill="#6FB644" d="M181.92,112.309l2.288-9.902c-0.724,1.65-2.737,2.522-6.085,2.589c-3.674,0.357-6.286,0.215-7.913-0.39
			l-0.006,0.02c-1.604,5.957-4.788,7.876-9.554,5.758c-0.655-1.475-0.935-3.149-0.91-4.986c-1.586,0.254-3.215,0.352-4.894,0.268
			c-5.148,0.143-8.622-1.878-10.433-6.047c-0.716,2.682-0.984,5.32-0.794,7.914c0.847,7.735,4.759,11.506,11.74,11.312
			c4.848,0.24,9.311-0.927,13.389-3.506c-0.097,2.542,3.199,3.485,9.888,2.836c4.173-0.085,6.307-1.396,6.405-3.937
			C182.884,115.023,181.844,114.382,181.92,112.309z"/>
	</g>
	<g>
		<path fill="#6FB644" d="M226.971,93.349c-3.774,4.613-8.208,7.603-13.271,9.048c-3.914,6.411-7.583,8.863-11.004,7.348
			l1.589-6.374c-1.45-0.115-2.656-0.401-3.569-0.893l-4.057,14.619c-1.478,5.696-13.902,44.274-20.487,45.115l-1.493,5.829
			c-0.776,2.098-2.617,3.458-5.521,4.079c-0.138,2.464,1.838,3.617,5.931,3.458c7.553-0.49,12.127-3.809,13.723-9.96l12.416-49.962
			c1.354,0.729,3.299,1.043,5.833,0.944c8.156-0.043,14.963-3.401,20.423-10.074c5.458-6.672,8.103-14.22,7.932-22.645
			c-0.223-2.03-0.648-3.78-1.267-5.265C233.029,83.925,230.658,88.842,226.971,93.349z"/>
	</g>
	<g>
		<path fill="#6FB644" d="M252.142,102.935c-8.928,0.366-14.481-1.886-16.655-6.76c-0.522,2.586-0.721,5.189-0.55,7.809
			c0.066,8.742,6.195,12.776,18.387,12.108c10.011-0.506,14.744-4.262,14.2-11.266c-1.944,2.223-4.973,3.648-9.085,4.276
			C254.758,108.99,252.675,106.916,252.142,102.935z"/>
	</g>
	<path fill="#7FC342" d="M33.297,105.614c-3.2-0.582-5.899-1.89-8.098-3.922c-2.197-2.033-3.367-4.871-3.509-8.515
		c-0.114-2.935,0.284-5.6,1.19-7.991c0.908-2.388,1.656-3.595,2.244-3.618c0.118-0.005,0.455,0.366,1.014,1.108
		c0.559,0.745,1.448,1.62,2.662,2.633c0.182-1.42,0.828-2.915,1.944-4.489c1.114-1.571,2.443-3.008,3.982-4.304
		c1.538-1.295,3.262-2.361,5.171-3.202c1.91-0.838,3.804-1.295,5.685-1.368c2.469-0.096,4.658,0.233,6.571,0.981
		c1.91,0.751,3.565,1.687,4.964,2.808c1.395,1.123,2.503,2.374,3.324,3.755c0.818,1.381,1.364,2.595,1.642,3.644
		c1.539,6.296,0.59,11.425-2.845,15.382c-3.438,3.96-9.023,6.326-16.761,7.095c2.495,3.671,6.508,5.512,12.043,5.534
		c4.342-0.287,7.963-1.016,10.861-2.187c2.895-1.172,5.165-2.611,6.805-4.325c1.639-1.71,2.774-3.578,3.402-5.605
		c0.627-2.025,0.906-3.919,0.837-5.683c-0.137-3.525-0.96-6.552-2.471-9.084c-1.511-2.529-3.397-4.839-5.654-6.931
		c-2.261-2.089-4.663-4.172-7.216-6.252c-2.553-2.077-4.966-4.367-7.24-6.869c-2.277-2.499-4.183-5.427-5.726-8.782
		c-1.543-3.352-2.405-7.379-2.587-12.081c-0.137-3.526,0.435-6.96,1.718-10.307c1.283-3.343,3.197-6.33,5.742-8.962
		c2.546-2.629,5.612-4.748,9.198-6.36c3.585-1.61,7.671-2.505,12.254-2.683c3.994-0.155,7.894,0.253,11.7,1.222
		c3.802,0.972,7.218,2.545,10.247,4.722c3.025,2.178,5.488,4.937,7.383,8.275c1.895,3.342,2.932,7.301,3.11,11.885
		c0.114,2.938-0.308,5.722-1.264,8.346c-0.958,2.628-2.34,4.946-4.144,6.959c-1.806,2.012-3.891,3.655-6.252,4.921
		c-2.364,1.27-4.955,1.958-7.776,2.067c-3.41,0.132-6.25-0.256-8.52-1.169c-2.272-0.91-4.081-2.048-5.428-3.408
		c-1.35-1.36-2.375-2.76-3.076-4.206c-0.704-1.443-1.137-2.692-1.293-3.746c-0.301-1.635-0.296-3.048,0.011-4.237
		c0.308-1.187,0.751-1.852,1.335-1.994c1.786,0.521,3.89,0.939,6.316,1.256c2.423,0.319,4.81,0.431,7.164,0.339
		c1.526-0.059,2.666-0.25,3.42-0.574c0.752-0.321,1.015-0.362,0.79-0.119c-0.568,0.612-1.781,1.189-3.64,1.73
		c-1.863,0.544-3.436,0.958-4.719,1.242c0.592,0.096,1.093,0.134,1.505,0.118c0.411-0.016,0.909-0.035,1.5-0.058
		c1.763-0.068,3.274-0.508,4.539-1.324c1.261-0.813,2.312-1.825,3.148-3.035c0.836-1.208,1.462-2.498,1.88-3.869
		c0.415-1.368,0.605-2.584,0.564-3.642c-0.068-1.763-0.549-3.509-1.439-5.24c-0.891-1.731-2.099-3.273-3.622-4.627
		c-1.525-1.353-3.302-2.401-5.33-3.147c-2.031-0.743-4.162-1.074-6.394-0.987c-3.173,0.123-5.795,0.785-7.868,1.982
		c-2.071,1.2-3.725,2.616-4.953,4.253c-1.233,1.637-2.11,3.291-2.632,4.957c-0.526,1.67-0.765,3.031-0.724,4.089
		c0.155,3.997,1.086,7.522,2.794,10.573c1.707,3.054,3.819,5.914,6.336,8.581c2.514,2.669,5.205,5.243,8.068,7.719
		c2.86,2.479,5.52,5.054,7.98,7.723c2.456,2.671,4.513,5.623,6.17,8.852c1.654,3.232,2.502,6.907,2.546,11.023
		c0.096,5.53-1.01,10.367-3.319,14.517c-2.311,4.15-5.36,7.474-9.146,9.977c-3.788,2.5-7.99,4.164-12.606,4.992
		c-4.618,0.825-9.18,0.799-13.686-0.086c-4.508-0.884-8.726-2.662-12.653-5.334C38.531,113.885,35.476,110.235,33.297,105.614z
		 M35.467,88.758c-0.715-0.206-1.337-0.329-1.869-0.369c-0.531-0.037-0.977-0.166-1.338-0.389c1.681,0.878,3.151,1.616,4.411,2.212
		c1.259,0.6,3.062,0.852,5.413,0.761c1.174-0.046,2.399-0.297,3.678-0.761c1.276-0.46,2.369-1.063,3.285-1.804
		c0.912-0.742,1.553-1.619,1.928-2.635c0.372-1.013,0.243-2.04-0.384-3.075c-0.127-0.229-0.677-0.738-1.647-1.525
		c-0.975-0.784-2.578-1.135-4.808-1.049c-1.529,0.059-3.151,0.682-4.871,1.866C37.546,83.177,36.278,85.433,35.467,88.758z"/>
	<path fill="#A9D164" d="M131.201,108.631l4.803-22.552c0.239-3.874-0.674-6.034-2.74-6.48c-1.446-0.313-2.967,0.107-4.558,1.224
		c0.898,1.051,1.278,2.87,1.116,5.496l-4.803,22.552c-0.543,6.15,2.531,8.898,9.22,8.248c0.996-0.023,1.867-0.118,2.666-0.255
		C132.67,116.314,130.765,113.573,131.201,108.631z"/>
	<path fill="#A9D164" d="M104.199,114.441c-0.441-4.272,2.773-19.536,9.641-45.79c0.684-2.548-0.154-4.024-2.517-4.424
		c0.434-1.398,1.476-2.332,3.109-2.817c-0.847-0.18-1.798-0.278-2.861-0.288c-2.889,0.189-4.633,1.248-5.232,3.179
		c2.363,0.4,3.201,1.876,2.517,4.424c-6.868,26.254-10.082,41.518-9.641,45.79c0.368,3.567,2.7,4.707,6.982,3.439
		C105.053,117.374,104.381,116.209,104.199,114.441z"/>
	<path fill="#A9D164" d="M153.144,105.832c-0.435-5.954,1.875-12.176,6.934-18.666c4.509-5.785,9.825-9.126,15.939-10.053
		c-0.976-0.061-2.01-0.076-3.113-0.038c-7.077,0.377-13.143,3.811-18.2,10.3c-5.058,6.49-7.369,12.712-6.934,18.666
		c0.736,6.723,4.137,10.001,10.204,9.832c1.436,0.071,2.831-0.011,4.189-0.224C156.838,115.374,153.831,112.104,153.144,105.832z"/>
	<path fill="#A9D164" d="M243.352,102.327c-0.435-5.954,1.875-12.176,6.934-18.666c4.509-5.785,9.825-9.126,15.939-10.053
		c-0.976-0.061-2.01-0.076-3.113-0.038c-7.077,0.377-13.143,3.811-18.2,10.3c-5.058,6.49-7.369,12.712-6.934,18.666
		c0.736,6.723,4.137,10.001,10.204,9.832c1.436,0.071,2.831-0.011,4.189-0.224C247.046,111.869,244.038,108.599,243.352,102.327z"/>
	<path fill="#A9D164" d="M181.141,167.876c2.397-0.512,3.917-1.635,4.558-3.367l20.971-83.979c-0.335-1.147-1.238-1.563-2.707-1.248
		c0.056-2.044,1.445-3.359,4.134-3.965c-1.008-0.098-2.173-0.123-3.505-0.071c-3.754,0.404-5.666,1.815-5.732,4.235
		c1.469-0.314,2.372,0.101,2.707,1.248l-20.971,83.979c-0.641,1.732-2.161,2.855-4.558,3.367c-0.114,2.035,1.518,2.986,4.896,2.855
		c0.945-0.061,1.814-0.194,2.646-0.363C181.883,170.217,181.059,169.328,181.141,167.876z"/>
	<g>
		<path fill="#6FB644" d="M52.724,62.872c1.499,0.672,2.835,1.463,3.987,2.387c1.395,1.123,2.503,2.374,3.324,3.755
			c0.443,0.748,0.799,1.443,1.083,2.093c2.541,2.071,4.933,4.145,7.184,6.224c2.258,2.092,4.144,4.401,5.654,6.931
			c0.617,1.033,1.089,2.17,1.476,3.369c0.439-1.679,0.646-3.27,0.588-4.761c-0.137-3.525-0.96-6.552-2.471-9.084
			c-1.511-2.529-3.397-4.839-5.654-6.931c-2.261-2.089-4.663-4.172-7.216-6.252c-2.553-2.077-4.966-4.367-7.24-6.869
			c-2.277-2.499-4.183-5.427-5.726-8.782c-0.858-1.864-1.483-3.96-1.921-6.242c-0.219,1.529-0.321,3.073-0.26,4.637
			c0.183,4.702,1.045,8.729,2.587,12.081C49.398,58.209,50.942,60.679,52.724,62.872z"/>
		<path fill="#6FB644" d="M62.084,83.134c-0.067-0.252-0.151-0.514-0.248-0.785c-0.562,2.104-1.544,4.009-3.004,5.69
			c-3.438,3.96-9.023,6.326-16.761,7.095c2.495,3.671,6.508,5.512,12.043,5.534c1.11-0.073,2.17-0.178,3.186-0.309
			c0.699-0.575,1.36-1.179,1.938-1.844C62.674,94.559,63.622,89.43,62.084,83.134z"/>
		<path fill="#6FB644" d="M90.146,96.532c-2.311,4.15-5.36,7.474-9.146,9.977c-3.788,2.5-7.99,4.164-12.606,4.992
			c-4.618,0.825-9.18,0.799-13.686-0.086c-0.436-0.086-0.857-0.219-1.288-0.322c-4.206-0.215-7.473-1.554-9.783-4.044
			c-0.528-0.321-1.065-0.616-1.583-0.969c-3.93-2.672-6.985-6.322-9.164-10.943c-3.2-0.582-5.899-1.89-8.098-3.922
			c-1.133-1.049-1.988-2.316-2.575-3.793c-0.42,1.788-0.607,3.701-0.527,5.755c0.142,3.644,1.312,6.482,3.509,8.515
			c2.198,2.033,4.897,3.34,8.098,3.922c2.179,4.621,5.234,8.271,9.164,10.943c3.927,2.672,8.146,4.45,12.653,5.334
			c4.506,0.885,9.068,0.911,13.686,0.086c4.617-0.827,8.819-2.491,12.606-4.992c3.786-2.503,6.835-5.827,9.146-9.977
			c2.31-4.15,3.415-8.988,3.319-14.517c-0.022-2.022-0.243-3.934-0.652-5.742C92.785,90.348,91.77,93.614,90.146,96.532z"/>
	</g>
	<path fill="#A9D164" d="M57.59,65.652c2.272,2.444,4.683,4.68,7.234,6.709c2.551,2.031,4.952,4.065,7.21,6.105
		c2.256,2.043,4.14,4.299,5.648,6.771c1.509,2.473,2.329,5.432,2.463,8.878c0.067,1.724-0.214,3.576-0.842,5.556
		c-0.63,1.982-1.767,3.809-3.407,5.483c-1.642,1.676-3.913,3.086-6.809,4.234c-2.019,0.8-4.412,1.376-7.132,1.756
		c0.785,0.088,1.594,0.149,2.452,0.151c4.342-0.285,7.963-1,10.862-2.148c2.896-1.148,5.167-2.558,6.809-4.234
		c1.64-1.674,2.777-3.501,3.407-5.483c0.629-1.98,0.909-3.832,0.842-5.556c-0.134-3.446-0.954-6.405-2.463-8.878
		c-1.509-2.471-3.392-4.728-5.648-6.771c-2.259-2.04-4.659-4.075-7.21-6.105c-2.551-2.029-4.962-4.265-7.234-6.709
		c-2.274-2.441-4.179-5.302-5.718-8.58c-1.54-3.276-2.398-7.212-2.577-11.808c-0.134-3.447,0.441-6.805,1.726-10.078
		c1.285-3.27,3.202-6.192,5.75-8.766c2.548-2.572,5.616-4.646,9.204-6.226c2.777-1.221,5.861-2.011,9.236-2.394
		c-1.048-0.036-2.101-0.04-3.162,0.001c-4.583,0.178-8.67,1.057-12.256,2.633c-3.588,1.58-6.656,3.653-9.204,6.226
		c-2.548,2.574-4.465,5.496-5.75,8.766c-1.285,3.273-1.86,6.631-1.726,10.078c0.179,4.596,1.037,8.532,2.577,11.808
		C53.411,60.35,55.315,63.21,57.59,65.652z"/>
	<g>
		
			<ellipse transform="matrix(0.8346 0.5508 -0.5508 0.8346 26.6042 -24.663)" fill="#FFFFFF" cx="54.375" cy="31.975" rx="2.818" ry="5.531"/>
	</g>
	<g>
		
			<ellipse transform="matrix(0.8346 0.5508 -0.5508 0.8346 56.7489 -48.2685)" fill="#FFFFFF" cx="108.76" cy="70.374" rx="1.89" ry="3.71"/>
	</g>
	<g>
		
			<ellipse transform="matrix(0.8346 0.5508 -0.5508 0.8346 72.1223 -75.3378)" fill="#FFFFFF" cx="161.527" cy="82.442" rx="2.058" ry="4.039"/>
	</g>
	<g>
		
			<ellipse transform="matrix(0.8346 0.5508 -0.5508 0.8346 77.2023 -97.304)" fill="#FFFFFF" cx="200.65" cy="79.919" rx="2.058" ry="4.039"/>
	</g>
	<g>
		
			<ellipse transform="matrix(0.8346 0.5508 -0.5508 0.8346 84.5523 -125.7525)" fill="#FFFFFF" cx="251.702" cy="77.936" rx="2.058" ry="4.039"/>
	</g>
	<g>
		
			<ellipse transform="matrix(0.8346 0.5508 -0.5508 0.8346 87.0775 -121.7933)" fill="#FFFFFF" cx="246.371" cy="84.121" rx="1.43" ry="2.807"/>
	</g>
	<g>
		
			<ellipse transform="matrix(0.8346 0.5508 -0.5508 0.8346 81.797 -112.7842)" fill="#FFFFFF" cx="228.727" cy="79.831" rx="1.43" ry="2.807"/>
	</g>
	<g>
		
			<ellipse transform="matrix(0.8346 0.5508 -0.5508 0.8346 74.123 -71.9139)" fill="#FFFFFF" cx="156.826" cy="87.486" rx="1.43" ry="2.807"/>
	</g>
	<g>
		
			<ellipse transform="matrix(0.8346 0.5508 -0.5508 0.8346 68.2095 -60.1933)" fill="#FFFFFF" cx="134.35" cy="83.498" rx="1.43" ry="2.807"/>
	</g>
	<g>
		
			<ellipse transform="matrix(0.8346 0.5508 -0.5508 0.8346 60.6025 -45.714)" fill="#FFFFFF" cx="106.433" cy="78.069" rx="1.43" ry="2.807"/>
	</g>
	<g>
		
			<ellipse transform="matrix(0.8346 0.5508 -0.5508 0.8346 30.9061 -21.0218)" fill="#FFFFFF" cx="50.462" cy="40.96" rx="1.43" ry="2.807"/>
	</g>
	<g>
		
			<ellipse transform="matrix(0.8346 0.5508 -0.5508 0.8346 40.5681 -32.7282)" fill="#FFFFFF" cx="74.789" cy="51.197" rx="1.43" ry="2.807"/>
	</g>
	<g>
		
			<ellipse transform="matrix(0.8346 0.5508 -0.5508 0.8346 54.7488 -0.0568)" fill="#FFFFFF" cx="27.469" cy="91.149" rx="1.43" ry="2.807"/>
	</g>
	<g>
		<path fill="#EB224F" stroke="#8C183E" stroke-width="8" stroke-miterlimit="10" d="M89.929,138.613
			c-0.461-0.166-0.942-0.282-1.444-0.344c-0.501-0.063-0.963-0.136-1.38-0.22c-0.461-0.084-0.921-0.146-1.381-0.188h-1.067
			c-0.712,0-1.444,0.063-2.197,0.188c-0.711,0.168-1.381,0.419-2.007,0.753c-0.628,0.335-0.942,0.774-0.942,1.318
			c0,0.502,0.219,0.89,0.659,1.162c0.439,0.272,1.024,0.492,1.757,0.658c0.732,0.168,1.568,0.325,2.51,0.471
			c0.942,0.148,1.903,0.345,2.887,0.596c0.982,0.252,1.955,0.576,2.918,0.973c0.962,0.397,1.82,0.952,2.573,1.663
			c0.962,0.838,1.641,1.695,2.039,2.573c0.397,0.878,0.596,2.134,0.596,3.765c0,3.514-1.359,6.171-4.079,7.97
			c-2.72,1.799-6.526,2.698-11.421,2.698c-3.137,0-5.867-0.198-8.19-0.596c-2.321-0.397-4.278-1.035-5.867-1.914
			c-0.669-0.377-1.297-0.795-1.882-1.255c-0.502-0.377-0.963-0.805-1.381-1.287c-0.419-0.48-0.669-0.972-0.753-1.474
			c0-0.334,0.041-0.69,0.125-1.067c0.084-0.376,0.376-0.753,0.878-1.129c0.418-0.292,0.962-0.439,1.631-0.439
			c0.628,0,1.15,0.084,1.569,0.251c0.376,0.125,0.69,0.23,0.942,0.314c0.251,0.084,0.46,0.168,0.627,0.251
			c0.167,0.084,0.335,0.125,0.502,0.125l1.255,0.252c0.376,0.084,0.794,0.147,1.255,0.188c0.46,0.042,0.919,0.062,1.38,0.062
			c0.502,0,1.025-0.041,1.569-0.125c0.543-0.084,1.108-0.229,1.695-0.439c0.669-0.209,1.254-0.523,1.757-0.942
			c0.502-0.418,0.816-0.982,0.942-1.695v-0.188c0-0.795-0.408-1.328-1.224-1.601c-0.816-0.271-1.831-0.501-3.044-0.69
			c-1.214-0.188-2.541-0.439-3.984-0.753c-1.444-0.314-2.773-0.93-3.985-1.851c-0.963-0.711-1.631-1.652-2.008-2.824
			c-0.376-1.171-0.565-2.322-0.565-3.451c0-1.715,0.408-3.189,1.224-4.424c0.816-1.233,1.934-2.238,3.358-3.012
			c1.422-0.773,3.116-1.349,5.083-1.726c1.966-0.376,4.099-0.565,6.401-0.565c1.966,0,3.702,0.116,5.208,0.345
			c1.506,0.23,3.096,0.638,4.769,1.224c0.962,0.335,1.767,0.711,2.416,1.129c0.648,0.419,1.139,0.901,1.475,1.444
			c0.209,0.376,0.314,0.815,0.314,1.318s-0.105,1.004-0.314,1.506c-0.126,0.376-0.409,0.669-0.848,0.878
			c-0.439,0.21-0.89,0.314-1.349,0.314C90.598,138.801,90.264,138.738,89.929,138.613z"/>
		<path fill="#EB224F" stroke="#8C183E" stroke-width="8" stroke-miterlimit="10" d="M142.453,140.558v13.681
			c0,0.292-0.063,0.878-0.188,1.757c-0.125,0.878-0.502,1.779-1.13,2.698c-0.627,0.921-1.579,1.736-2.855,2.448
			c-1.277,0.712-3.044,1.067-5.303,1.067c-1.924,0-3.441-0.334-4.549-1.004c-1.11-0.669-1.925-1.444-2.448-2.322
			c-0.524-0.878-0.848-1.735-0.973-2.573c-0.125-0.837-0.188-1.422-0.188-1.757v-8.66c0-0.251-0.032-0.606-0.095-1.067
			c-0.062-0.46-0.21-0.93-0.439-1.411c-0.23-0.481-0.565-0.9-1.004-1.255c-0.439-0.355-1.058-0.534-1.851-0.534
			c-0.838,0-1.506,0.168-2.008,0.502c-0.501,0.335-0.878,0.721-1.129,1.161c-0.252,0.439-0.408,0.901-0.471,1.381
			c-0.063,0.482-0.094,0.848-0.094,1.098v8.534c0,1.925-0.44,3.421-1.319,4.488s-1.882,1.851-3.012,2.353
			c-1.129,0.502-2.196,0.806-3.201,0.91c-1.004,0.105-1.631,0.157-1.882,0.157h-0.063c-2.259,0-4.027-0.324-5.302-0.973
			c-1.277-0.648-2.218-1.38-2.825-2.196c-0.606-0.816-0.983-1.621-1.129-2.416c-0.148-0.794-0.22-1.339-0.22-1.631v-28.553
			c0-0.418,0.072-1.056,0.22-1.914c0.146-0.857,0.523-1.715,1.129-2.573c0.606-0.857,1.527-1.61,2.761-2.259
			c1.233-0.648,2.939-0.973,5.114-0.973c2.343,0,4.163,0.367,5.46,1.098c1.296,0.733,2.259,1.579,2.887,2.541
			c0.628,0.963,1.014,1.883,1.161,2.761c0.146,0.878,0.22,1.486,0.22,1.82v8.409c0.836-0.502,1.735-1.004,2.698-1.506
			c0.836-0.46,1.788-0.93,2.855-1.412c1.067-0.48,2.206-0.93,3.42-1.349c0.418-0.084,0.857-0.188,1.318-0.314
			c0.92-0.209,1.967-0.314,3.138-0.314c0.919,0,1.945,0.063,3.074,0.188c1.13,0.125,2.259,0.482,3.389,1.067
			c0.878,0.461,1.672,1.088,2.384,1.883c0.585,0.711,1.139,1.621,1.663,2.73C142.191,137.432,142.453,138.843,142.453,140.558z"/>
		<path fill="#EB224F" stroke="#8C183E" stroke-width="8" stroke-miterlimit="10" d="M165.106,155.117v0.314
			c0,0.376-0.073,0.963-0.219,1.757c-0.148,0.796-0.524,1.601-1.13,2.416c-0.606,0.816-1.527,1.527-2.761,2.134
			c-1.235,0.607-2.961,0.91-5.177,0.91c-2.259,0-4.038-0.292-5.334-0.878c-1.297-0.586-2.259-1.276-2.887-2.071
			c-0.627-0.795-1.015-1.601-1.161-2.416c-0.147-0.816-0.219-1.433-0.219-1.851v-16.693c0-1.757,0.439-3.126,1.318-4.11
			c0.878-0.982,1.882-1.715,3.012-2.197c1.129-0.48,2.206-0.773,3.231-0.878c1.025-0.104,1.663-0.157,1.915-0.157h0.125
			c2.175,0,3.879,0.314,5.114,0.942c1.233,0.628,2.165,1.339,2.792,2.134c0.628,0.795,1.014,1.568,1.162,2.321
			c0.146,0.753,0.219,1.255,0.219,1.506V155.117z M162.847,123.866c0,0.796-0.188,1.549-0.565,2.259
			c-0.376,0.712-0.878,1.329-1.506,1.851c-0.628,0.524-1.37,0.931-2.228,1.224c-0.858,0.292-1.768,0.439-2.73,0.439
			c-0.963,0-1.873-0.147-2.73-0.439c-0.858-0.292-1.611-0.7-2.259-1.224c-0.649-0.523-1.161-1.139-1.538-1.851
			c-0.376-0.71-0.565-1.463-0.565-2.259c0-0.753,0.188-1.475,0.565-2.165c0.377-0.69,0.889-1.296,1.538-1.819
			c0.648-0.523,1.401-0.942,2.259-1.255c0.857-0.314,1.767-0.471,2.73-0.471c0.962,0,1.872,0.157,2.73,0.471
			c0.857,0.314,1.6,0.733,2.228,1.255c0.628,0.523,1.13,1.129,1.506,1.819C162.659,122.391,162.847,123.113,162.847,123.866z"/>
		<path fill="#EB224F" stroke="#8C183E" stroke-width="8" stroke-miterlimit="10" d="M191.399,134.785h5.021
			c0.167,0,0.429,0.031,0.785,0.094c0.355,0.063,0.721,0.21,1.098,0.439c0.376,0.23,0.7,0.576,0.972,1.035
			c0.272,0.461,0.409,1.11,0.409,1.945v0.126c0,0.167-0.032,0.449-0.095,0.847c-0.062,0.398-0.199,0.806-0.408,1.224
			c-0.21,0.419-0.544,0.785-1.004,1.098c-0.461,0.313-1.11,0.47-1.946,0.47h-4.832v13.932c0,1.631-0.439,2.887-1.318,3.765
			s-1.873,1.538-2.981,1.977c-1.109,0.439-2.176,0.701-3.201,0.785c-1.025,0.084-1.684,0.125-1.977,0.125h-0.125
			c-2.344,0-4.141-0.366-5.397-1.098c-1.255-0.731-2.176-1.538-2.761-2.416c-0.711-1.045-1.109-2.216-1.192-3.514v-13.556
			c-0.878,0-1.569-0.125-2.071-0.376c-0.502-0.251-0.878-0.554-1.13-0.91c-0.251-0.355-0.408-0.721-0.471-1.098
			c-0.062-0.376-0.094-0.69-0.094-0.942v-0.439c0-0.836,0.146-1.484,0.439-1.945c0.292-0.46,0.648-0.805,1.067-1.035
			c0.418-0.229,0.825-0.376,1.224-0.439c0.397-0.063,0.68-0.094,0.847-0.094h0.188v-0.502c0-2.887,0.355-5.303,1.067-7.248
			c0.711-1.945,1.767-3.514,3.169-4.707c1.401-1.192,3.127-2.039,5.177-2.541c2.049-0.502,4.413-0.753,7.091-0.753
			c0.292,0,0.742,0.032,1.349,0.094c0.605,0.063,1.244,0.148,1.914,0.252c0.669,0.105,1.328,0.241,1.977,0.408
			c0.648,0.168,1.139,0.356,1.475,0.565c0.795,0.293,1.506,0.691,2.134,1.192c0.543,0.461,1.035,1.026,1.474,1.695
			c0.439,0.669,0.659,1.506,0.659,2.511c-0.043,0.711-0.168,1.38-0.377,2.007c-0.21,0.544-0.501,1.067-0.878,1.569
			c-0.376,0.502-0.942,0.9-1.695,1.192c-0.335,0.084-0.586,0.125-0.753,0.125c-0.335,0-0.669-0.032-1.004-0.094
			c-0.335-0.063-0.649-0.136-0.942-0.22c-0.711,0-1.266,0.105-1.663,0.314c-0.397,0.21-0.69,0.502-0.878,0.878
			c-0.188,0.377-0.293,0.816-0.314,1.318c-0.021,0.501-0.032,1.046-0.032,1.631V134.785z"/>
		<path fill="#EB224F" stroke="#8C183E" stroke-width="8" stroke-miterlimit="10" d="M201.064,134.847
			c0-0.292,0.115-0.585,0.345-0.878c0.229-0.292,0.512-0.565,0.847-0.815c0.377-0.292,0.773-0.606,1.192-0.942
			c1.631-1.214,3.398-2.552,5.303-4.017c1.903-1.463,3.671-2.824,5.303-4.079l5.71-4.392c0.251-0.252,0.523-0.461,0.816-0.628
			c0.585-0.377,1.17-0.565,1.757-0.565c0.502,0,0.942,0.241,1.318,0.722c0.377,0.481,0.565,1.434,0.565,2.855v6.213h3.766
			c0.208,0,0.533,0.031,0.972,0.094s0.889,0.219,1.349,0.471c0.46,0.251,0.857,0.638,1.192,1.161
			c0.334,0.524,0.502,1.245,0.502,2.165c0,0.963-0.168,1.725-0.502,2.291c-0.335,0.565-0.733,0.983-1.192,1.254
			c-0.461,0.273-0.91,0.439-1.349,0.502s-0.764,0.094-0.972,0.094h-3.766v10.983c0,0.501,0.01,0.983,0.032,1.443
			c0.02,0.461,0.115,0.869,0.282,1.224c0.167,0.356,0.418,0.649,0.753,0.878c0.335,0.23,0.816,0.345,1.444,0.345h2.321
			c0.126-0.042,0.272-0.063,0.44-0.063c0.166,0,0.292,0.021,0.376,0.063c0.669,0.167,1.202,0.439,1.6,0.815
			c0.397,0.377,0.691,0.796,0.879,1.255c0.188,0.461,0.303,0.9,0.344,1.318c0.042,0.419,0.063,0.733,0.063,0.942v0.314
			c0,1.046-0.21,1.914-0.628,2.605c-0.419,0.69-0.9,1.266-1.443,1.725c-0.628,0.502-1.319,0.901-2.072,1.192
			c-0.376,0.168-0.889,0.335-1.537,0.502c-0.65,0.168-1.308,0.314-1.977,0.439c-0.67,0.125-1.308,0.22-1.915,0.282
			c-0.606,0.063-1.035,0.095-1.286,0.095c-5.356,0-9.424-1.202-12.206-3.608c-2.783-2.406-4.174-6.328-4.174-11.766v-10.983h-1.254
			c-0.963,0-1.736-0.083-2.322-0.251C201.356,135.936,201.064,135.518,201.064,134.847z"/>
	</g>
	<g>
		<path fill="#EB224F" d="M89.929,136.737c-0.461-0.166-0.942-0.282-1.444-0.344c-0.501-0.063-0.963-0.136-1.38-0.22
			c-0.461-0.084-0.921-0.146-1.381-0.188h-1.067c-0.712,0-1.444,0.063-2.197,0.188c-0.711,0.168-1.381,0.419-2.007,0.753
			c-0.628,0.335-0.942,0.774-0.942,1.318c0,0.502,0.219,0.89,0.659,1.162c0.439,0.272,1.024,0.492,1.757,0.658
			c0.732,0.168,1.568,0.325,2.51,0.471c0.942,0.148,1.903,0.345,2.887,0.596c0.982,0.252,1.955,0.576,2.918,0.973
			c0.962,0.397,1.82,0.952,2.573,1.663c0.962,0.838,1.641,1.695,2.039,2.573c0.397,0.878,0.596,2.134,0.596,3.765
			c0,3.514-1.359,6.171-4.079,7.97c-2.72,1.799-6.526,2.698-11.421,2.698c-3.137,0-5.867-0.198-8.19-0.596
			c-2.321-0.397-4.278-1.035-5.867-1.914c-0.669-0.377-1.297-0.795-1.882-1.255c-0.502-0.377-0.963-0.805-1.381-1.287
			c-0.419-0.48-0.669-0.972-0.753-1.474c0-0.334,0.041-0.69,0.125-1.067c0.084-0.376,0.376-0.753,0.878-1.129
			c0.418-0.292,0.962-0.439,1.631-0.439c0.628,0,1.15,0.084,1.569,0.251c0.376,0.125,0.69,0.23,0.942,0.314
			c0.251,0.084,0.46,0.168,0.627,0.251c0.167,0.084,0.335,0.125,0.502,0.125l1.255,0.252c0.376,0.084,0.794,0.147,1.255,0.188
			c0.46,0.042,0.919,0.062,1.38,0.062c0.502,0,1.025-0.041,1.569-0.125c0.543-0.084,1.108-0.229,1.695-0.439
			c0.669-0.209,1.254-0.523,1.757-0.942c0.502-0.418,0.816-0.982,0.942-1.695v-0.188c0-0.795-0.408-1.328-1.224-1.601
			c-0.816-0.271-1.831-0.501-3.044-0.69c-1.214-0.188-2.541-0.439-3.984-0.753c-1.444-0.314-2.773-0.93-3.985-1.851
			c-0.963-0.711-1.631-1.652-2.008-2.824c-0.376-1.171-0.565-2.322-0.565-3.451c0-1.715,0.408-3.189,1.224-4.424
			c0.816-1.233,1.934-2.238,3.358-3.012c1.422-0.773,3.116-1.349,5.083-1.726c1.966-0.376,4.099-0.565,6.401-0.565
			c1.966,0,3.702,0.116,5.208,0.345c1.506,0.23,3.096,0.638,4.769,1.224c0.962,0.335,1.767,0.711,2.416,1.129
			c0.648,0.419,1.139,0.901,1.475,1.444c0.209,0.376,0.314,0.815,0.314,1.318s-0.105,1.004-0.314,1.506
			c-0.126,0.376-0.409,0.669-0.848,0.878c-0.439,0.21-0.89,0.314-1.349,0.314C90.598,136.926,90.264,136.863,89.929,136.737z"/>
		<path fill="#EB224F" d="M142.453,138.683v13.681c0,0.292-0.063,0.878-0.188,1.757c-0.125,0.878-0.502,1.779-1.13,2.698
			c-0.627,0.921-1.579,1.736-2.855,2.448c-1.277,0.712-3.044,1.067-5.303,1.067c-1.924,0-3.441-0.334-4.549-1.004
			c-1.11-0.669-1.925-1.444-2.448-2.322c-0.524-0.878-0.848-1.735-0.973-2.573c-0.125-0.837-0.188-1.422-0.188-1.757v-8.66
			c0-0.251-0.032-0.606-0.095-1.067c-0.062-0.46-0.21-0.93-0.439-1.411c-0.23-0.481-0.565-0.9-1.004-1.255
			c-0.439-0.355-1.058-0.534-1.851-0.534c-0.838,0-1.506,0.168-2.008,0.502c-0.501,0.335-0.878,0.721-1.129,1.161
			c-0.252,0.439-0.408,0.901-0.471,1.381c-0.063,0.482-0.094,0.848-0.094,1.098v8.534c0,1.925-0.44,3.421-1.319,4.488
			s-1.882,1.851-3.012,2.353c-1.129,0.502-2.196,0.806-3.201,0.91c-1.004,0.105-1.631,0.157-1.882,0.157h-0.063
			c-2.259,0-4.027-0.324-5.302-0.973c-1.277-0.648-2.218-1.38-2.825-2.196c-0.606-0.816-0.983-1.621-1.129-2.416
			c-0.148-0.794-0.22-1.339-0.22-1.631v-28.553c0-0.418,0.072-1.056,0.22-1.914c0.146-0.857,0.523-1.715,1.129-2.573
			c0.606-0.857,1.527-1.61,2.761-2.259c1.233-0.648,2.939-0.973,5.114-0.973c2.343,0,4.163,0.367,5.46,1.098
			c1.296,0.733,2.259,1.579,2.887,2.541c0.628,0.963,1.014,1.883,1.161,2.761c0.146,0.878,0.22,1.486,0.22,1.82v8.409
			c0.836-0.502,1.735-1.004,2.698-1.506c0.836-0.46,1.788-0.93,2.855-1.412c1.067-0.48,2.206-0.93,3.42-1.349
			c0.418-0.084,0.857-0.188,1.318-0.314c0.92-0.209,1.967-0.314,3.138-0.314c0.919,0,1.945,0.063,3.074,0.188
			c1.13,0.125,2.259,0.482,3.389,1.067c0.878,0.461,1.672,1.088,2.384,1.883c0.585,0.711,1.139,1.621,1.663,2.73
			C142.191,135.556,142.453,136.968,142.453,138.683z"/>
		<path fill="#EB224F" d="M165.106,153.242v0.314c0,0.376-0.073,0.963-0.219,1.757c-0.148,0.796-0.524,1.601-1.13,2.416
			c-0.606,0.816-1.527,1.527-2.761,2.134c-1.235,0.607-2.961,0.91-5.177,0.91c-2.259,0-4.038-0.292-5.334-0.878
			c-1.297-0.586-2.259-1.276-2.887-2.071c-0.627-0.795-1.015-1.601-1.161-2.416c-0.147-0.816-0.219-1.433-0.219-1.851v-16.693
			c0-1.757,0.439-3.126,1.318-4.11c0.878-0.982,1.882-1.715,3.012-2.197c1.129-0.48,2.206-0.773,3.231-0.878
			c1.025-0.104,1.663-0.157,1.915-0.157h0.125c2.175,0,3.879,0.314,5.114,0.942c1.233,0.628,2.165,1.339,2.792,2.134
			c0.628,0.795,1.014,1.568,1.162,2.321c0.146,0.753,0.219,1.255,0.219,1.506V153.242z M162.847,121.99
			c0,0.796-0.188,1.549-0.565,2.259c-0.376,0.712-0.878,1.329-1.506,1.851c-0.628,0.524-1.37,0.931-2.228,1.224
			c-0.858,0.292-1.768,0.439-2.73,0.439c-0.963,0-1.873-0.147-2.73-0.439c-0.858-0.292-1.611-0.7-2.259-1.224
			c-0.649-0.523-1.161-1.139-1.538-1.851c-0.376-0.71-0.565-1.463-0.565-2.259c0-0.753,0.188-1.475,0.565-2.165
			c0.377-0.69,0.889-1.296,1.538-1.819c0.648-0.523,1.401-0.942,2.259-1.255c0.857-0.314,1.767-0.471,2.73-0.471
			c0.962,0,1.872,0.157,2.73,0.471c0.857,0.314,1.6,0.733,2.228,1.255c0.628,0.523,1.13,1.129,1.506,1.819
			C162.659,120.516,162.847,121.237,162.847,121.99z"/>
		<path fill="#EB224F" d="M191.399,132.91h5.021c0.167,0,0.429,0.031,0.785,0.094c0.355,0.063,0.721,0.21,1.098,0.439
			c0.376,0.23,0.7,0.576,0.972,1.035c0.272,0.461,0.409,1.11,0.409,1.945v0.126c0,0.167-0.032,0.449-0.095,0.847
			c-0.062,0.398-0.199,0.806-0.408,1.224c-0.21,0.419-0.544,0.785-1.004,1.098c-0.461,0.313-1.11,0.47-1.946,0.47h-4.832v13.932
			c0,1.631-0.439,2.887-1.318,3.765s-1.873,1.538-2.981,1.977c-1.109,0.439-2.176,0.701-3.201,0.785
			c-1.025,0.084-1.684,0.125-1.977,0.125h-0.125c-2.344,0-4.141-0.366-5.397-1.098c-1.255-0.731-2.176-1.538-2.761-2.416
			c-0.711-1.045-1.109-2.216-1.192-3.514v-13.556c-0.878,0-1.569-0.125-2.071-0.376c-0.502-0.251-0.878-0.554-1.13-0.91
			c-0.251-0.355-0.408-0.721-0.471-1.098c-0.062-0.376-0.094-0.69-0.094-0.942v-0.439c0-0.836,0.146-1.484,0.439-1.945
			c0.292-0.46,0.648-0.805,1.067-1.035c0.418-0.229,0.825-0.376,1.224-0.439c0.397-0.063,0.68-0.094,0.847-0.094h0.188v-0.502
			c0-2.887,0.355-5.303,1.067-7.248c0.711-1.945,1.767-3.514,3.169-4.707c1.401-1.192,3.127-2.039,5.177-2.541
			c2.049-0.502,4.413-0.753,7.091-0.753c0.292,0,0.742,0.032,1.349,0.094c0.605,0.063,1.244,0.148,1.914,0.252
			c0.669,0.105,1.328,0.241,1.977,0.408c0.648,0.168,1.139,0.356,1.475,0.565c0.795,0.293,1.506,0.691,2.134,1.192
			c0.543,0.461,1.035,1.026,1.474,1.695c0.439,0.669,0.659,1.506,0.659,2.511c-0.043,0.711-0.168,1.38-0.377,2.007
			c-0.21,0.544-0.501,1.067-0.878,1.569c-0.376,0.502-0.942,0.9-1.695,1.192c-0.335,0.084-0.586,0.125-0.753,0.125
			c-0.335,0-0.669-0.032-1.004-0.094c-0.335-0.063-0.649-0.136-0.942-0.22c-0.711,0-1.266,0.105-1.663,0.314
			c-0.397,0.21-0.69,0.502-0.878,0.878c-0.188,0.377-0.293,0.816-0.314,1.318c-0.021,0.501-0.032,1.046-0.032,1.631V132.91z"/>
		<path fill="#EB224F" d="M201.064,132.972c0-0.292,0.115-0.585,0.345-0.878c0.229-0.292,0.512-0.565,0.847-0.815
			c0.377-0.292,0.773-0.606,1.192-0.942c1.631-1.214,3.398-2.552,5.303-4.017c1.903-1.463,3.671-2.824,5.303-4.079l5.71-4.392
			c0.251-0.252,0.523-0.461,0.816-0.628c0.585-0.377,1.17-0.565,1.757-0.565c0.502,0,0.942,0.241,1.318,0.722
			c0.377,0.481,0.565,1.434,0.565,2.855v6.213h3.766c0.208,0,0.533,0.031,0.972,0.094c0.439,0.063,0.889,0.219,1.349,0.471
			c0.46,0.251,0.857,0.638,1.192,1.161c0.334,0.524,0.502,1.245,0.502,2.165c0,0.963-0.168,1.725-0.502,2.291
			c-0.335,0.565-0.733,0.983-1.192,1.254c-0.461,0.273-0.91,0.439-1.349,0.502s-0.764,0.094-0.972,0.094h-3.766v10.983
			c0,0.501,0.01,0.983,0.032,1.443c0.02,0.461,0.115,0.869,0.282,1.224c0.167,0.356,0.418,0.649,0.753,0.878
			c0.335,0.23,0.816,0.345,1.444,0.345h2.321c0.126-0.042,0.272-0.063,0.44-0.063c0.166,0,0.292,0.021,0.376,0.063
			c0.669,0.167,1.202,0.439,1.6,0.815c0.397,0.377,0.691,0.796,0.879,1.255c0.188,0.461,0.303,0.9,0.344,1.318
			c0.042,0.419,0.063,0.733,0.063,0.942v0.314c0,1.046-0.21,1.914-0.628,2.605c-0.419,0.69-0.9,1.266-1.443,1.725
			c-0.628,0.502-1.319,0.901-2.072,1.192c-0.376,0.168-0.889,0.335-1.537,0.502c-0.65,0.168-1.308,0.314-1.977,0.439
			c-0.67,0.125-1.308,0.22-1.915,0.282c-0.606,0.063-1.035,0.095-1.286,0.095c-5.356,0-9.424-1.202-12.206-3.608
			c-2.783-2.406-4.174-6.328-4.174-11.766v-10.983h-1.254c-0.963,0-1.736-0.083-2.322-0.251
			C201.356,134.06,201.064,133.643,201.064,132.972z"/>
	</g>
	<g>
		<path fill="#C91E51" d="M94.547,145.834c-0.677,1.444-1.727,2.653-3.175,3.611c-2.72,1.799-6.526,2.698-11.421,2.698
			c-1.282,0-2.479-0.042-3.625-0.108c-0.316,0.177-0.652,0.33-1.018,0.444c-0.587,0.21-1.151,0.356-1.695,0.439
			c-0.544,0.085-1.067,0.125-1.569,0.125c-0.461,0-0.92-0.02-1.38-0.062c-0.461-0.042-0.879-0.104-1.255-0.188l-1.255-0.252
			c-0.167,0-0.335-0.041-0.502-0.125c-0.167-0.083-0.376-0.166-0.627-0.251c-0.252-0.084-0.565-0.188-0.942-0.314
			c-0.419-0.166-0.942-0.251-1.569-0.251c-0.669,0-1.214,0.147-1.631,0.439c-0.502,0.376-0.795,0.753-0.878,1.129
			c-0.084,0.377-0.125,0.733-0.125,1.067c0.084,0.502,0.334,0.994,0.753,1.475c0.418,0.482,0.878,0.91,1.381,1.287
			c0.585,0.461,1.213,0.878,1.882,1.255c1.59,0.878,3.546,1.516,5.867,1.914c2.322,0.398,5.052,0.596,8.19,0.596
			c4.895,0,8.701-0.899,11.421-2.698c2.72-1.799,4.079-4.456,4.079-7.97c0-1.631-0.199-2.887-0.596-3.765
			C94.779,146.163,94.644,146,94.547,145.834z"/>
	</g>
	<g>
		<path fill="#F2789B" d="M76.404,158.576c-1.449-0.248-2.671-0.646-3.664-1.195c-0.418-0.235-0.81-0.496-1.175-0.784
			c-0.314-0.235-0.601-0.503-0.862-0.804c-0.261-0.3-0.418-0.607-0.47-0.921c0-0.209,0.026-0.431,0.078-0.666
			c0.01-0.045,0.048-0.091,0.068-0.136c-0.233-0.025-0.459-0.054-0.655-0.098l-0.784-0.157c-0.104,0-0.209-0.026-0.314-0.078
			c-0.104-0.052-0.235-0.104-0.391-0.157c-0.157-0.052-0.353-0.118-0.588-0.196c-0.261-0.104-0.588-0.157-0.98-0.157
			c-0.418,0-0.758,0.092-1.019,0.274c-0.314,0.235-0.496,0.47-0.548,0.705c-0.053,0.235-0.078,0.457-0.078,0.666
			c0.052,0.314,0.209,0.621,0.47,0.921c0.261,0.301,0.548,0.568,0.862,0.804c0.365,0.288,0.757,0.548,1.175,0.784
			c0.993,0.548,2.214,0.947,3.664,1.195c1.45,0.249,3.154,0.372,5.114,0.372c0.788,0,1.528-0.041,2.226-0.115
			C77.774,158.772,77.059,158.689,76.404,158.576z"/>
		<path fill="#F2789B" d="M71.424,144.643c0.911,0.719,1.91,1.201,2.995,1.446c1.084,0.245,2.082,0.441,2.994,0.588
			c0.911,0.147,1.674,0.327,2.287,0.539c0.613,0.213,0.92,0.629,0.92,1.25v0.146c-0.094,0.556-0.33,0.997-0.707,1.323
			c-0.294,0.255-0.638,0.445-1.009,0.6c0.067,0.028,0.151,0.057,0.206,0.086c0.126,0.066,0.252,0.098,0.377,0.098l0.943,0.197
			c0.283,0.066,0.597,0.115,0.943,0.147c0.345,0.033,0.691,0.049,1.037,0.049c0.377,0,0.77-0.032,1.179-0.098
			c0.408-0.065,0.832-0.179,1.273-0.343c0.502-0.163,0.943-0.408,1.32-0.735c0.377-0.326,0.613-0.767,0.707-1.323v-0.146
			c0-0.621-0.306-1.037-0.92-1.25c-0.613-0.212-1.376-0.392-2.287-0.539c-0.912-0.147-1.91-0.343-2.994-0.588
			c-1.085-0.245-2.083-0.727-2.995-1.446c-0.724-0.555-1.226-1.29-1.509-2.205c-0.283-0.914-0.424-1.814-0.424-2.695
			c0-1.339,0.306-2.491,0.92-3.455c0.613-0.963,1.453-1.748,2.523-2.352c1.068-0.604,2.341-1.054,3.819-1.348
			c0.557-0.111,1.15-0.18,1.744-0.25c-0.966-0.117-2.014-0.191-3.204-0.191c-1.73,0-3.333,0.147-4.81,0.441
			c-1.478,0.294-2.751,0.744-3.819,1.348c-1.07,0.605-1.91,1.389-2.523,2.352c-0.613,0.964-0.92,2.116-0.92,3.455
			c0,0.882,0.142,1.781,0.424,2.695C70.198,143.353,70.701,144.088,71.424,144.643z"/>
	</g>
	<g>
		<path fill="#C91E51" d="M117.644,144.394v8.534c0,1.925-0.44,3.421-1.319,4.488s-1.882,1.851-3.012,2.353
			c-1.129,0.502-2.196,0.806-3.201,0.91c-1.004,0.105-1.631,0.157-1.882,0.157h-0.063c-2.259,0-4.027-0.324-5.302-0.973
			c-1.277-0.648-2.218-1.38-2.825-2.196c-0.606-0.816-0.983-1.621-1.129-2.416c-0.148-0.794-0.22-1.339-0.22-1.631v-8.62
			c0,0.292,0.072,0.838,0.22,1.631c0.146,0.795,0.523,1.6,1.129,2.416c0.606,0.816,1.548,1.548,2.825,2.196
			c1.275,0.649,3.043,0.973,5.302,0.973h0.063c0.251,0,0.878-0.052,1.882-0.157c1.005-0.104,2.072-0.408,3.201-0.91
			c1.13-0.502,2.134-1.286,3.012-2.353L117.644,144.394z"/>
		<path fill="#C91E51" d="M141.051,148.701c-0.627,0.921-1.579,1.736-2.855,2.448c-1.277,0.712-3.044,1.067-5.303,1.067
			c-1.924,0-3.441-0.334-4.549-1.004c-1.11-0.669-1.925-1.444-2.448-2.322c-0.524-0.878-0.848-1.735-0.973-2.573
			c-0.125-0.837-0.188-1.422-0.188-1.757v8.62c0,0.335,0.062,0.92,0.188,1.757c0.125,0.838,0.449,1.695,0.973,2.573
			c0.523,0.878,1.338,1.653,2.448,2.322c1.108,0.669,2.625,1.004,4.549,1.004c2.259,0,4.026-0.355,5.303-1.067
			c1.276-0.711,2.228-1.527,2.855-2.448c0.628-0.919,1.005-1.82,1.13-2.698s0.188-1.464,0.188-1.757v-8.62
			c0,0.292-0.063,0.878-0.188,1.757C142.055,146.881,141.678,147.782,141.051,148.701z"/>
	</g>
	<g>
		<path fill="#C91E51" d="M163.672,150.448c-0.606,0.816-1.527,1.527-2.76,2.134c-1.235,0.607-2.961,0.91-5.177,0.91
			c-2.259,0-4.038-0.292-5.334-0.878c-1.297-0.586-2.259-1.276-2.887-2.071c-0.627-0.795-1.015-1.601-1.161-2.416
			c-0.147-0.816-0.219-1.433-0.219-1.851v8.62c0,0.419,0.072,1.035,0.219,1.851c0.146,0.815,0.534,1.621,1.161,2.416
			c0.628,0.795,1.59,1.485,2.887,2.071c1.296,0.586,3.075,0.878,5.334,0.878c2.216,0,3.943-0.303,5.177-0.91
			c1.233-0.606,2.154-1.318,2.76-2.134c0.606-0.815,0.982-1.62,1.13-2.416c0.146-0.794,0.219-1.381,0.219-1.757v-0.314v-8.306
			c0,0.376-0.073,0.963-0.219,1.757C164.655,148.828,164.279,149.633,163.672,150.448z"/>
	</g>
	<g>
		<path fill="#C91E51" d="M191.315,131.632v1.027c0-0.369,0.011-0.692,0.02-1.027H191.315z"/>
		<path fill="#C91E51" d="M187.017,151.306c-1.109,0.439-2.176,0.701-3.201,0.785c-1.025,0.084-1.684,0.125-1.977,0.125h-0.125
			c-2.344,0-4.141-0.366-5.397-1.098c-1.255-0.731-2.176-1.538-2.761-2.416c-0.711-1.045-1.109-2.216-1.192-3.514v8.62
			c0.084,1.297,0.481,2.469,1.192,3.514c0.586,0.878,1.506,1.685,2.761,2.416c1.255,0.733,3.053,1.098,5.397,1.098h0.125
			c0.292,0,0.952-0.041,1.977-0.125c1.025-0.084,2.092-0.345,3.201-0.785c1.108-0.439,2.102-1.098,2.981-1.977
			s1.318-2.134,1.318-3.765v-8.62c0,1.631-0.439,2.887-1.318,3.765S188.124,150.867,187.017,151.306z"/>
	</g>
	<g>
		<path fill="#C91E51" d="M232.263,151.422c-0.188-0.46-0.482-0.878-0.879-1.255c-0.209-0.197-0.46-0.362-0.743-0.502
			c-0.014,0.012-0.026,0.029-0.04,0.041c-0.628,0.502-1.319,0.901-2.072,1.192c-0.376,0.168-0.889,0.335-1.537,0.502
			c-0.65,0.168-1.308,0.314-1.977,0.439c-0.67,0.125-1.308,0.22-1.915,0.282c-0.606,0.063-1.035,0.095-1.286,0.095
			c-5.356,0-9.424-1.202-12.205-3.608c-2.783-2.406-4.174-6.328-4.174-11.766v8.62c0,5.438,1.391,9.36,4.174,11.766
			c2.782,2.406,6.85,3.608,12.205,3.608c0.251,0,0.68-0.032,1.286-0.095c0.606-0.062,1.244-0.157,1.915-0.282
			c0.669-0.125,1.327-0.271,1.977-0.439c0.648-0.167,1.161-0.334,1.537-0.502c0.753-0.292,1.444-0.69,2.072-1.192
			c0.543-0.46,1.024-1.035,1.443-1.725c0.418-0.691,0.628-1.558,0.628-2.605v-0.314c0-0.209-0.021-0.523-0.063-0.942
			C232.565,152.322,232.45,151.883,232.263,151.422z"/>
	</g>
	<g>
		<path fill="#F2789B" d="M136.731,156.291c-0.846-0.559-1.467-1.206-1.865-1.94c-0.399-0.734-0.646-1.45-0.742-2.149
			c-0.096-0.699-0.143-1.188-0.143-1.468V143.5c0-0.209-0.024-0.507-0.072-0.891c-0.047-0.384-0.16-0.777-0.335-1.179
			c-0.175-0.402-0.43-0.752-0.765-1.049c-0.335-0.296-0.806-0.446-1.411-0.446c-0.638,0-1.148,0.14-1.53,0.42
			c-0.382,0.28-0.669,0.603-0.86,0.97c-0.192,0.367-0.311,0.752-0.359,1.153c-0.048,0.403-0.071,0.708-0.071,0.918v7.129
			c0,1.131-0.175,2.074-0.507,2.85c0.118,0.323,0.256,0.647,0.435,0.977c0.398,0.734,1.02,1.381,1.865,1.94
			c0.844,0.559,2,0.838,3.466,0.838c1.372,0,2.495-0.197,3.391-0.574C137.057,156.473,136.883,156.392,136.731,156.291z"/>
		<path fill="#F2789B" d="M111.943,156.317c-0.973-0.541-1.69-1.153-2.152-1.834c-0.462-0.682-0.749-1.354-0.86-2.018
			c-0.112-0.663-0.168-1.118-0.168-1.363v-23.852c0-0.349,0.055-0.882,0.168-1.599c0.111-0.716,0.398-1.433,0.86-2.149
			c0.462-0.716,1.163-1.345,2.104-1.887c0.224-0.129,0.472-0.241,0.738-0.34c-0.867-0.311-1.928-0.473-3.2-0.473
			c-1.658,0-2.958,0.271-3.897,0.813c-0.941,0.542-1.642,1.171-2.104,1.887c-0.462,0.717-0.749,1.433-0.86,2.149
			c-0.113,0.717-0.168,1.25-0.168,1.599v23.852c0,0.244,0.055,0.7,0.168,1.363c0.111,0.664,0.398,1.336,0.86,2.018
			c0.462,0.682,1.179,1.293,2.152,1.834c0.971,0.542,2.319,0.813,4.04,0.813h0.048c0.191,0,0.669-0.043,1.434-0.131
			c0.481-0.055,0.987-0.199,1.505-0.384C112.376,156.525,112.146,156.43,111.943,156.317z"/>
	</g>
	<g>
		<path fill="#F2789B" d="M152.066,124.519c0.316,0.315,0.682,0.56,1.1,0.736c0.417,0.176,0.86,0.264,1.329,0.264
			c0.468,0,0.912-0.088,1.329-0.264c0.257-0.108,0.485-0.252,0.699-0.413c-0.137-0.101-0.273-0.202-0.394-0.324
			c-0.316-0.315-0.565-0.686-0.749-1.114c-0.183-0.427-0.275-0.881-0.275-1.36c0-0.453,0.092-0.887,0.275-1.303
			c0.184-0.415,0.433-0.78,0.749-1.095c0.122-0.121,0.258-0.225,0.394-0.327c-0.214-0.164-0.443-0.312-0.699-0.428
			c-0.418-0.189-0.861-0.283-1.329-0.283c-0.469,0-0.912,0.094-1.329,0.283c-0.418,0.189-0.785,0.441-1.1,0.755
			c-0.316,0.315-0.565,0.679-0.749,1.095c-0.183,0.416-0.275,0.85-0.275,1.303c0,0.479,0.092,0.932,0.275,1.36
			C151.501,123.833,151.75,124.205,152.066,124.519z"/>
		<path fill="#F2789B" d="M156.852,158.084c-0.863-0.481-1.502-1.048-1.92-1.702c-0.417-0.653-0.675-1.316-0.772-1.986
			c-0.098-0.671-0.146-1.177-0.146-1.522v-13.718c0-1.444,0.292-2.569,0.876-3.377c0.584-0.807,1.252-1.409,2.003-1.805
			c0.277-0.145,0.544-0.247,0.811-0.351c-0.756-0.328-1.702-0.5-2.855-0.5h-0.083c-0.167,0-0.592,0.044-1.273,0.129
			c-0.682,0.086-1.398,0.327-2.149,0.722c-0.751,0.396-1.419,0.998-2.003,1.805c-0.584,0.808-0.876,1.934-0.876,3.377v13.718
			c0,0.344,0.048,0.851,0.146,1.522c0.097,0.67,0.355,1.332,0.772,1.986c0.417,0.653,1.057,1.22,1.92,1.702
			c0.862,0.481,2.045,0.722,3.547,0.722c1.081,0,1.983-0.137,2.713-0.405C157.306,158.31,157.069,158.205,156.852,158.084z"/>
	</g>
	<path fill="#F2789B" d="M184.941,157.913c-0.913-0.669-1.581-1.407-2.007-2.211c-0.517-0.956-0.806-2.028-0.867-3.215v-12.403
		c-0.639,0-1.141-0.115-1.505-0.344c-0.365-0.229-0.639-0.507-0.821-0.833c-0.182-0.325-0.296-0.66-0.342-1.005
		c-0.045-0.344-0.068-0.631-0.068-0.861v-0.402c0-0.765,0.106-1.358,0.319-1.78c0.213-0.421,0.471-0.737,0.776-0.947
		c0.304-0.21,0.6-0.344,0.89-0.402c0.289-0.058,0.494-0.086,0.616-0.086h0.137v-0.46c0-2.641,0.258-4.852,0.776-6.632
		c0.517-1.78,1.284-3.216,2.304-4.307c1.019-1.091,2.273-1.866,3.764-2.325c0.476-0.147,0.983-0.261,1.505-0.361
		c-0.015-0.003-0.03-0.009-0.045-0.012c-0.487-0.095-0.951-0.172-1.391-0.23c-0.441-0.057-0.769-0.086-0.981-0.086
		c-1.947,0-3.665,0.229-5.155,0.689c-1.49,0.46-2.745,1.234-3.764,2.325c-1.019,1.091-1.787,2.527-2.304,4.307
		c-0.518,1.78-0.776,3.99-0.776,6.632v0.46h-0.137c-0.122,0-0.327,0.028-0.616,0.086c-0.29,0.058-0.586,0.192-0.89,0.402
		c-0.304,0.211-0.563,0.527-0.776,0.947c-0.213,0.422-0.319,1.015-0.319,1.78v0.402c0,0.23,0.023,0.517,0.068,0.861
		c0.046,0.345,0.16,0.681,0.342,1.005c0.183,0.325,0.456,0.603,0.821,0.833c0.364,0.229,0.867,0.344,1.505,0.344v12.403
		c0.061,1.187,0.35,2.259,0.867,3.215c0.426,0.804,1.095,1.542,2.007,2.211c0.913,0.67,2.219,1.005,3.923,1.005h0.091
		c0.213,0,0.692-0.037,1.437-0.115c0.495-0.051,1.009-0.201,1.532-0.396C185.521,158.269,185.209,158.11,184.941,157.913z"/>
	<path fill="#F2789B" d="M218.421,155.365c-1.757-2.082-2.635-5.475-2.635-10.181v-9.503h-0.792c-0.608,0-1.096-0.072-1.466-0.217
		c-0.37-0.145-0.555-0.506-0.555-1.086c0-0.252,0.073-0.506,0.218-0.76c0.145-0.253,0.323-0.488,0.535-0.705
		c0.238-0.253,0.488-0.525,0.753-0.815c1.03-1.05,2.146-2.208,3.348-3.476c1.202-1.266,2.318-2.443,3.348-3.529l1.149-1.211v-0.526
		c0-1.23-0.118-2.054-0.356-2.471c-0.237-0.416-0.515-0.625-0.832-0.625c-0.371,0-0.74,0.163-1.109,0.489
		c-0.185,0.145-0.357,0.325-0.515,0.543l-3.606,3.8c-1.03,1.086-2.146,2.263-3.348,3.529c-1.202,1.268-2.318,2.426-3.348,3.476
		c-0.264,0.29-0.515,0.562-0.753,0.815c-0.212,0.217-0.39,0.452-0.535,0.705c-0.145,0.254-0.218,0.508-0.218,0.76
		c0,0.58,0.185,0.942,0.555,1.086c0.37,0.145,0.858,0.217,1.466,0.217h0.792v9.503c0,4.706,0.878,8.099,2.635,10.181
		c1.757,2.082,4.325,3.122,7.707,3.122c0.158,0,0.429-0.027,0.812-0.082c0.383-0.054,0.786-0.136,1.209-0.244
		c0.041-0.011,0.081-0.026,0.122-0.037C221.119,157.66,219.587,156.747,218.421,155.365z"/>
	<g>
		
			<ellipse transform="matrix(0.8126 0.5828 -0.5828 0.8126 92.8452 -15.081)" fill="#FFFFFF" cx="69.875" cy="136.841" rx="2.399" ry="4.71"/>
	</g>
	<g>
		
			<ellipse transform="matrix(0.8126 0.5828 -0.5828 0.8126 99.6712 -67.4179)" fill="#FFFFFF" cx="154.676" cy="121.288" rx="1.321" ry="2.594"/>
	</g>
	<g>
		
			<ellipse transform="matrix(0.8126 0.5828 -0.5828 0.8126 91.6334 -37.9301)" fill="#FFFFFF" cx="104.801" cy="123.532" rx="2.399" ry="4.71"/>
	</g>
	<g>
		
			<ellipse transform="matrix(0.8126 0.5828 -0.5828 0.8126 106.0693 -82.8282)" fill="#FFFFFF" cx="181.839" cy="123.532" rx="2.399" ry="4.71"/>
	</g>
	<g>
		
			<ellipse transform="matrix(0.8126 0.5828 -0.5828 0.8126 114.3722 -101.8175)" fill="#FFFFFF" cx="215.52" cy="126.949" rx="1.8" ry="3.532"/>
	</g>
	<g>
		
			<ellipse transform="matrix(0.8126 0.5828 -0.5828 0.8126 116.046 -98.5268)" fill="#FFFFFF" cx="211.24" cy="131.197" rx="1.25" ry="2.455"/>
	</g>
	<g>
		
			<ellipse transform="matrix(0.8126 0.5828 -0.5828 0.8126 107.2512 -63.1093)" fill="#FFFFFF" cx="151.766" cy="135.229" rx="1.815" ry="3.563"/>
	</g>
	<g>
		<g>
			<g opacity="0.13">
				
					<path fill="#010101" stroke="#010101" stroke-width="7.8476" stroke-linecap="round" stroke-linejoin="round" stroke-miterlimit="10" d="
					M253.24,178.054c-0.987-0.251-1.787-0.973-2.136-1.929l-1.325-3.622l-12.449-33.174c-0.495-1.318-0.034-2.804,1.12-3.611
					l7.686-5.374c0.735-0.514,1.658-0.682,2.527-0.461l31.643,8.047c0.904,0.23,1.655,0.856,2.044,1.704l3.799,8.294
					c0.566,1.237,0.256,2.699-0.765,3.598l-29.346,25.853C255.275,178.052,254.227,178.305,253.24,178.054z"/>
			</g>
			<g>
				<g>
					
						<path fill="#4393D0" stroke="#4393D0" stroke-width="7.8476" stroke-linecap="round" stroke-linejoin="round" stroke-miterlimit="10" d="
						M253.24,174.143c-0.987-0.251-1.787-0.973-2.136-1.929l-1.325-3.622l-12.449-33.174c-0.495-1.318-0.034-2.804,1.12-3.611
						l7.686-5.374c0.735-0.514,1.658-0.682,2.527-0.461l31.643,8.047c0.904,0.23,1.655,0.856,2.044,1.704l3.799,8.294
						c0.566,1.237,0.256,2.699-0.765,3.598l-29.346,25.853C255.275,174.141,254.227,174.394,253.24,174.143z"/>
				</g>
			</g>
		</g>
		<g>
			<path fill="#3884B6" d="M260.737,135.432l6.702-4.686l-18.775-4.774c-0.869-0.221-1.792-0.053-2.527,0.461l-7.686,5.374
				c-1.154,0.807-1.615,2.293-1.12,3.611l12.449,33.174l1.325,3.622c0.35,0.956,1.149,1.678,2.136,1.929
				c0.987,0.251,2.034-0.002,2.798-0.675l12.398-10.922l-8.82-23.503C259.122,137.724,259.583,136.238,260.737,135.432z"/>
		</g>
		
			<line fill="none" stroke="#FFFFFF" stroke-width="5.5396" stroke-linecap="round" stroke-linejoin="round" stroke-miterlimit="10" x1="279.488" y1="139.315" x2="282.307" y2="144.343"/>
	</g>
	<path fill="#E0E1E0" d="M129.907,61.122c0,0,9.906,5.686,9.906,11.474c0,0,12-0.607,17.893-2.058c0,0-11.174-3.861-14.142-3.43
		C143.564,67.107,136.718,56.706,129.907,61.122z"/>
	<path fill="#E0E1E0" d="M25.516,119.034c0,0,4.377,6.862,11.024,8.575c0,0,14.114,10.036,17.835,9.233
		c0,0-12.891,3.08-17.835-1.612C36.54,135.229,22.861,137.626,25.516,119.034z"/>
	<path fill="#E0E1E0" d="M39.794,29.84c0,0-8.554,13.372-4.573,18.886c0,0-4.034-5.244-4.469-8.41
		C30.751,40.315,29.971,22.78,39.794,29.84z"/>
	<path fill="#E0E1E0" d="M230.68,67.891c0,0,5.195,2.102,7.556,4.374l8.135-3.475C246.371,68.79,240.264,60.245,230.68,67.891z"/>
	<path fill="#E0E1E0" d="M280.097,98.355l-3.5,4.766l1.75,6.126C278.347,109.247,284.27,105.674,280.097,98.355z"/>
</g>
</svg>
