<?xml version="1.0" encoding="utf-8"?>
<!-- Generator: Adobe Illustrator 17.1.0, SVG Export Plug-In . SVG Version: 6.00 Build 0)  -->
<!DOCTYPE svg PUBLIC "-//W3C//DTD SVG 1.1//EN" "http://www.w3.org/Graphics/SVG/1.1/DTD/svg11.dtd">
<svg version="1.1" id="Layer_1" xmlns="http://www.w3.org/2000/svg" xmlns:xlink="http://www.w3.org/1999/xlink" x="0px" y="0px"
	 viewBox="0 0 557.972 232.488" enable-background="new 0 0 557.972 232.488" xml:space="preserve">
<g>
	<path fill="#242052" d="M103.27,194.878c4.986,11.844-0.473,20.384-8.474,20.384c-2.962,0-15.654-3.017-24.548-7.556
		c-5.192-2.65-11.095-5.618-17.995-10.848c-6.44-5.266-10.69-8.751-17.707-17.264c-5.651-7.613-6.519-8.781-10.449-15.817
		c-1.527-3.133-3.554-7.312-4.905-10.524c-3.14-8.822-3.798-10.658-5.688-19.855c-1.209-8.637-1.537-10.96-1.454-21.419
		c0.683-8.571,0.804-10.112,2.514-18.049c0.778-2.799,0.674-2.366,0.995-3.516c-0.943,3.393-2.638,12.303,3.232,21.517
		c4.227,6.624,7.919,15.531,31.746,35.312C68.67,162.3,96.269,178.269,103.27,194.878"/>
	<g>
		<linearGradient id="SVGID_1_" gradientUnits="userSpaceOnUse" x1="12.023" y1="147.2741" x2="94.7808" y2="147.2741">
			<stop  offset="0" style="stop-color:#2BC4F3"/>
			<stop  offset="0.5" style="stop-color:#00AEEE"/>
			<stop  offset="1" style="stop-color:#0095DA"/>
		</linearGradient>
		<path opacity="0.9" fill="url(#SVGID_1_)" d="M57.656,152.943c1.435,8.475,3.471,17.502,7.283,28.589
			c1.797,5.233,3.932,9.897,6.271,14.053c6.751,11.997,13.813,18.192,23.097,19.595l0.474,0.092c-2.962,0-15.655-3.025-24.549-7.564
			c-5.192-2.65-11.095-5.618-17.995-10.848c-6.44-5.266-10.69-8.751-17.707-17.264c-5.651-7.613-6.519-8.781-10.449-15.817
			c-1.527-3.133-3.554-7.312-4.905-10.524c-3.14-8.822-3.798-10.658-5.688-19.855c-1.21-8.637-1.537-10.96-1.454-21.419
			c0.683-8.571,0.804-10.112,2.514-18.049c0.778-2.799,0.674-2.366,0.995-3.516l0.035-0.035
			c3.002-10.047,12.043-13.345,18.778-9.607c3.23,1.794,6.212,5.195,8.804,9.677c2.819,4.891,5.174,11.064,6.872,17.841
			C54.528,126.252,55.26,138.829,57.656,152.943"/>
	</g>
	<path fill="#242052" d="M186.37,86.824c7.779-10.228,17.905-9.753,21.895-2.817c1.477,2.567,5.189,15.073,5.69,25.046
		c0.291,5.822,0.66,12.418-0.433,21.008c-1.354,8.208-2.255,13.627-6.135,23.956c-3.782,8.695-4.362,10.029-8.502,16.943
		c-1.955,2.886-4.566,6.727-6.677,9.5c-6.083,7.12-7.347,8.606-14.376,14.83c-6.884,5.354-8.735,6.796-17.841,11.939
		c-7.771,3.679-9.167,4.344-16.899,6.82c-2.814,0.72-2.388,0.594-3.545,0.89c3.412-0.874,11.981-3.847,17.04-13.528
		c3.635-6.969,9.514-14.61,14.781-45.126C175.382,133.06,175.463,101.173,186.37,86.824"/>
	<g>
		<path opacity="0.9" fill="#00599C" d="M172.768,147.26c6.632-5.472,13.441-11.735,21.15-20.567
			c3.641-4.169,6.619-8.342,9.055-12.443c7.034-11.834,8.885-21.045,5.471-29.791l-0.156-0.456
			c1.477,2.567,5.181,15.079,5.682,25.052c0.29,5.822,0.66,12.418-0.433,21.008c-1.354,8.208-2.255,13.627-6.135,23.956
			c-3.782,8.695-4.362,10.029-8.502,16.943c-1.955,2.886-4.566,6.727-6.677,9.5c-6.084,7.12-7.347,8.606-14.376,14.83
			c-6.884,5.354-8.735,6.796-17.841,11.939c-7.771,3.679-9.167,4.344-16.899,6.82c-2.814,0.72-2.388,0.594-3.545,0.89l-0.045-0.012
			c-10.209,2.404-17.573-3.785-17.691-11.489c-0.056-3.694,1.405-7.977,4.001-12.456c2.833-4.883,7.009-10.001,12.039-14.851
			C151.19,163.278,161.727,156.374,172.768,147.26"/>
	</g>
	<path fill="#242052" d="M50.565,70.612c-12.761-1.499-17.501-10.459-13.556-17.42c1.46-2.577,10.341-12.132,18.674-17.634
		c4.865-3.211,10.356-6.884,18.307-10.31c7.757-3.008,12.884-4.987,23.749-6.897c9.41-1.163,10.854-1.343,18.912-1.295
		c3.48,0.217,8.115,0.512,11.576,0.92c9.225,1.618,11.146,1.95,20.08,4.84c8.11,3.204,10.294,4.064,19.352,9.293
		c7.12,4.819,8.402,5.684,14.464,11.084c2.052,2.056,1.728,1.752,2.57,2.598c-2.488-2.493-9.404-8.36-20.313-7.794
		c-7.848,0.413-17.419-0.764-46.374,10.216C95.967,56.567,68.469,72.708,50.565,70.612"/>
	<g opacity="0.9">
		<path opacity="0.9" fill="#74CCE5" d="M109.531,51.596c-8.081-2.93-16.94-5.608-28.464-7.756
			c-5.439-1.017-10.548-1.458-15.317-1.47c-13.768-0.042-22.639,3.049-28.435,10.437l-0.314,0.366
			c1.46-2.577,10.35-12.129,18.684-17.63c4.865-3.211,10.356-6.884,18.307-10.31c7.757-3.008,12.884-4.987,23.749-6.897
			c9.41-1.163,10.854-1.343,18.912-1.294c3.48,0.217,8.115,0.512,11.576,0.92c9.225,1.618,11.146,1.95,20.08,4.84
			c8.11,3.204,10.294,4.064,19.352,9.292c7.12,4.819,8.402,5.684,14.464,11.084c2.052,2.056,1.728,1.752,2.57,2.598l0.012,0.047
			c7.263,7.566,5.675,17.057-0.897,21.074c-3.153,1.925-7.583,2.843-12.759,2.89c-5.645,0.042-12.176-0.953-18.911-2.816
			C134.296,62.03,122.993,56.468,109.531,51.596"/>
	</g>
	<g>
		<path fill="#43A9E0" d="M262.374,162.819c0-0.373,0.304-0.678,0.66-0.678h3.454c3.725,0,6.3,2.558,6.3,5.893v0.033
			c0,3.337-2.575,5.926-6.3,5.926h-3.454c-0.356,0-0.66-0.303-0.66-0.678V162.819z M266.488,172.757c2.997,0,4.91-2.031,4.91-4.656
			v-0.034c0-2.625-1.913-4.689-4.91-4.689h-2.777v9.38H266.488z"/>
		<path fill="#43A9E0" d="M309.626,162.735c0-0.374,0.305-0.678,0.66-0.678c0.373,0,0.677,0.304,0.677,0.678v10.666
			c0,0.373-0.304,0.676-0.677,0.676c-0.355,0-0.66-0.303-0.66-0.676V162.735z"/>
		<path fill="#43A9E0" d="M347.798,168.101v-0.034c0-3.251,2.386-6.129,5.942-6.129c1.794,0,2.962,0.475,4.046,1.27
			c0.153,0.119,0.27,0.305,0.27,0.542c0,0.371-0.303,0.678-0.658,0.678c-0.153,0-0.287-0.068-0.425-0.169
			c-0.847-0.644-1.794-1.083-3.284-1.083c-2.625,0-4.505,2.217-4.505,4.858v0.033c0,2.828,1.814,4.927,4.691,4.927
			c1.354,0,2.607-0.525,3.419-1.184v-2.947h-3.182c-0.322,0-0.594-0.269-0.594-0.592c0-0.34,0.271-0.61,0.594-0.61h3.81
			c0.356,0,0.66,0.305,0.66,0.677v3.606c0,0.321-0.152,0.61-0.457,0.813c-1.084,0.795-2.539,1.439-4.301,1.439
			C350.099,174.196,347.798,171.488,347.798,168.101z"/>
		<path fill="#43A9E0" d="M395.606,162.735c0-0.374,0.306-0.678,0.662-0.678c0.371,0,0.676,0.304,0.676,0.678v10.666
			c0,0.373-0.305,0.676-0.676,0.676c-0.356,0-0.662-0.303-0.662-0.676V162.735z"/>
		<path fill="#43A9E0" d="M437.435,163.377h-3.436c-0.34,0-0.627-0.271-0.627-0.61c0-0.339,0.287-0.626,0.627-0.626h8.23
			c0.337,0,0.624,0.287,0.624,0.626c0,0.339-0.287,0.61-0.624,0.61h-3.439v10.023c0,0.373-0.305,0.676-0.678,0.676
			c-0.372,0-0.678-0.303-0.678-0.676V163.377z"/>
		<path fill="#43A9E0" d="M476.981,173.112l4.808-10.515c0.171-0.372,0.425-0.592,0.847-0.592h0.068c0.406,0,0.678,0.22,0.831,0.592
			l4.808,10.499c0.052,0.119,0.084,0.237,0.084,0.337c0,0.356-0.287,0.644-0.643,0.644c-0.322,0-0.542-0.219-0.661-0.49
			l-1.236-2.727h-6.502l-1.235,2.761c-0.118,0.288-0.339,0.456-0.643,0.456c-0.339,0-0.61-0.27-0.61-0.608
			C476.896,173.368,476.914,173.249,476.981,173.112z M485.362,169.642l-2.727-6.062l-2.727,6.062H485.362z"/>
		<path fill="#43A9E0" d="M524.876,162.735c0-0.374,0.305-0.678,0.661-0.678c0.373,0,0.676,0.304,0.676,0.678v10.022h6.147
			c0.339,0,0.61,0.289,0.61,0.626c0,0.339-0.272,0.609-0.61,0.609h-6.823c-0.356,0-0.661-0.303-0.661-0.678V162.735z"/>
	</g>
	<path fill="#242052" d="M537.88,83.981v-4.723h-1.671v-0.804h4.119v0.804h-1.653v4.723H537.88z M541.84,80.084l1.437,2.135h0.448
		l1.447-2.135v3.871h0.776v-5.5h-0.628l-1.82,2.675l-1.81-2.675h-0.646v5.5h0.796V80.084z M290.023,78.404h-43.723v11.778h15.341
		v61.672h13.137V90.182h15.245V78.404z M345.733,151.854l-16.205-28.06c8.916-2.873,12.751-8.81,12.751-19.726v-3.831
		c0-15.609-8.342-22.121-26.175-22.121h-18.602v73.737h13.232v-25.951h4.891l14.67,25.951H345.733z M310.638,113.741V90.278h5.659
		c10.259,0,12.081,3.639,12.081,10.63v2.489c0,6.991-2.685,10.343-12.273,10.343H310.638z M367.785,78.212h-13.326v73.738h13.326
		V78.212z M418.987,78.404h-43.724v11.778h15.341v61.672h13.137V90.182h15.246V78.404z M447.656,152.524
		c17.546,0,25.217-6.8,25.217-22.024V99.28c0-15.609-7.382-22.025-25.217-22.025c-17.835,0-24.643,6.416-24.643,22.025v31.219
		C423.013,145.724,430.108,152.524,447.656,152.524z M447.656,140.841c-9.589,0-11.411-4.022-11.411-11.013V99.95
		c0-6.704,1.822-11.012,11.411-11.012c10.259,0,11.985,4.309,11.985,11.012v29.878C459.642,136.819,457.243,140.841,447.656,140.841
		z M531.938,78.212h-13.136v17.429l1.438,31.124l-21.67-48.553h-13.136v73.642h13.136v-18.771l-1.149-27.962l21.67,46.732h12.848
		V78.212z"/>
</g>
</svg>
