<svg xmlns="http://www.w3.org/2000/svg" xmlns:xlink="http://www.w3.org/1999/xlink" viewBox="0 0 152.1 156.3" enable-background="new 0 0 152.1 156.3"><g><defs><path id="a" d="M0-38.5h165.2v194.8h-165.2z"/></defs><clipPath id="b"><use xlink:href="#a" overflow="visible"/></clipPath><path clip-path="url(#b)" d="M117.8 129.6c-.8-1.1-.6-2.7.5-3.5 18-13.1 28.3-33.9 27.6-55.4-.3-7.2-1.7-14.2-4.3-20.9-.5-1.3.1-2.7 1.4-3.2 1.3-.5 2.7.1 3.2 1.4 2.8 7.2 4.3 14.8 4.6 22.5.8 23.2-10.3 44.5-29.6 58.7M35 132.2c-20.3-12.7-32.8-33.2-33.6-56.3-.3-7.6.7-15.1 2.9-22.3.4-1.3 1.8-2.1 3.1-1.7 1.3.4 2 1.8 1.6 3.1-2 6.7-2.9 13.7-2.7 20.7.8 21.5 12.5 41.4 31.3 53.3 1.2.7 1.5 2.3.8 3.4"/><text transform="matrix(.651 -.759 .759 .651 16.988 47.42)" font-family="'PrestigeEliteStd-Bd'" font-size="26" clip-path="url(#b)">C</text><text transform="matrix(.797 -.604 .604 .797 26.531 36.157)" font-family="'PrestigeEliteStd-Bd'" font-size="26">O</text><text transform="matrix(.907 -.422 .422 .907 38.251 27.174)" font-family="'PrestigeEliteStd-Bd'" font-size="26">G</text><text transform="matrix(.975 -.223 .223 .975 51.623 20.863)" font-family="'PrestigeEliteStd-Bd'" font-size="26">N</text><text transform="matrix(1 -.014 .014 1 66.019 17.488)" font-family="'PrestigeEliteStd-Bd'" font-size="26">I</text><text transform="matrix(.981 .195 -.195 .981 80.8 17.188)" font-family="'PrestigeEliteStd-Bd'" font-size="26">T</text><text transform="matrix(.918 .397 -.397 .918 95.287 19.983)" font-family="'PrestigeEliteStd-Bd'" font-size="26">I</text><text transform="matrix(.816 .578 -.578 .816 108.9 25.778)" font-family="'PrestigeEliteStd-Bd'" font-size="26">O</text><text transform="matrix(.678 .735 -.735 .678 121.029 34.251)" font-family="'PrestigeEliteStd-Bd'" font-size="26">N</text></g><g><defs><path id="c" d="M0-38.5h165.2v194.8h-165.2z"/></defs><clipPath id="d"><use xlink:href="#c" overflow="visible"/></clipPath><path clip-path="url(#d)" fill="#010101" d="M120.1 73.3c0-24.1-19.6-43.6-43.7-43.6s-43.7 19.5-43.7 43.6c0 14.2 6.8 26.8 17.3 34.7.2.1.4.3.6.5h.1c3.4 2.7 8.2 8.9 8.2 17.1v30.6h34.9v-30.6c0-8.7 5-15 8.7-17.5 10.7-7.9 17.6-20.5 17.6-34.8m-56.8 65.5h26.2v13.2h-26.2v-13.2zm10.9-57.1v52.7h-10.9v-8.7c0-9.4-5.3-16.9-9.9-20.5l-.1-.1-.4-.3c-.1-.1-.2-.1-.2-.2-9.9-7.5-15.6-18.9-15.6-31.3 0-21.7 17.6-39.3 39.3-39.3 21.7 0 39.3 17.6 39.3 39.3 0 12.4-5.7 23.9-15.7 31.4l-.2.1c-4.8 3.4-10.3 10.8-10.3 20.8v8.7h-10.9v-52.6"/><path clip-path="url(#d)" d="M91.4 60c-.2-.5-.2-.5-.1-.9.2-.6.5-1.6.2-3.8-.3-3.1-4-5.8-7.1-7.5-1.2-.7-3.4-1.4-4.2-1.4h-.4c-1.5 0-2.6.5-3.4 1.2-.8-.7-1.8-1.2-3.4-1.2h-.4c-.8 0-3 .8-4.2 1.4-3 1.7-6.8 4.4-7.1 7.5-.2 2.2 0 3.2.2 3.8.1.4.1.4-.1.9-.2.4-.5.8-.7 1.3-.8 1.3-2 3-.7 5.4.3.6.7 1.1.9 1.5.8 1.2 1.2 1.8 1.3 4.4.2 4.3 2 5.3 3.9 6.4.2.1.4.2.7.4.5.3.7.6 1 1.2.7 1.1 1.5 2.7 5 3.2h.7c1.2 0 2.1-.3 2.9-.9.7.6 1.7.9 2.9.9h.7c3.5-.5 4.3-2.1 5-3.2.3-.6.5-.9 1-1.2l.3-.2c2.1-1.2 4.2-2.5 4.4-7.1.1-1.7 0-2.5-.1-3v-.2c0-.1.3-.7.6-1.1 1.2-2.2 1.3-5.1.2-7.8m-17.9 21.2h-.3c-2.1-.3-2.5-.9-3-1.9-.4-.7-.9-1.5-2-2.2l-.7-.4c-1.1-.7-1.8-1.1-2.2-2.2l.6-.3c.4-.2.8-.3 1.2-.4l.6-.1h.4c.3.1.6.3 1 .7l.6.5c.2.1.4.3.8.5.3.1.7.1.9 0 .3-.1.5-.2.7-.3.2-.1.4-.2.4-.1v.2l-.1.7c0 .2 0 .5.2.7-.1-.2-.1-.5 0-.7.1-.2.2-.4.3-.7 0-.1.1-.3 0-.5l-.1-.3-.1-.1-.1-.1c-.2-.1-.4-.1-.5 0l-.4.1c-.5.1-.9.2-1.1.1 0 0-.1 0-.1-.1l-.1-.1-.2-.2-.4-.6c-.1-.1-.2-.2-.3-.4 0 0 .1 0 .1-.1.4-.2.7-.4 1.1-.5.4-.1.7-.2 1 0 .2.1.3.2.4.4l.2.3.1.1c.1 0 .1 0 .2-.1-.1.1-.2 0-.2-.1l-.1-.3-.3-.6c-.2-.2-.4-.4-.7-.4-.3-.1-.5-.1-.7-.1-.5 0-.9.1-1.4.2l-.8.2-.3-.1-.2-.1-.3-.1c0 .3-.3.3-.6.2h-1.6c-.2 0-.3 0-.5.1-.2-2.6-.8-3.8-1.5-4.8h.5l.8-.1h.1-.1c.8.5 1.7 1 2.7 1.2.5.1 1.1.1 1.6 0 .3-.1.6-.3.8-.5l.5-.6c.3-.5.3-1 .5-1.2.1-.1.2-.2.4-.3.2-.1.3-.1.5 0l.5.4c.1.1.3.1.4 0 .1 0 .3-.1.3-.2.4-.3.5-.8.6-1.3-.2.4-.4.9-.7 1.1-.1.1-.2.1-.3.1-.1 0-.2 0-.2-.1-.1-.1-.2-.3-.5-.5-.2-.2-.6-.3-.9-.2-.2.1-.5.2-.7.4s-.3.5-.4.7l-.3.6c-.1.2-.2.3-.4.4l-.4.2c-.3 0-.7 0-1.1-.2-.6-.2-1.1-.5-1.6-.9l.6-.8.4-.6.2-.2.1-.1s.1 0 .1-.1c.2-.1.6-.1 1.1.1.1 0 .2.1.4.1h.5l.1-.1.1-.1c.1-.1.1-.2.1-.3v-.5c-.1-.3-.2-.5-.3-.7-.1-.2-.1-.4 0-.7-.2.2-.2.5-.2.7l.1.7v.2s-.2-.1-.4-.1c-.2-.1-.4-.2-.7-.3-.3-.1-.6-.1-.9 0-.3.1-.5.3-.7.5l-.6.5c-.4.3-.7.6-1 .7h-.4c-.2 0-.4 0-.6-.1-.4-.1-.8-.2-1.2-.4l-.7-.3c0-.5.3-1 .8-1.7.3-.5.7-1 1-1.7.6-1.3.5-1.9.2-2.7-.1-.3-.2-.6-.2-1l.3.2.7.3c.1 0 .2.1.4.1h.30000000000000004l.5.8.9 1.1c.2.2.4.3.6.4.2.1.5.2.8.1.3 0 .5-.1.7-.3l.3-.2c.1-.1.2-.1.2.1 0-.1 0-.1-.1-.2h-.2l-.3.1c-.2 0-.4.1-.6 0-.4-.1-.5-.3-.7-.7-.2-.3-.3-.7-.5-1.1-.1-.2-.1-.4-.2-.5.2-.1.4-.3.5-.4.4-.3.7-.5 1-.6h.4c.1 0 .2.1.4.3.1.2.2.4.5.6.1.1.5.2.6.1h.1l.1-.1.2-.1c.2-.2.3-.4.4-.6.1-.2.2-.4.4-.5-.5.1-.8.6-1.1.8h-.2c-.1-.1-.2-.3-.3-.5-.1-.2-.3-.5-.6-.6-.1-.1-.3-.1-.5-.2h-.5c-.5.1-1 .3-1.4.4-.4.2-.8.3-1 .2 0 0-.1-.1-.2-.1-.2-.1-.3-.2-.5-.4-.3-.3-.6-.5-.8-.9l-.2-.3c.7-1.3 2.7-3 5.4-4.5.9-.5 2.6-1 3-1.1h.3c1.7 0 2 1 2 1.5v29.8c-.1.5-.4 1-1.5 1m11.3-4.2l-.3.2c-1.1.6-1.6 1.5-2 2.2-.5.9-.9 1.5-3 1.9h-.3c-1.1 0-1.4-.5-1.5-.8v-29.9c0-.5.3-1.5 2-1.5h.2c.4 0 2.1.6 3 1.1 3.4 1.9 5.6 4 5.7 5.4v.4h-.2c-.6-.1-1.1-.1-1.7 0-.3 0-.6.1-.8.1h-.4l-.2.1-.9-.2c-.5-.1-1-.2-1.5-.1h-.8c-.1 0-.3 0-.4-.1-.1-.1-.2-.3-.3-.5-.1-.2-.2-.4-.4-.6l.4 1.3c.1.2.4.5.7.5h.30000000000000004c.1 0 .2 0 .3.1.4.1.8.3 1.2.5l.2.1c-.1.2-.2.4-.4.5l-.4.6c-.1.2-.2.2-.4.3-.3.1-.7-.1-1.3-.2-.1 0-.3-.1-.5 0-.1 0-.2.1-.3.2-.1.1-.1.1-.1.2-.2.2-.3.4-.4.6-.2.4-.4.9-.7 1.3.3-.4.6-.8 1-1.1l.5-.5.1-.1s.1 0 .2.1c.4.1.9.5 1.6.4.3 0 .7-.3.9-.4l.6-.5c.4-.3.7-.7 1-.8h.30000000000000004c.2 0 .4 0 .6.1.4.1.8.2 1.2.4l.5.2c-.2.7-.3 1.4.3 2.6.3.6.7 2 .5 3.6-.5-.1-1.1-.1-1.6 0l-.8.1h-.1.1c-.8-.5-1.7-1-2.7-1.2-.5-.1-1.1-.1-1.6 0-.3.1-.6.3-.8.5l-.5.6c-.3.5-.3 1-.5 1.2-.1.1-.2.2-.4.3-.2.1-.3.1-.5 0l-.5-.4c-.1-.1-.3-.1-.4 0-.1 0-.3.1-.3.2-.4.3-.5.8-.6 1.3.2-.4.4-.9.7-1.1.1-.1.2-.1.3-.1.1 0 .2 0 .2.1.1.1.2.3.5.5.2.2.6.3.9.2.2-.1.5-.2.7-.4.2-.2.3-.5.4-.7l.3-.6c.1-.2.2-.3.4-.4l.4-.2c.3 0 .7 0 1.1.2.6.2 1.1.5 1.6.9l-.6.8-.4.6-.2.2-.1.1s-.1 0-.1.1c-.2.1-.6.1-1.1-.1-.1 0-.2-.1-.4-.1h-.5c-.1 0-.1.1-.1.1l-.1.1c-.1.1-.1.2-.1.3v.5c.1.3.2.5.3.7.1.2.1.4 0 .7.2-.2.2-.5.2-.7l-.1-.7v-.2s.2.1.4.1c.2.1.4.2.7.3.3.1.6.1.9 0 .3-.1.5-.3.7-.5l.6-.5c.4-.3.7-.6 1-.7h.4c.2 0 .4 0 .6.1l.9.3c-.7 1.3-.9 1.6-.7 2.7 0 .4.1 1.1 0 2.5-.1 1-.2 1.7-.4 2.3l-.6-.6-.6-.5c-.1-.1-.2-.1-.4-.2l.4-.4-.2-.1-.3-.1c-.4-.1-.7 0-1 0-.3.1-.5.1-.7.2-.4.2-.8.3-1.2.3h-.2c-.1 0-.1 0-.2-.1s-.2-.2-.3-.4c-.1-.2-.1-.4-.3-.7 0 0-.2-.1-.4-.1 0 0-.1 0-.2.1l-.2.1c-.2.1-.4.3-.5.5-.2.2-.3.3-.5.4.5 0 .9-.4 1.3-.4h.2c0 .1.1.3.1.6.1.2.1.5.4.8l.4.3c.1 0 .2.1.2.1h.2c.5.1 1.1 0 1.5 0 .4-.1.9-.1 1 0l.2.2.3.5c.2.3.4.7.5 1.1v.1c-.3.1-.7.3-1.1.6"/></g></svg>