<?xml version="1.0" encoding="utf-8"?>
<!-- Generator: Adobe Illustrator 19.0.1, SVG Export Plug-In . SVG Version: 6.00 Build 0)  -->
<!DOCTYPE svg PUBLIC "-//W3C//DTD SVG 1.1//EN" "http://www.w3.org/Graphics/SVG/1.1/DTD/svg11.dtd">
<svg version="1.1" id="Layer_1" xmlns="http://www.w3.org/2000/svg" xmlns:xlink="http://www.w3.org/1999/xlink" x="0px" y="0px"
	 viewBox="0 0 879 403.5" enable-background="new 0 0 879 403.5" xml:space="preserve">
<path d="M798.7,141.6H70.9c-10.1,0-18.3-8.2-18.3-18.3v0c0-10.1,8.2-18.3,18.3-18.3h727.8c10.1,0,18.3,8.2,18.3,18.3v0
	C817,133.3,808.8,141.6,798.7,141.6z"/>
<path d="M746.6,194.9H123c-9.4,0-17-7.7-17-17v-2.7c0-9.4,7.7-17,17-17h623.6c9.4,0,17,7.7,17,17v2.7
	C763.6,187.2,756,194.9,746.6,194.9z"/>
<rect x="257.6" y="253.9" fill="none" stroke="#000000" stroke-width="3" stroke-miterlimit="10" width="354.4" height="40"/>
<path fill="none" stroke="#000000" stroke-width="10" stroke-miterlimit="10" d="M832.6,384H47.9C31.4,384,18,370.6,18,354.1V49.4
	c0-16.5,13.4-29.9,29.9-29.9h784.7c16.5,0,29.9,13.4,29.9,29.9v304.7C862.5,370.6,849.1,384,832.6,384z"/>
</svg>
