<?xml version="1.0" encoding="utf-8"?>
<!-- Generator: Adobe Illustrator 17.1.0, SVG Export Plug-In . SVG Version: 6.00 Build 0)  -->
<!DOCTYPE svg PUBLIC "-//W3C//DTD SVG 1.1//EN" "http://www.w3.org/Graphics/SVG/1.1/DTD/svg11.dtd">
<svg version="1.1" id="Layer_1" xmlns="http://www.w3.org/2000/svg" xmlns:xlink="http://www.w3.org/1999/xlink" x="0px" y="0px"
	 viewBox="228 0 507 560" enable-background="new 228 0 507 560" xml:space="preserve">
<g id="inner_1_">
	<g id="inner">
		<g>
			<defs>
				<rect id="SVGID_1_" x="234.3" y="-125.1" width="533.8" height="629.5"/>
			</defs>
			<clipPath id="SVGID_2_">
				<use xlink:href="#SVGID_1_"  overflow="visible"/>
			</clipPath>
			<path clip-path="url(#SVGID_2_)" fill="#640D0D" d="M622.3,236.2c0-77.9-63.3-140.9-141.2-140.9s-141.2,63-141.2,140.9
				c0,45.9,22,86.6,55.9,112.1l0,0c0.6,0.3,1.3,1,1.9,1.6c0,0,0,0,0.3,0c11,8.7,26.5,28.8,26.5,55.3v98.9h112.8v-98.9
				c0-28.1,16.2-48.5,28.1-56.5l0,0C600,323.1,622.3,282.4,622.3,236.2 M438.8,447.5h84.7v42.7h-84.7V447.5z M474,263.4v170.3h-35.2
				v-28.1c0-30.4-17.1-54.6-32-66.2l-0.3-0.3c-0.3-0.3-1-0.6-1.3-1c-0.3-0.3-0.6-0.3-0.6-0.6c-32-24.2-50.4-61.1-50.4-101.1
				c0-70.1,56.9-127,127-127s127,56.9,127,127c0,40.1-18.4,77.2-50.7,101.5c-0.3,0-0.3,0.3-0.6,0.3c-15.5,11-33.3,34.9-33.3,67.2
				v28.1h-35.2v-170"/>
		</g>
		<g>
			<defs>
				<rect id="SVGID_3_" x="234.3" y="-125.1" width="533.8" height="629.5"/>
			</defs>
			<clipPath id="SVGID_4_">
				<use xlink:href="#SVGID_3_"  overflow="visible"/>
			</clipPath>
			<path clip-path="url(#SVGID_4_)" fill="#640D0D" d="M529.6,193.2c-0.6-1.6-0.6-1.6-0.3-2.9c0.6-1.9,1.6-5.2,0.6-12.3
				c-1-10-12.9-18.7-22.9-24.2c-3.9-2.3-11-4.5-13.6-4.5c-0.3,0-1,0-1.3,0c-4.8,0-8.4,1.6-11,3.9c-2.6-2.3-5.8-3.9-11-3.9
				c-0.3,0-1,0-1.3,0c-2.6,0-9.7,2.6-13.6,4.5c-9.7,5.5-22,14.2-22.9,24.2c-0.6,7.1,0,10.3,0.6,12.3c0.3,1.3,0.3,1.3-0.3,2.9
				c-0.6,1.3-1.6,2.6-2.3,4.2c-2.6,4.2-6.5,9.7-2.3,17.4c1,1.9,2.3,3.6,2.9,4.8c2.6,3.9,3.9,5.8,4.2,14.2
				c0.6,13.9,6.5,17.1,12.6,20.7c0.6,0.3,1.3,0.6,2.3,1.3c1.6,1,2.3,1.9,3.2,3.9c2.3,3.6,4.8,8.7,16.2,10.3c0.3,0,1,0,2.3,0
				c3.9,0,6.8-1,9.4-2.9c2.3,1.9,5.5,2.9,9.4,2.9c1.3,0,2.3,0,2.3,0c11.3-1.6,13.9-6.8,16.2-10.3c1-1.9,1.6-2.9,3.2-3.9l1-0.6
				c6.8-3.9,13.6-8.1,14.2-22.9c0.3-5.5,0-8.1-0.3-9.7c0-0.3,0-0.6,0-0.6c0-0.3,1-2.3,1.9-3.6C532.8,211,533.2,201.6,529.6,193.2
				 M471.8,261.7c-0.6,0-1,0-1,0c-6.8-1-8.1-2.9-9.7-6.1c-1.3-2.3-2.9-4.8-6.5-7.1c-0.6-0.3-1.6-1-2.3-1.3c-3.6-2.3-5.8-3.6-7.1-7.1
				c0.6-0.3,1.3-0.6,1.9-1c1.3-0.6,2.6-1,3.9-1.3c0.6,0,1.3-0.3,1.9-0.3h0.3l0,0l0,0l0,0l0,0c0,0,0.3,0,0,0l0,0h0.6h0.3
				c1,0.3,1.9,1,3.2,2.3c0.6,0.6,1.3,1,1.9,1.6c0.6,0.3,1.3,1,2.6,1.6c1,0.3,2.3,0.3,2.9,0c1-0.3,1.6-0.6,2.3-1
				c0.6-0.3,1.3-0.6,1.3-0.3l0,0l0,0l0,0l0,0c0,0,0,0.3,0,0.6c0,0.6-0.3,1.6-0.3,2.3s0,1.6,0.6,2.3c-0.3-0.6-0.3-1.6,0-2.3
				c0.3-0.6,0.6-1.3,1-2.3c0-0.3,0.3-1,0-1.6c0-0.3-0.3-0.6-0.3-1l0,0c0,0,0,0-0.3-0.3l-0.3-0.3c-0.6-0.3-1.3-0.3-1.6,0
				c-0.3,0-1,0.3-1.3,0.3c-1.6,0.3-2.9,0.6-3.6,0.3c0,0-0.3,0-0.3-0.3l-0.3-0.3l-0.3,0c-0.3-0.6-1-1.3-1.3-1.9
				c-0.3-0.3-0.6-0.6-1-1.3c0,0,0.3,0,0.3-0.3c1.3-0.6,2.3-1.3,3.6-1.6c1.3-0.3,2.3-0.6,3.2,0c0.6,0.3,1,0.6,1.3,1.3
				c0.3,0.3,0.3,0.6,0.6,1l0.3,0.3c0.3,0,0.3,0,0.6-0.3c-0.3,0.3-0.6,0-0.6-0.3s-0.3-0.6-0.3-1c-0.3-0.6-0.6-1.3-1-1.9
				c-0.6-0.6-1.3-1.3-2.3-1.3c-1-0.3-1.6-0.3-2.3-0.3c-1.6,0-2.9,0.3-4.5,0.6c-1,0.3-1.6,0.3-2.6,0.6c-0.3,0-0.6-0.3-1-0.3L454,232
				l-1-0.3c-1-0.3-1.6-0.3-2.6-0.3c-1.6,0-3.6,0-5.2,0c-0.6,0-1,0-1.6,0.3c-0.6-8.4-2.6-12.3-4.8-15.5c0.6,0,1,0,1.6,0
				c1,0,1.6-0.3,2.6-0.3l0,0h0.3H443l0,0c2.6,1.6,5.5,3.2,8.7,3.9c1.6,0.3,3.6,0.3,5.2,0c1-0.3,1.9-1,2.6-1.6c0.6-0.6,1-1.3,1.6-1.9
				c1-1.6,1-3.2,1.6-3.9c0.3-0.3,0.6-0.6,1.3-1c0.6-0.3,1-0.3,1.6,0s1,1,1.6,1.3c0.3,0.3,1,0.3,1.3,0c0.3,0,1-0.3,1-0.6
				c1.3-1,1.6-2.6,1.9-4.2c-0.6,1.3-1.3,2.9-2.3,3.6c-0.3,0.3-0.6,0.3-1,0.3c-0.3,0-0.6,0-0.6-0.3c-0.3-0.3-0.6-1-1.6-1.6
				c-0.6-0.6-1.9-1-2.9-0.6c-0.6,0.3-1.6,0.6-2.3,1.3c-0.6,0.6-1,1.6-1.3,2.3s-0.6,1.3-1,1.9s-0.6,1-1.3,1.3
				c0.6,0.6,0.3,0.6-0.3,0.6c-1,0-2.3,0-3.6-0.6c-1.9-0.6-3.6-1.6-5.2-2.9c0.6-1,1.3-1.6,1.9-2.6c0.3-0.6,1-1.3,1.3-1.9l0.6-0.6
				l0.3-0.3c0,0,0.3,0,0.3-0.3c0.6-0.3,1.9-0.3,3.6,0.3c0.3,0,0.6,0.3,1.3,0.3c0.3,0,1,0,1.6,0l0.3-0.3c0,0,0,0,0.3-0.3l0,0
				c0.3-0.3,0.3-0.6,0.3-1c0-0.6,0-1,0-1.6c-0.3-1-0.6-1.6-1-2.3s-0.3-1.3,0-2.3c-0.6,0.6-0.6,1.6-0.6,2.3s0.3,1.6,0.3,2.3
				c0,0.3,0,0.6,0,0.6l0,0l0,0l0,0l0,0c0,0-0.6-0.3-1.3-0.3c-0.6-0.3-1.3-0.6-2.3-1c-1-0.3-1.9-0.3-2.9,0s-1.6,1-2.3,1.6
				s-1.3,1-1.9,1.6c-1.3,1-2.3,1.9-3.2,2.3c-0.3,0-0.3,0-0.3,0H444l0,0c0.3,0,0,0,0,0l0,0l0,0l0,0l0,0h-0.3c-0.6,0-1.3,0-1.9-0.3
				c-1.3-0.3-2.6-0.6-3.9-1.3c-0.6-0.3-1.6-0.6-2.3-1c0-1.6,1-3.2,2.6-5.5c1-1.6,2.3-3.2,3.2-5.5c1.9-4.2,1.6-6.1,0.6-8.7
				c-0.3-1-0.6-1.9-0.6-3.2c0.3,0.3,0.6,0.3,1,0.6c0.6,0.3,1.6,0.6,2.3,1c0.3,0,0.6,0.3,1.3,0.3h0.6c0,0,0,0,0.3,0
				c0.6,1,1,1.6,1.6,2.6c1,1.3,1.9,2.3,2.9,3.6c0.6,0.6,1.3,1,1.9,1.3c0.6,0.3,1.6,0.6,2.6,0.3c1,0,1.6-0.3,2.3-1
				c0.3-0.3,0.6-0.3,1-0.6s0.6-0.3,0.6,0.3c0-0.3,0-0.3-0.3-0.6c-0.3,0-0.3,0-0.6,0c-0.3,0-0.6,0.3-1,0.3c-0.6,0-1.3,0.3-1.9,0
				c-1.3-0.3-1.6-1-2.3-2.3c-0.6-1-1-2.3-1.6-3.6c-0.3-0.6-0.3-1.3-0.6-1.6c0.6-0.3,1.3-1,1.6-1.3c1.3-1,2.3-1.6,3.2-1.9h0.3
				c0,0,0,0,0.3,0c0.3,0,0.3,0,0.6,0c0.3,0,0.6,0.3,1.3,1c0.3,0.6,0.6,1.3,1.6,1.9c0.3,0.3,1.6,0.6,1.9,0.3h0.3l0.3-0.3
				c0.3,0,0.3-0.3,0.6-0.3c0.6-0.6,1-1.3,1.3-1.9c0.3-0.6,0.6-1.3,1.3-1.6c-1.6,0.3-2.6,1.9-3.6,2.6h-0.3h-0.3c-0.3,0,0,0,0,0
				c-0.3-0.3-0.6-1-1-1.6s-1-1.6-1.9-1.9c-0.3-0.3-1-0.3-1.6-0.6c-0.3,0-0.6,0-1,0c-0.3,0-0.3,0-0.6,0c-1.6,0.3-3.2,1-4.5,1.3
				c-1.3,0.6-2.6,1-3.2,0.6l0,0l0,0l0,0c0,0-0.3-0.3-0.6-0.3c-0.6-0.3-1-0.6-1.6-1.3c-1-1-1.9-1.6-2.6-2.9c-0.3-0.3-0.3-0.6-0.6-1
				c2.3-4.2,8.7-9.7,17.4-14.5c2.9-1.6,8.4-3.2,9.7-3.6c0.3,0,0.6,0,1,0c5.5,0,6.5,3.2,6.5,4.8v96.3
				C476.3,260.1,475.3,261.7,471.8,261.7 M508.3,248.2l-1,0.6c-3.6,1.9-5.2,4.8-6.5,7.1c-1.6,2.9-2.9,4.8-9.7,6.1c0,0-0.3,0-1,0
				c-3.6,0-4.5-1.6-4.8-2.6v-96.6c0-1.6,1-4.8,6.5-4.8c0.3,0,0.6,0,0.6,0c1.3,0,6.8,1.9,9.7,3.6c11,6.1,18.1,12.9,18.4,17.4
				c0,0.6,0,1,0,1.3c0,0-0.3,0-0.6,0c-1.9-0.3-3.6-0.3-5.5,0c-1,0-1.9,0.3-2.6,0.3h-0.3l0.6,0.3l0,0l0,0l0,0h-0.3h-0.3l-0.6,0.3l0,0
				c-1,0-1.9-0.3-2.9-0.3c-1.6-0.3-3.2-0.6-4.8-0.3c-0.3,0-1,0-1.3,0c-0.3,0-0.3,0-0.6,0h-0.3h-0.3c-0.3,0-1,0-1.3-0.3
				c-0.3-0.3-0.6-1-1-1.6c-0.3-0.6-0.6-1.3-1.3-1.9c0.6,1.3,0.6,2.9,1.3,4.2c0.3,0.6,1.3,1.6,2.3,1.6h0.3c0,0,0,0,0.3,0h0.3
				c0.3,0,0.6,0,1,0.3c1.3,0.3,2.6,1,3.9,1.6c0.3,0,0.3,0.3,0.6,0.3c-0.3,0.6-0.6,1.3-1.3,1.6c-0.3,0.6-1,1.3-1.3,1.9
				c-0.3,0.6-0.6,0.6-1.3,1c-1,0.3-2.3-0.3-4.2-0.6c-0.3,0-1-0.3-1.6,0c-0.3,0-0.6,0.3-1,0.6c-0.3,0.3-0.3,0.3-0.3,0.6
				c-0.6,0.6-1,1.3-1.3,1.9c-0.6,1.3-1.3,2.9-2.3,4.2c1-1.3,1.9-2.6,3.2-3.6c0.6-0.6,1-1,1.6-1.6l0.3-0.3l0,0c0,0,0.3,0,0.6,0.3
				c1.3,0.3,2.9,1.6,5.2,1.3c1,0,2.3-1,2.9-1.3c0.6-0.6,1.3-1,1.9-1.6c1.3-1,2.3-2.3,3.2-2.6c0.3,0,0.3,0,0.6,0l0,0l0,0h0.3l0,0l0,0
				l0,0c0,0-0.3,0,0,0l0,0l0,0c0.6,0,1.3,0,1.9,0.3c1.3,0.3,2.6,0.6,3.9,1.3c0.6,0.3,1,0.3,1.6,0.6c-0.6,2.3-1,4.5,1,8.4
				c1,1.9,2.3,6.5,1.6,11.6l0,0c-1.6-0.3-3.6-0.3-5.2,0c-1,0-1.6,0.3-2.6,0.3l0,0h-0.3h0.3l0,0c-2.6-1.6-5.5-3.2-8.7-3.9
				c-1.6-0.3-3.6-0.3-5.2,0c-1,0.3-1.9,1-2.6,1.6c-0.6,0.6-1,1.3-1.6,1.9c-1,1.6-1,3.2-1.6,3.9c-0.3,0.3-0.6,0.6-1.3,1
				c-0.6,0.3-1,0.3-1.6,0s-1-1-1.6-1.3c-0.3-0.3-1-0.3-1.3,0c-0.3,0-1,0.3-1,0.6c-1.3,1-1.6,2.6-1.9,4.2c0.6-1.3,1.3-2.9,2.3-3.6
				c0.3-0.3,0.6-0.3,1-0.3c0.3,0,0.6,0,0.6,0.3c0.3,0.3,0.6,1,1.6,1.6c0.6,0.6,1.9,1,2.9,0.6c0.6-0.3,1.6-0.6,2.3-1.3
				c0.6-0.6,1-1.6,1.3-2.3c0.3-0.6,0.6-1.3,1-1.9c0.3-0.6,0.6-1,1.3-1.3c0.3-0.3,1-0.3,1.3-0.6c1,0,2.3,0,3.6,0.6
				c1.9,0.6,3.6,1.6,5.2,2.9c-0.6,1-1.3,1.6-1.9,2.6c-0.3,0.6-1,1.3-1.3,1.9l-0.6-0.3h-0.3c0,0-0.3,0-0.3,0.3
				c-0.6,0.3-1.9,0.3-3.6-0.3c-0.3,0-0.6-0.3-1.3-0.3c-0.3,0-1,0-1.6,0c-0.3,0.3-0.3,0.3-0.6,0.6c0,0,0,0-0.3,0.3l0,0
				c-0.3,0.3-0.3,0.6-0.3,1c0,0.6,0,1,0,1.6c0.3,1,0.6,1.6,1,2.3c0.3,0.6,0.3,1.3,0,2.3c0.6-0.6,0.6-1.6,0.6-2.3
				c0-0.6-0.3-1.6-0.3-2.3c0-0.3,0-0.6,0-0.6l0,0l0,0l0,0l0,0c0,0,0.6,0.3,1.3,0.3c0.6,0.3,1.3,0.6,2.3,1c1,0.3,1.9,0.3,2.9,0
				c1-0.3,1.6-1,2.3-1.6s1.3-1,1.9-1.6c1.3-1,2.3-1.9,3.2-2.3c0.3,0,0.3,0,0.3,0h0.6l0,0c0,0-0.3,0,0,0l0,0l0,0l0,0l0,0h0.3
				c0.6,0,1.3,0,1.9,0.3c1,0.3,1.9,0.6,2.9,1c-2.3,4.2-2.9,5.2-2.3,8.7c0,1.3,0.3,3.6,0,8.1c-0.3,3.2-0.6,5.5-1.3,7.4
				c-0.6-0.6-1.3-1.3-1.9-1.9c-0.6-0.6-1.3-1-1.9-1.6c-0.3-0.3-0.6-0.3-1.3-0.6l-0.3-0.3c-0.3,0-0.3-0.3-0.6-0.3
				c-0.3,0-0.6-0.3-1-0.3c-1.3-0.3-2.3,0-3.2,0c-1,0.3-1.6,0.3-2.3,0.6c-1.3,0.6-2.6,1-3.9,1h-0.3c0,0,0,0-0.3,0s-0.3,0-0.6-0.3
				c-0.3-0.3-0.6-0.6-1-1.3c-0.3-0.6-0.3-1.3-1-2.3c-0.3-0.6-1.3-1-1.9-0.6c0,0-0.3,0-0.6,0.3c-0.3,0-0.3,0.3-0.6,0.3
				c-0.6,0.3-1.3,1-1.6,1.6c-0.6,0.6-1,1-1.6,1.3c1.6,0,2.9-1.3,4.2-1.3h0.3h0.3c0.3,0,0,0,0,0c0,0.3,0.3,1,0.3,1.9
				c0.3,0.6,0.3,1.6,1.3,2.6c0.3,0.3,1,0.6,1.3,1c0.3,0,0.6,0.3,0.6,0.3c0.3,0,0.3,0,0.6,0c1.6,0.3,3.6,0,4.8,0
				c1.3-0.3,2.9-0.3,3.2,0l0,0l0,0l0,0c0,0,0.3,0.3,0.6,0.6c0.3,0.6,0.6,1,1,1.6c0.6,1,1.3,2.3,1.6,3.6c0,0,0,0,0,0.3
				C510.9,246.6,509.6,247.2,508.3,248.2"/>
		</g>
	</g>
</g>
<g id="text">
	<g>
		<path fill="#640D0D" d="M249.1,549h-3.6v-18.4h-6.1v-2.9h16.2v2.9h-6.5V549z"/>
		<path fill="#640D0D" d="M267.9,532.5c0.6,0,1.3,0,1.6,0l-0.3,3.2c-0.6,0-1-0.3-1.6-0.3c-1.3,0-2.6,0.3-3.2,1.3
			c-1,1-1.3,1.9-1.3,3.6v8.4h-3.2v-16.2h2.6l0.3,2.9h0.3c0.6-1,1.3-1.6,1.9-2.3C265.9,532.9,266.9,532.5,267.9,532.5z"/>
		<path fill="#640D0D" d="M274,528.3c0-0.6,0.3-1,0.6-1.3c0.3-0.3,1-0.6,1.3-0.6c0.6,0,1,0.3,1.3,0.6c0.3,0.3,0.6,0.6,0.6,1.3
			c0,0.6-0.3,1-0.6,1.3c-0.3,0.3-0.6,0.6-1.3,0.6s-1-0.3-1.3-0.6C274,529.6,274,529,274,528.3z M277.6,549H274v-16.2h3.6V549z"/>
		<path fill="#640D0D" d="M287.6,549l-6.1-16.2h3.6l3.2,9.4c0.6,1.6,1,2.9,1,3.9l0,0c0-0.6,0.3-1.9,1-3.9l3.2-9.4h3.6l-6.1,16.2
			H287.6z"/>
		<path fill="#640D0D" d="M301.1,528.3c0-0.6,0.3-1,0.6-1.3c0.3-0.3,1-0.6,1.3-0.6c0.6,0,1,0.3,1.3,0.6c0.3,0.3,0.6,0.6,0.6,1.3
			c0,0.6-0.3,1-0.6,1.3c-0.3,0.3-0.6,0.6-1.3,0.6s-1-0.3-1.3-0.6C301.5,529.6,301.1,529,301.1,528.3z M305,549h-3.6v-16.2h3.6V549z"
			/>
		<path fill="#640D0D" d="M321.5,549l-0.6-2.3l0,0c-0.6,1-1.6,1.6-2.3,1.9c-0.6,0.3-1.9,0.6-2.9,0.6c-1.6,0-2.9-0.3-3.6-1.3
			c-1-1-1.3-1.9-1.3-3.6c0-1.6,0.6-2.9,1.9-3.9c1.3-1,3.2-1.3,5.5-1.3h2.9v-1c0-1-0.3-1.9-0.6-2.3c-0.3-0.6-1.3-0.6-2.3-0.6
			s-1.6,0-2.3,0.3c-0.6,0.3-1.6,0.6-2.3,1l-1-2.6c1-0.3,1.9-0.6,2.9-1c1-0.3,1.9-0.3,2.9-0.3c1.9,0,3.6,0.3,4.5,1.3
			c1,1,1.6,2.3,1.6,4.2v11h-3.2V549z M316.3,546.4c1.3,0,2.3-0.3,2.9-1c0.6-0.6,1.3-1.6,1.3-2.9v-1.3h-1.9c-1.6,0-2.9,0.3-3.6,1
			c-0.6,0.3-1,1.3-1,2.3c0,0.6,0.3,1.3,0.6,1.6C314.7,546.4,315.4,546.4,316.3,546.4z"/>
		<path fill="#640D0D" d="M347.4,535.4h-3.9V549h-3.6v-13.6h-2.6v-1.6l2.6-1v-1c0-1.9,0.3-3.2,1.3-4.2c1-1,2.3-1.3,4.2-1.3
			c1.3,0,2.3,0.3,3.6,0.6l-1,2.6c-1-0.3-1.6-0.3-2.3-0.3s-1.3,0.3-1.6,0.6c-0.3,0.3-0.6,1.3-0.6,2.3v1h3.9V535.4z"/>
		<path fill="#640D0D" d="M366.1,540.9c0,2.6-0.6,4.8-1.9,6.1c-1.3,1.6-3.2,2.3-5.5,2.3c-1.6,0-2.9-0.3-3.9-1
			c-1-0.6-1.9-1.6-2.6-2.9c-0.6-1.3-1-2.9-1-4.5c0-2.6,0.6-4.5,1.9-6.1c1.3-1.6,3.2-2.3,5.8-2.3c2.3,0,4.2,0.6,5.5,2.3
			C365.4,536.1,366.1,538.3,366.1,540.9z M354.1,540.9c0,3.9,1.3,5.5,4.2,5.5c2.6,0,4.2-1.9,4.2-5.5c0-3.6-1.3-5.5-4.2-5.5
			c-1.3,0-2.6,0.3-3.2,1.3S354.1,539,354.1,540.9z"/>
		<path fill="#640D0D" d="M379.7,532.5c0.6,0,1.3,0,1.6,0l-0.3,3.2c-0.6,0-1-0.3-1.6-0.3c-1.3,0-2.6,0.3-3.2,1.3
			c-1,1-1.3,1.9-1.3,3.6v8.4h-3.6v-16.2h2.6l0.3,2.9h0.3c0.6-1,1.3-1.6,1.9-2.3C377.7,532.9,378.7,532.5,379.7,532.5z"/>
		<path fill="#640D0D" d="M401,546.4c1,0,1.6,0,2.6-0.3v2.6c-0.3,0.3-1,0.3-1.6,0.3c-0.6,0-1.3,0.3-1.9,0.3c-3.2,0-4.8-1.6-4.8-5.2
			v-8.7h-2.3v-1.6l2.3-1.3l1.3-3.6h2.3v3.6h4.5v2.6h-4.5v8.7c0,1,0.3,1.3,0.6,1.9C400,546.1,400.3,546.4,401,546.4z"/>
		<path fill="#640D0D" d="M422.6,549h-3.6v-10c0-1.3-0.3-2.3-0.6-2.9c-0.6-0.6-1.3-1-2.3-1c-1.3,0-2.6,0.3-3.2,1.3
			c-0.6,1-1,2.3-1,4.2v8.1h-3.6v-22.6h3.6v5.8c0,1,0,1.9-0.3,2.9h0.3c0.3-0.6,1-1.3,1.9-1.9c1-0.3,1.9-0.6,2.9-0.6
			c3.9,0,5.8,1.9,5.8,5.8V549z"/>
		<path fill="#640D0D" d="M435.9,549c-2.6,0-4.5-0.6-5.8-2.3c-1.3-1.6-2.3-3.6-2.3-6.1c0-2.6,0.6-4.8,1.9-6.1
			c1.3-1.6,3.2-2.3,5.5-2.3c2.3,0,3.9,0.6,5.2,1.9c1.3,1.3,1.9,3.2,1.9,5.5v1.9h-11c0,1.6,0.3,2.9,1.3,3.6c1,0.6,1.9,1.3,3.2,1.3
			c1,0,1.9,0,2.6-0.3s1.6-0.3,2.6-1v2.9c-1,0.3-1.6,0.6-2.6,1C437.8,549,436.9,549,435.9,549z M435.2,535.1c-1,0-1.9,0.3-2.6,1
			s-1,1.6-1.3,2.9h7.4c0-1.3-0.3-2.3-1-2.9C437.2,535.4,436.2,535.1,435.2,535.1z"/>
		<path fill="#640D0D" d="M466.3,549l-6.1-17.8l0,0c0.3,2.6,0.3,5.2,0.3,7.4V549h-3.2v-21.3h4.8l5.8,17.1l0,0l6.1-17.1h4.8V549h-3.2
			v-10.7c0-1,0-2.6,0-4.2s0-2.6,0-3.2l0,0l-6.5,17.8h-2.9V549z"/>
		<path fill="#640D0D" d="M497.3,549l-0.3-2.3h-0.3c-0.3,0.6-1.3,1.3-1.9,1.6c-1,0.3-1.9,0.6-2.9,0.6c-1.9,0-3.6-0.6-4.5-1.6
			s-1.3-2.6-1.3-4.5v-10.7h3.6v10c0,1.3,0.3,2.3,0.6,2.9c0.3,0.6,1.3,1,2.3,1c1.3,0,2.6-0.3,3.2-1.3s1-2.3,1-4.2v-8.1h3.6v16.2h-2.9
			V549z"/>
		<path fill="#640D0D" d="M517.3,544.2c0,1.6-0.6,2.9-1.6,3.6c-1.3,1-2.9,1.3-4.8,1.3c-2.3,0-3.9-0.3-5.2-1v-2.9
			c1.9,1,3.6,1.3,5.2,1.3c2.3,0,3.2-0.6,3.2-1.9c0-0.3,0-0.6-0.3-1c-0.3-0.3-0.6-0.6-1.3-1c-0.6-0.3-1.3-0.6-2.3-1
			c-1.9-0.6-3.2-1.3-3.9-2.3c-0.6-0.6-1-1.6-1-2.9s0.6-2.6,1.6-3.2c1-0.6,2.6-1.3,4.5-1.3c1.9,0,3.6,0.3,5.5,1.3l-1,2.6
			c-1.6-0.6-3.2-1-4.5-1c-1.9,0-2.6,0.6-2.6,1.6c0,0.6,0.3,1,0.6,1.3c0.3,0.3,1.6,1,3.2,1.3c1.3,0.6,2.3,1,2.9,1.3
			c0.6,0.3,1,1,1.3,1.6C517,542.9,517.3,543.5,517.3,544.2z"/>
		<path fill="#640D0D" d="M522.2,528.3c0-0.6,0.3-1,0.6-1.3c0.3-0.3,1-0.6,1.3-0.6c0.6,0,1,0.3,1.3,0.6c0.3,0.3,0.6,0.6,0.6,1.3
			c0,0.6-0.3,1-0.6,1.3c-0.3,0.3-0.6,0.6-1.3,0.6c-0.6,0-1-0.3-1.3-0.6C522.2,529.6,522.2,529,522.2,528.3z M525.7,549h-3.6v-16.2
			h3.6V549z"/>
		<path fill="#640D0D" d="M538.6,549c-2.6,0-4.2-0.6-5.5-2.3c-1.3-1.3-1.9-3.6-1.9-6.1c0-2.6,0.6-4.8,1.9-6.1
			c1.3-1.6,3.2-2.3,5.8-2.3c1.6,0,3.2,0.3,4.5,1l-1,2.9c-1.3-0.6-2.6-1-3.6-1c-2.9,0-4.2,1.9-4.2,5.5c0,1.9,0.3,3.2,1,4.2
			c0.6,1,1.6,1.3,2.9,1.3c1.6,0,2.9-0.3,4.2-1.3v2.9c-0.6,0.3-1.3,0.6-1.9,0.6C540.6,549,539.6,549,538.6,549z"/>
		<path fill="#640D0D" d="M558.7,549l-0.6-2.3l0,0c-0.6,1-1.6,1.6-2.3,1.9c-0.6,0.3-1.9,0.6-2.9,0.6c-1.6,0-2.9-0.3-3.9-1.3
			c-1-1-1.3-1.9-1.3-3.6c0-1.6,0.6-2.9,1.9-3.9s3.2-1.3,5.5-1.3h2.9v-1c0-1-0.3-1.9-0.6-2.3c-0.3-0.6-1.3-0.6-2.3-0.6
			c-1,0-1.6,0-2.3,0.3c-0.6,0.3-1.6,0.6-2.3,1l-1-2.6c1-0.3,1.9-0.6,2.9-1c1-0.3,1.9-0.3,2.9-0.3c1.9,0,3.6,0.3,4.5,1.3
			c1,1,1.6,2.3,1.6,4.2v11h-2.9V549z M553.5,546.4c1.3,0,2.3-0.3,2.9-1c0.6-0.6,1.3-1.6,1.3-2.9v-1.3h-1.9c-1.6,0-2.9,0.3-3.6,1
			c-0.6,0.3-1,1.3-1,2.3c0,0.6,0.3,1.3,0.6,1.6C551.9,546.4,552.5,546.4,553.5,546.4z"/>
		<path fill="#640D0D" d="M570.6,549h-3.6v-22.6h3.6V549z"/>
		<path fill="#640D0D" d="M580.7,549h-3.6v-22.6h3.6V549z"/>
		<path fill="#640D0D" d="M584.5,532.9h3.9l3.2,9c0.6,1.3,1,2.6,1,3.6l0,0c0-0.6,0.3-1.3,0.3-1.9c0-0.6,1.6-4.5,3.6-11h3.6
			l-6.8,18.4c-1.3,3.2-3.2,5.2-6.1,5.2c-0.6,0-1.6,0-2.3-0.3v-2.6c0.6,0,1,0.3,1.6,0.3c1.6,0,2.9-1,3.6-2.9l0.6-1.6L584.5,532.9z"/>
		<path fill="#640D0D" d="M623.3,549l-6.1-17.8l0,0c0.3,2.6,0.3,5.2,0.3,7.4V549h-3.2v-21.3h4.8l5.8,17.1l0,0l6.1-17.1h4.8V549h-3.2
			v-10.7c0-1,0-2.6,0-4.2s0-2.6,0-3.2l0,0l-6.5,17.8h-2.9V549z"/>
		<path fill="#640D0D" d="M642.7,528.3c0-0.6,0.3-1,0.6-1.3c0.3-0.3,1-0.6,1.3-0.6c0.6,0,1,0.3,1.3,0.6c0.3,0.3,0.6,0.6,0.6,1.3
			c0,0.6-0.3,1-0.6,1.3c-0.3,0.3-0.6,0.6-1.3,0.6s-1-0.3-1.3-0.6C642.7,529.6,642.7,529,642.7,528.3z M646.3,549h-3.6v-16.2h3.6V549
			z"/>
		<path fill="#640D0D" d="M666.9,549h-3.6v-10c0-1.3-0.3-2.3-0.6-2.9c-0.6-0.6-1.3-1-2.3-1c-1.3,0-2.6,0.3-3.2,1.3
			c-0.6,1-1,2.3-1,4.2v8.1h-3.6v-16.2h2.6l0.3,2.3h0.3c0.6-0.6,1.3-1.3,1.9-1.9c0.6-0.6,1.9-0.6,2.9-0.6c3.9,0,5.8,1.9,5.8,5.8v11
			H666.9z"/>
		<path fill="#640D0D" d="M678.6,549c-1.9,0-3.6-0.6-4.8-2.3c-1-1.6-1.6-3.6-1.6-6.1c0-2.6,0.6-4.8,1.6-6.1c1.3-1.6,2.6-2.3,4.8-2.3
			s3.9,0.6,4.8,2.3h0.3c-0.3-1.3-0.3-1.9-0.3-2.6v-5.8h3.6v22.6h-2.6l-0.6-2.3l0,0C682.4,548.4,680.8,549,678.6,549z M679.5,546.4
			c1.3,0,2.6-0.3,3.2-1.3c0.6-0.6,1-1.9,1-3.9v-0.3c0-1.9-0.3-3.6-1-4.2c-0.6-1-1.6-1.3-3.2-1.3c-1.3,0-2.3,0.6-2.9,1.6
			c-0.6,1-1,2.3-1,4.2c0,1.9,0.3,3.2,1,4.2C677.3,545.8,678.2,546.4,679.5,546.4z"/>
		<path fill="#640D0D" d="M700.2,549c-2.6,0-4.5-0.6-5.8-2.3c-1.3-1.6-2.3-3.6-2.3-6.1c0-2.6,0.6-4.8,1.9-6.1
			c1.3-1.3,3.2-2.3,5.5-2.3s3.9,0.6,5.2,1.9c1.3,1.3,1.9,3.2,1.9,5.5v1.9H696c0,1.6,0.3,2.9,1.3,3.6c0.6,1,1.9,1.3,3.2,1.3
			c1,0,1.9,0,2.6-0.3c1-0.3,1.6-0.3,2.6-1v2.9c-1,0.3-1.6,0.6-2.6,1C702.5,549,701.5,549,700.2,549z M699.6,535.1
			c-1,0-1.9,0.3-2.6,1s-1,1.6-1.3,2.9h7.4c0-1.3-0.3-2.3-1-2.9C701.5,535.4,700.9,535.1,699.6,535.1z"/>
		<path fill="#640D0D" d="M717.3,549c-1.9,0-3.6-0.6-4.8-2.3c-1-1.6-1.6-3.6-1.6-6.1c0-2.6,0.6-4.8,1.6-6.1c1.3-1.6,2.6-2.3,4.8-2.3
			s3.9,0.6,4.8,2.3h0.3c-0.3-1.3-0.3-1.9-0.3-2.6v-5.8h3.6v22.6h-2.6l-0.6-2.3l0,0C721.2,548.4,719.6,549,717.3,549z M718.3,546.4
			c1.3,0,2.6-0.3,3.2-1.3c0.6-0.6,1-1.9,1-3.9v-0.3c0-1.9-0.3-3.6-1-4.2c-0.6-1-1.6-1.3-3.2-1.3c-1.3,0-2.3,0.6-2.9,1.6
			c-0.6,1-1,2.3-1,4.2c0,1.9,0.3,3.2,1,4.2C716.1,545.8,717,546.4,718.3,546.4z"/>
	</g>
</g>
<g id="outer_1_">
	<g id="outer">
		<g id="Layer_4">
			<g id="Layer_8">
				<path fill="#640D0D" d="M614.9,418.1c-2.6-3.6-1.9-8.7,1.6-11.3c58.2-42.3,91.4-109.5,89.2-179c-1-23.3-5.5-45.9-13.9-67.5
					c-1.6-4.2,0.3-8.7,4.5-10.3c4.2-1.6,8.7,0.3,10.3,4.5c9,23.3,13.9,47.8,14.9,72.7c2.6,75-33.3,143.8-95.6,189.7"/>
			</g>
			<g id="Layer_7">
				<path fill="#640D0D" d="M347.4,426.5c-65.6-41.4-106-107.3-108.6-182.3c-1-24.6,2.3-48.8,9-72.1c1.3-4.2,5.8-6.8,10-5.5
					c4.5,1.3,6.8,5.8,5.5,10c-6.5,21.7-9.4,44.3-8.7,66.9c2.6,69.5,40.4,133.8,101.1,172.2c3.9,2.3,4.8,7.4,2.6,11"/>
			</g>
			<g id="Layer_6">
				<g enable-background="new    ">
					<path fill="#640D0D" d="M276.2,88.6l4.2-2.6c1.3,2.7,3.3,5.1,5.7,6.9l5.1,3.8l-2.6,4.3c-6.1-4.8-11.2-6.6-16.9,0
						c-7.6,8.9-1.3,19.5,6.1,25.8c7.2,6.2,19.1,10.9,26.5,2.3c5.6-6.5,3.3-12.6-2.7-17.8l3.4-4l8.2,7c0.4,6.5-1.2,13-5.5,18
						c-5.9,6.9-18.8,11.1-33.7-1.7c-14.6-12.5-12-25.5-5.9-32.6c2.6-3,6.1-5.4,9.7-6.9L276.2,88.6z"/>
				</g>
			</g>
			<g id="Layer_5">
			</g>
		</g>
		<g enable-background="new    ">
			<path fill="#640D0D" d="M340.9,68.6c7.7,10.2,10.9,24.6-0.2,33.1c-11.1,8.4-24.2,1.5-31.9-8.7c-7.7-10.2-10.9-24.6,0.2-33.1
				S333.2,58.4,340.9,68.6z M336.6,71.9c-5.8-7.6-16.1-14.8-24.7-8.3c-8.6,6.5-4.5,18.4,1.3,26c5.8,7.6,16.1,14.8,24.7,8.3
				C346.5,91.4,342.4,79.5,336.6,71.9z"/>
		</g>
		<g enable-background="new    ">
			<path fill="#640D0D" d="M371.7,23.8l4.5-0.6c0.4,2.9,1.2,5.7,2.4,8.3c1,2.2,2.3,4.2,3.7,6.2l-4.5,2.9c-3.8-6.7-7.5-10.8-15.7-7
				c-5.5,2.6-12.8,10.2-5.8,25.4c6.6,14.2,16.7,17,22.9,14.1c3.4-1.6,7.9-5.3,8.6-9.1c0.4-2.2-1.1-4.9-2-6.9l-0.7-1.6L375,60.1
				l-2-4.3l19.5-9.1l2,4.3l-4.6,2.2l4.5,9.6c-2.2,5.8-6.7,11.5-12.4,14.2c-13,6.1-24.8-3.4-30.2-14.9c-8.1-17.4-0.8-28.6,8.4-32.8
				c4.2-1.9,7.4-2.1,11.9-2L371.7,23.8z"/>
		</g>
		<g enable-background="new    ">
			<path fill="#640D0D" d="M403.7,14.4l31.8,34.5l0.2,0l-8-35.1l-7.7,1.8l-1-4.6l17.9-4.1l1,4.6l-5.2,1.2l10.2,44.6l-5.2,1.2
				l-32.4-34.9l8.1,35.6l7.5-1.7l1,4.6l-18.7,4.3l-1-4.6l6.1-1.4l-9.1-40l-6.1,1.4l-1-4.6L403.7,14.4z"/>
		</g>
		<g enable-background="new    ">
			<path fill="#640D0D" d="M488.1,4.8l0.1,4.7l-13.4,0.2l0.6,41l13.4-0.2l0.1,4.7l-32.1,0.5l-0.1-4.7l13.4-0.2l-0.6-41l-13.4,0.2
				L456,5.2L488.1,4.8z"/>
		</g>
		<g enable-background="new    ">
			<path fill="#640D0D" d="M550.4,14.4L547,31.7l-5.1-1l1.2-6.3c1.1-5.8,0.8-6.6-4.9-7.7l-6.7-1.3l-8,40.2l10.8,2.1l-0.9,4.6
				L506.7,57l0.9-4.6l10.8,2.1l8-40.2l-6.7-1.3c-5.7-1.1-6.3-0.5-7.5,5.3l-1.2,6.3l-5.1-1l3.5-17.4L550.4,14.4z"/>
		</g>
		<g enable-background="new    ">
			<path fill="#640D0D" d="M600,33.9l-1.9,4.3l-12.3-5.3l-16.3,37.6l12.3,5.3l-1.9,4.3l-29.5-12.7l1.9-4.3l12.3,5.3L581,30.8
				l-12.3-5.3l1.9-4.3L600,33.9z"/>
		</g>
		<g enable-background="new    ">
			<path fill="#640D0D" d="M637.7,88.2c-7.4,10.4-20.2,17.8-31.6,9.7c-11.4-8.1-8.7-22.6-1.3-33s20.2-17.8,31.6-9.7
				C647.8,63.2,645.1,77.8,637.7,88.2z M633.3,85c5.5-7.8,9.3-19.8,0.4-26c-8.8-6.3-18.9,1.2-24.4,9.1s-9.3,19.8-0.4,26
				C617.7,100.3,627.8,92.8,633.3,85z"/>
		</g>
		<g enable-background="new    ">
			<path fill="#640D0D" d="M672,86.2l-14.2,44.7l0.1,0.1l26.5-24.4l-5.4-5.8l3.5-3.2l12.5,13.5l-3.5,3.2l-3.6-3.9l-33.6,31l-3.6-4
				L664.9,92L638,116.7l5.2,5.7l-3.5,3.2l-13-14.1l3.5-3.2l4.2,4.6l30.1-27.8l-4.2-4.6l3.5-3.2L672,86.2z"/>
		</g>
	</g>
</g>
</svg>
